SplineFontDB: 2.0
FontName: Umpush-Light
FullName: Umpush Light
FamilyName: Umpush
Weight: Light
Copyright: Copyright (c) 2003 NECTEC. All rights reserved.\nCopyright (c) 2007 Widhaya Trisarnwadhana. All rights reserved.\nModified under GNU General Public License by TLWG.
Version: 0.9.8: 2008-01-19
ItalicAngle: 0
UnderlinePosition: -85
UnderlineWidth: 10
Ascent: 1638
Descent: 410
NeedsXUIDChange: 1
FSType: 0
OS2Version: 0
OS2_WeightWidthSlopeOnly: 0
OS2_UseTypoMetrics: 0
CreationTime: 1176605901
ModificationTime: 1200713576
PfmFamily: 33
TTFWeight: 300
TTFWidth: 5
LineGap: 0
VLineGap: 0
Panose: 2 11 3 4 2 2 2 2 2 4
OS2TypoAscent: 0
OS2TypoAOffset: 1
OS2TypoDescent: 0
OS2TypoDOffset: 1
OS2TypoLinegap: 0
OS2WinAscent: 0
OS2WinAOffset: 1
OS2WinDescent: 0
OS2WinDOffset: 1
HheadAscent: 0
HheadAOffset: 1
HheadDescent: 0
HheadDOffset: 1
OS2SubXSize: -8690
OS2SubYSize: 13660
OS2SubXOff: 0
OS2SubYOff: 0
OS2SupXSize: 13582
OS2SupYSize: 15536
OS2SupXOff: -9278
OS2SupYOff: 13990
OS2StrikeYSize: 6888
OS2StrikeYPos: 45
OS2Vendor: 'PfEd'
Lookup: 6 0 0 "'ccmp' Thai General Composition"  {"'ccmp' Thai Below Vowel Tone Reordering"  "'ccmp' Thai General Composition"  } ['ccmp' ('thai' <'KUY ' 'PAL ' 'THA ' 'dflt' > ) ]
Lookup: 6 0 0 "'ccmp' Thai Conditional Descender Removal"  {"'ccmp' Thai Conditional Descender Removal"  } ['ccmp' ('thai' <'KUY ' 'PAL ' 'THA ' 'dflt' > ) ]
Lookup: 5 0 0 "Required Thai Descender Removal"  {"Required Thai Descender Removal"  } [' RQD' ('thai' <'PAL ' > ) ]
Lookup: 1 0 0 "Thai Descender Removal Single Substitution"  {"Thai Descender Removal Single Substitution" ("descless" ) } []
Lookup: 2 0 0 "Thai Sara Am Decomposition"  {"Thai Sara Am Decomposition"  } []
Lookup: 2 0 0 "Thai Tone Nikhahit Attachment"  {"Thai Tone Nikhahit Attachment"  } []
Lookup: 1 0 0 "Thai Sara Am Lakkhang"  {"Thai Sara Am Lakkhang"  } []
Lookup: 1 0 0 "Thai Tone Low Variant"  {"Thai Tone Low Variant" ("low" ) } []

StartChar: .notdef
Encoding: 65536 -1 0
Width: 1533
VWidth: 2045
Flags: MW
HStem: 0 32<287 1247> 1248 32<287 1247>
VStem: 256 31<32 1248> 1247 31<32 1248>
Fore
256 0 m 1
 256 1280 l 1
 1278 1280 l 1
 1278 0 l 1
 256 0 l 1
287 32 m 1
 1247 32 l 1
 1247 1248 l 1
 287 1248 l 1
 287 32 l 1
EndSplineSet
EndChar
StartChar: uni0E4D.high
Encoding: 63262 63262 2
Width: 0
VWidth: 2558
Flags: W
HStem: 2026 72<-335.4 -191.65> 2254 74<-334.141 -190.891>
VStem: -412 69<2107.19 2245.29> -183 70<2107.47 2246.5>
AnchorPoint: "AboveMark" -262 2040 mark 0
Fore
-412 2175 m 0
 -412 2258 -345 2328 -262 2328 c 0
 -181 2328 -113 2264 -113 2175 c 0
 -113 2094 -181 2026 -262 2026 c 0
 -342 2026 -412 2088 -412 2175 c 0
-343 2175 m 0
 -343 2135 -309 2098 -262 2098 c 0
 -224 2098 -183 2132 -183 2175 c 0
 -183 2224 -220 2254 -262 2254 c 0
 -318 2254 -343 2210 -343 2175 c 0
EndSplineSet
EndChar
StartChar: exclam
Encoding: 33 33 5
Width: 681
VWidth: 2045
Flags: W
HStem: 0 193<206 369> 1430 20G<213 362>
VStem: 206 163<0 193 875.563 1450>
Fore
213 998 m 1
 213 1450 l 1
 362 1450 l 1
 362 998 l 1
 326 366 l 1
 250 366 l 1
 213 998 l 1
206 193 m 1
 369 193 l 1
 369 0 l 1
 206 0 l 1
 206 193 l 1
EndSplineSet
EndChar
StartChar: quotedbl
Encoding: 34 34 6
Width: 568
VWidth: 2045
Flags: MW
HStem: 946 504<117 203 380 465>
VStem: 91 134<1142.29 1450> 354 134<1142.29 1450>
Fore
117 946 m 1
 91 1217 l 1
 91 1450 l 1
 225 1450 l 1
 225 1217 l 1
 203 946 l 1
 117 946 l 1
380 946 m 1
 354 1217 l 1
 354 1450 l 1
 488 1450 l 1
 488 1217 l 1
 465 946 l 1
 380 946 l 1
EndSplineSet
EndChar
StartChar: numbersign
Encoding: 35 35 7
Width: 1137
VWidth: 2045
Flags: W
HStem: -9 21G<87 217.061 599 728.01> 385 127<21 166 323 677 826 1113> 949 127<21 285 442 797 945 1113> 1450 20G<390.99 521 901.939 1034>
Fore
87 -9 m 1
 166 385 l 1
 21 385 l 1
 21 512 l 1
 195 512 l 1
 285 949 l 1
 21 949 l 1
 21 1076 l 1
 316 1076 l 1
 395 1470 l 1
 521 1470 l 1
 442 1076 l 1
 826 1076 l 1
 906 1470 l 1
 1034 1470 l 1
 945 1076 l 1
 1113 1076 l 1
 1113 949 l 1
 916 949 l 1
 826 512 l 1
 1113 512 l 1
 1113 385 l 1
 803 385 l 1
 724 -9 l 1
 599 -9 l 1
 677 385 l 1
 293 385 l 1
 213 -9 l 1
 87 -9 l 1
323 512 m 1
 707 512 l 1
 797 949 l 1
 412 949 l 1
 323 512 l 1
EndSplineSet
EndChar
StartChar: dollar
Encoding: 36 36 8
Width: 1137
VWidth: 2045
Flags: W
HStem: -18 103<368.99 512 602 750.48> 681 106<318.126 512> 1308 100<369.536 512 602 752.913>
VStem: 76 125<258.894 417> 107 125<907.977 1180.12> 512 90<-118 -18 85 659 787 1308 1408 1488> 886 120<1050 1179.62> 910 130<227.094 520.616>
Fore
602 85 m 1xe5
 673 95 910 131 910 390 c 0
 910 605 638 651 602 659 c 1
 602 85 l 1xe5
1040 397 m 0
 1040 189 893 -14 602 -15 c 1
 602 -118 l 1
 512 -118 l 1
 512 -18 l 1
 254 5 76 149 76 417 c 1
 201 417 l 1xf5
 201 257 337 86 512 85 c 1
 512 681 l 17
 283 718 107 821 107 1030 c 0
 107 1193 229 1408 512 1408 c 1
 512 1488 l 1
 602 1488 l 1
 602 1408 l 1
 908 1403 1006 1175 1006 1050 c 1
 886 1050 l 1xee
 879.875 1159.23 788.039 1307.96 602 1308 c 1
 602 767 l 1
 673 760 1040 693 1040 397 c 0
512 1308 m 1
 334 1295 232 1159 232 1059 c 0xec
 232 950 267 845 512 787 c 1
 512 1308 l 1
EndSplineSet
EndChar
StartChar: percent
Encoding: 37 37 9
Width: 1818
VWidth: 2045
Flags: W
HStem: -48 85<1270.6 1485.9> 640 82<1266.5 1486.47> 719 85<321.179 540.055> 1408 82<322.474 537.908>
VStem: 119 101<920.406 1292.96> 640 104<920.407 1293.22> 1064 102<154.223 523.803> 1587 105<152.392 523.233>
Fore
1378 -48 m 256xdf
 1206 -48 1064 123 1064 337 c 256
 1064 539 1198 722 1378 722 c 256
 1553 722 1692 549 1692 337 c 256
 1692 126 1555 -48 1378 -48 c 256xdf
1377 640 m 256
 1256 640 1166 503 1166 338 c 256
 1166 167 1262 36 1377 37 c 256
 1493 37 1587 168 1587 338 c 256
 1587 509 1494 640 1377 640 c 256
431 719 m 256xbf
 270 719 119 874 119 1106 c 256
 119 1324 259 1488 431 1490 c 256
 617 1490 744 1307 744 1106 c 256
 744 889 607 719 431 719 c 256xbf
430 1408 m 256
 314 1408 220 1278 220 1106 c 256
 220 938 314 804 430 804 c 256
 549 804 640 942 640 1106 c 256
 640 1277 547 1408 430 1408 c 256
1247 1490 m 1
 1372 1490 l 1
 614 -9 l 1
 488 -9 l 1
 1247 1490 l 1
EndSplineSet
EndChar
StartChar: ampersand
Encoding: 38 38 10
Width: 1364
VWidth: 2045
Flags: W
HStem: -24 119<387.284 731.251> 1381 110<483.565 765.979>
VStem: 87 142<254.517 507.662> 271 131<1050.7 1260.72> 845 131<1072.19 1304.56> 1084 136<415.511 668.461>
Fore
87 378 m 0
 87 563 188 746 436 841 c 1
 283 1014 271 1099 271 1163 c 0
 271 1330 412 1491 637 1491 c 0
 839 1491 976 1345 976 1178 c 0
 976 1044 864 917 640 798 c 1
 977 373 l 1
 1032 471 1068 576 1084 689 c 1
 1220 649 l 1
 1195 520 1144 394 1067 269 c 1
 1127 196 1210 125 1317 56 c 1
 1212 -27 l 1
 1117 25 1040 89 979 165 c 1
 871 39 729 -24 552 -24 c 0
 201 -24 87 257 87 378 c 0
845 1191 m 0
 845 1279 764 1381 627 1381 c 0
 429 1381 402 1214 402 1181 c 0
 402 1094 444 1043 567 897 c 1
 581 903 845 1015 845 1191 c 0
229 417 m 0
 229 306 305 95 555 95 c 0
 689 95 830 178 889 266 c 1
 526 739 l 1
 254 644 229 459 229 417 c 0
EndSplineSet
EndChar
StartChar: quotesingle
Encoding: 39 39 11
Width: 454
VWidth: 2045
Flags: W
HStem: 946 519<166 262>
VStem: 136 160<1162.23 1465 1220 1465 1220 1220>
Fore
166 946 m 1
 136 1220 l 1
 136 1465 l 1
 296 1465 l 1
 296 1220 l 1
 262 946 l 1
 166 946 l 1
EndSplineSet
EndChar
StartChar: parenleft
Encoding: 40 40 12
Width: 681
VWidth: 2045
Flags: W
VStem: 125 131<281.238 885.971>
Fore
555 1489 m 1
 420 1306 256 967 256 562 c 0
 256 458 235 68 555 -430 c 1
 479 -430 l 1
 176 -48 125 315 125 532 c 0
 125 932 286 1264 479 1489 c 1
 555 1489 l 1
EndSplineSet
EndChar
StartChar: parenright
Encoding: 41 41 13
Width: 681
VWidth: 2045
Flags: W
VStem: 450 132<289.941 885.72>
Fore
450 569 m 0
 450 466 467 61 152 -430 c 1
 227 -430 l 1
 534 -44 582 337 582 546 c 0
 582 969 382 1308 227 1489 c 1
 152 1489 l 1
 280 1312 450 968 450 569 c 0
EndSplineSet
EndChar
StartChar: asterisk
Encoding: 42 42 14
Width: 795
VWidth: 2045
Flags: MW
VStem: 335 116<1372.4 1489>
Fore
70 1208 m 1
 105 1325 l 1
 351 1223 l 1
 344 1334 338 1423 335 1489 c 1
 451 1489 l 1
 448 1426 442 1339 433 1228 c 1
 506 1263 590 1296 683 1326 c 1
 720 1210 l 1
 623 1181 536 1158 457 1143 c 1
 500 1109 559 1042 636 942 c 1
 538 873 l 1
 475 956 426 1031 389 1097 c 1
 348 1025 300 952 245 878 c 1
 156 941 l 1
 223 1032 279 1099 326 1142 c 1
 70 1208 l 1
EndSplineSet
EndChar
StartChar: plus
Encoding: 43 43 15
Width: 1350
VWidth: 2045
Flags: MW
HStem: 662 122<189 611 735 1157 189 1157 189 189>
VStem: 611 124<237 662 784 1205>
Fore
611 237 m 1
 611 662 l 1
 189 662 l 1
 189 784 l 1
 611 784 l 1
 611 1205 l 1
 735 1205 l 1
 735 784 l 1
 1157 784 l 1
 1157 662 l 1
 735 662 l 1
 735 237 l 1
 611 237 l 1
EndSplineSet
EndChar
StartChar: comma
Encoding: 44 44 16
Width: 568
VWidth: 2045
Flags: MW
VStem: 204 183<0 205> 299 88<-158.875 0>
Fore
204 0 m 1
 204 205 l 1
 387 205 l 1
 387 0 l 2
 387 -99 367 -228 220 -290 c 1
 186 -213 l 1
 256 -181 295 -125 299 0 c 1
 204 0 l 1
EndSplineSet
EndChar
StartChar: hyphen
Encoding: 45 45 17
Width: 681
VWidth: 2045
Flags: W
HStem: 462 136<64 617 64 617 64 64>
Fore
64 462 m 1
 64 598 l 1
 617 598 l 1
 617 462 l 1
 64 462 l 1
EndSplineSet
EndChar
StartChar: period
Encoding: 46 46 18
Width: 568
VWidth: 2045
Flags: W
HStem: 0 196<186 369>
VStem: 186 183<0 196>
Fore
186 0 m 1
 186 196 l 1
 369 196 l 1
 369 0 l 1
 186 0 l 1
EndSplineSet
EndChar
StartChar: slash
Encoding: 47 47 19
Width: 568
VWidth: 2045
Flags: MW
HStem: -9 21G<-81 56.9215> 1448 20G<498.051 634>
Fore
-81 -9 m 1
 506 1468 l 1
 634 1468 l 1
 49 -9 l 1
 -81 -9 l 1
EndSplineSet
EndChar
StartChar: zero
Encoding: 48 48 20
Width: 1137
VWidth: 2045
Flags: W
HStem: -15 112<406.206 719.109> 1347 112<406.133 720.459>
VStem: 85 131<365.881 1078.12> 904 130<365.881 1090.65>
Fore
904 722 m 24
 905 1139 791 1347 561 1347 c 24
 331 1347 216 1139 216 722 c 24
 216 305 331 97 561 97 c 24
 789 97 903 305 904 722 c 24
1034 722 m 24
 1034 231 875 -15 558 -15 c 16
 245 -15 87 231 85 722 c 0
 84 1213 242 1459 560 1459 c 24
 876 1459 1035 1213 1034 722 c 24
EndSplineSet
EndChar
StartChar: one
Encoding: 49 49 21
Width: 1137
VWidth: 2045
Flags: MW
HStem: 0 21G<636 763> 1451 20G<571 763>
VStem: 636 127<0 1300>
Fore
223 1103 m 1
 455 1211 560 1385 582 1471 c 1
 763 1471 l 1
 763 0 l 1
 636 0 l 1
 636 1300 l 1
 519 1136 435 1060 223 997 c 1
 223 1103 l 1
EndSplineSet
EndChar
StartChar: two
Encoding: 50 50 22
Width: 1137
VWidth: 2045
Flags: W
HStem: 0 136<259 1031> 1370 110<377.561 746.289>
VStem: 96 131<1039 1211.84> 896 131<908.753 1230.19>
Fore
572 1480 m 0
 869 1480 1028 1300 1027 1075 c 0
 1027 948 990 847 916 772 c 0
 842 697 753 617 649 532 c 10
 368 298 l 18
 293 234 257 180 259 136 c 1
 1031 136 l 1
 1031 0 l 1
 61 0 l 1
 61 131 108 238 202 321 c 0
 467 556 524 576 770 804 c 0
 854 882 896 973 896 1078 c 0
 896 1298 691 1370 567 1370 c 0
 266 1370 228 1131 227 1039 c 1
 96 1039 l 1
 96 1300 285 1480 572 1480 c 0
EndSplineSet
EndChar
StartChar: three
Encoding: 51 51 23
Width: 1137
VWidth: 2045
Flags: W
HStem: -9 127<385.025 728.677> 713 131<490.545 574.117> 1069 21G<102.5 231.5> 1353 127<368.185 730.204>
VStem: 85 128<290.149 426> 104 127<1069 1212.11> 842 131<976.098 1251.92> 892 152<277.513 593.328>
Fore
550 1480 m 0xf6
 839 1480 973 1268 973 1095 c 0xf6
 973 1010 948 942 898 890 c 0
 846 837 804 805 771 794 c 1
 825 783 1044 725 1044 449 c 0
 1044 166 816 -9 552 -9 c 0
 253 -9 89 220 85 426 c 1
 213 426 l 1
 213 322 315 118 552 118 c 0
 708 118 892 220 892 442 c 0xf9
 892 659 703 713 562 713 c 0
 520 713 479 706 441 693 c 1
 441 844 l 1
 527 844 694 848 766 933 c 0
 816 994 842 1051 842 1106 c 0
 842 1304 679 1353 543 1353 c 0
 297 1353 232 1166 231 1069 c 9
 104 1069 l 1
 101 1256 259 1480 550 1480 c 0xf6
EndSplineSet
EndChar
StartChar: four
Encoding: 52 52 24
Width: 1137
VWidth: 2045
Flags: W
HStem: 0 21G<715 842> 347 121<159 715 842 1040 26 1040 159 159> 1451 20G<678.6 842>
VStem: 715 127<0 347 468 1282>
Fore
715 0 m 1
 715 347 l 1
 26 347 l 1
 26 477 l 1
 692 1471 l 1
 842 1471 l 1
 842 468 l 1
 1040 468 l 1
 1040 347 l 1
 842 347 l 1
 842 0 l 1
 715 0 l 1
715 468 m 1
 715 1282 l 1
 159 468 l 1
 715 468 l 1
EndSplineSet
EndChar
StartChar: five
Encoding: 53 53 25
Width: 1137
VWidth: 2045
Flags: W
HStem: -9 124<365.134 724.729> 855 131<381.125 749.996> 1344 127<369 988>
VStem: 85 135<262.962 414> 916 139<311.621 694.661>
Fore
916 520 m 0
 916 662 843 855 552 855 c 0
 422 854 324 797 259 686 c 1
 116 707 l 1
 259 1471 l 1
 988 1471 l 1
 988 1344 l 1
 369 1344 l 1
 268 852 l 1
 331 941 442 985 601 986 c 0
 834 988 1055 821 1055 512 c 24
 1055 257 902 -9 545 -9 c 0
 214 -9 91 234 85 414 c 1
 220 414 l 1
 243 153 426 115 568 115 c 0
 707 115 916 221 916 520 c 0
EndSplineSet
EndChar
StartChar: six
Encoding: 54 54 26
Width: 1137
VWidth: 2045
Flags: W
HStem: -9 127<422.091 753.689> 844 132<408.839 748.036> 1341 139<421.769 761.555>
VStem: 76 140<622.498 1060.61> 76 177<357.026 869.272> 893 125<1103 1214.27> 913 130<286.355 668.717>
Fore
577 -9 m 0xf2
 229 -9 76 296 76 673 c 0
 76 1084 181 1480 602 1480 c 0
 825 1480 1014 1334 1018 1103 c 1
 893 1103 l 1xf4
 887 1152 837 1341 592 1341 c 0
 291 1341 223 1052 216 766 c 1
 223 788 309 976 604 976 c 0
 809 976 1043 806 1043 491 c 24
 1043 253 904 -9 577 -9 c 0xf2
576 844 m 0
 379 844 253 699 253 489 c 0
 253 281 380 118 582 118 c 0
 848 118 913 340 913 480 c 0xea
 913 673 801 844 576 844 c 0
EndSplineSet
EndChar
StartChar: seven
Encoding: 55 55 27
Width: 1137
VWidth: 2045
Flags: W
HStem: 0 21G<361 510> 1329 142<98 886>
VStem: 361 149<0 143.223>
Fore
361 0 m 1
 362 168 379 682 886 1329 c 1
 98 1329 l 1
 98 1471 l 1
 1046 1471 l 1
 1046 1329 l 1
 520 703 510 126 510 0 c 1
 361 0 l 1
EndSplineSet
EndChar
StartChar: eight
Encoding: 56 56 28
Width: 1137
VWidth: 2045
Flags: W
HStem: -9 119<386.505 743.954> 727 131<402.831 729.143> 1365 115<400.445 726.534>
VStem: 81 135<269.094 568.815> 142 131<979.746 1240.83> 858 130<979.686 1245.27> 915 134<269.374 567.438>
Fore
566 858 m 256xec
 389 858 273 984 273 1107 c 0
 273 1265 416 1365 566 1365 c 256
 728 1365 858 1252 858 1112 c 256
 858 969 727 858 566 858 c 256xec
566 110 m 256
 384 110 216 231 216 423 c 0
 216 583 364 727 566 727 c 256
 760 727 915 592 915 418 c 256xf2
 915 245 760 110 566 110 c 256
81 417 m 0
 81 211 247 -9 566 -9 c 0
 776 -9 1049 82 1049 446 c 0xf2
 1049 566 985 734 771 804 c 1
 850 838 988 899 988 1100 c 0
 988 1329 809 1480 563 1480 c 0
 308 1480 142 1328 142 1103 c 0xec
 142 958 215 858 361 804 c 1
 147 748 81 578 81 417 c 0
EndSplineSet
EndChar
StartChar: nine
Encoding: 57 57 29
Width: 1137
VWidth: 2045
Flags: W
HStem: -9 139<405.265 733.565> 495 133<419.702 731.897> 1347 133<418.384 731.679>
VStem: 113 128<811.476 1162.5> 139 132<234.444 358.595> 906 173<595.313 1109.6> 939 140<381.454 713>
Fore
573 1347 m 256xf4
 395 1347 241 1190 241 988 c 256
 241 782 399 628 573 628 c 256
 760 628 906 790 906 988 c 256
 906 1171 773 1347 573 1347 c 256xf4
1079 748 m 0
 1079 353 971 -9 538 -9 c 0
 324 -9 156 154 139 369 c 9
 271 369 l 1
 291 239 406 127 566 130 c 0
 650 130 732 161 812 222 c 0
 893 283 935 447 939 713 c 1xea
 847 519 685 495 564 495 c 0
 368 495 113 642 113 980 c 0
 113 1206 243 1480 572 1480 c 0
 876 1480 1079 1284 1079 748 c 0
EndSplineSet
EndChar
StartChar: colon
Encoding: 58 58 30
Width: 568
VWidth: 2045
Flags: W
HStem: 0 205<238 390> 856 204<238 390>
VStem: 238 152<0 205 856 1060>
Fore
238 856 m 1
 238 1060 l 1
 390 1060 l 1
 390 856 l 1
 238 856 l 1
238 0 m 1
 238 205 l 1
 390 205 l 1
 390 0 l 1
 238 0 l 1
EndSplineSet
EndChar
StartChar: semicolon
Encoding: 59 59 31
Width: 568
VWidth: 2045
Flags: W
HStem: 856 204<220 388>
VStem: 220 168<0 205 856 1060> 291 97<-70.9847 0>
Fore
220 856 m 1xc0
 220 1060 l 1
 388 1060 l 1
 388 856 l 1
 220 856 l 1xc0
220 0 m 1
 220 205 l 1
 388 205 l 1
 388 0 l 2
 388 -159 323 -244 220 -290 c 1xc0
 177 -221 l 1
 283 -173 291 -49 291 0 c 1xa0
 220 0 l 1
EndSplineSet
EndChar
StartChar: less
Encoding: 60 60 32
Width: 1350
VWidth: 2045
Flags: MW
Fore
174 663 m 1
 174 785 l 1
 1144 1217 l 1
 1144 1081 l 1
 320 723 l 1
 1144 356 l 1
 1144 227 l 1
 174 663 l 1
EndSplineSet
EndChar
StartChar: equal
Encoding: 61 61 33
Width: 1350
VWidth: 2045
Flags: MW
HStem: 440 130<189 1157> 885 121<189 1157>
Fore
1157 885 m 1
 189 885 l 1
 189 1006 l 1
 1157 1006 l 1
 1157 885 l 1
1157 440 m 1
 189 440 l 1
 189 570 l 1
 1157 570 l 1
 1157 440 l 1
EndSplineSet
EndChar
StartChar: greater
Encoding: 62 62 34
Width: 1350
VWidth: 2045
Flags: MW
Fore
1159 663 m 1
 1159 785 l 1
 189 1217 l 1
 188 1081 l 1
 1011 723 l 1
 188 356 l 1
 189 227 l 1
 1159 663 l 1
EndSplineSet
EndChar
StartChar: question
Encoding: 63 63 35
Width: 1022
VWidth: 2045
Flags: W
HStem: 0 205<430 589> 1378 126<327.693 688.667>
VStem: 37 131<1045 1213.51> 430 159<0 205> 852 130<948.364 1226.94>
Fore
511 1504 m 0
 777 1504 982 1336 982 1084 c 0
 982 938 920 841 720 693 c 0
 649 640 606 577 590 506 c 0
 575 435 567 386 567 361 c 9
 442 361 l 17
 442 396 451 458 472 544 c 0
 533 801 852 838 852 1088 c 0
 852 1210 737 1378 514 1378 c 8
 270 1378 169 1212 168 1045 c 1
 37 1045 l 1
 49 1299 227 1504 511 1504 c 0
430 0 m 1
 430 205 l 1
 589 205 l 1
 589 0 l 1
 430 0 l 1
EndSplineSet
EndChar
StartChar: at
Encoding: 64 64 36
Width: 1635
VWidth: 2045
Flags: W
HStem: -430 112<592.452 1269.35> -33 145<1150.41 1343.52> -3 115<555.737 838.719> 967 116<671.278 999.752> 1384 109<623.943 1148.16>
VStem: -88 113<193.46 777.909> 303 123<253.992 669.304> 1645 111<500.854 942.883>
Fore
303 461 m 0xbf
 303 801 564 1083 808 1083 c 0
 943 1083 1074 1041 1153 938 c 1
 1186 1078 l 1
 1326 1078 l 1
 1159 257 l 2
 1150 217 1146 190 1146 175 c 0
 1146 141 1183 112 1223 112 c 0
 1498 112 1645 559 1645 709 c 0
 1645 1164 1215 1384 896 1384 c 0
 451 1384 25 1059 25 479 c 0
 25 -159 530 -318 933 -318 c 0
 1282 -318 1569 -204 1669 18 c 1
 1805 18 l 1
 1756 -83 1533 -430 929 -430 c 0
 57 -430 -88 156 -88 468 c 0
 -88 1117 364 1493 914 1493 c 0
 1522 1493 1756 1044 1756 722 c 0
 1756 351 1480 -33 1154 -33 c 0xdf
 1094 -33 982 3 982 145 c 1
 882 46 773 -3 656 -3 c 0
 434 -3 303 215 303 461 c 0xbf
823 967 m 0
 590 965 426 681 426 462 c 0
 426 192 582 112 686 112 c 0xbf
 961 112 1101 473 1101 668 c 0
 1101 838 1046 967 823 967 c 0
EndSplineSet
EndChar
StartChar: A
Encoding: 65 65 37
Width: 1364
VWidth: 2045
Flags: W
HStem: 0 21G<-3 157.025 1192.46 1366> 471 129<381 954> 1430 20G<573.931 752.579>
Fore
582 1450 m 1
 744 1450 l 1
 1366 0 l 1
 1201 0 l 1
 1000 471 l 1
 338 471 l 1
 149 0 l 1
 -3 0 l 1
 582 1450 l 1
954 600 m 1
 659 1290 l 1
 381 600 l 1
 954 600 l 1
EndSplineSet
EndChar
StartChar: B
Encoding: 66 66 38
Width: 1364
VWidth: 2045
Flags: W
HStem: 0 136<290 971.272> 692 127<290 925.547> 1314 136<290 931.151>
VStem: 165 125<136 692 819 1314> 1047 138<921.407 1207.74> 1108 148<265.837 562.926>
Fore
1256 429 m 0xf4
 1256 265 1181 0 753 0 c 2
 165 0 l 1
 165 1450 l 1
 698 1450 l 2
 1131 1450 1185 1189 1185 1080 c 0xf8
 1185 1001 1152 856 980 772 c 1
 1175 713 1256 566 1256 429 c 0xf4
729 819 m 2
 855 819 1047 865 1047 1052 c 0
 1047 1209 962 1314 704 1314 c 2
 290 1314 l 1
 290 819 l 1
 729 819 l 2
1108 420 m 0xf4
 1108 612 925 692 750 692 c 2
 290 692 l 1
 290 136 l 1
 778 136 l 2
 1058 136 1108 327 1108 420 c 0xf4
EndSplineSet
EndChar
StartChar: C
Encoding: 67 67 39
Width: 1477
VWidth: 2045
Flags: W
HStem: -10 143<560.993 1032.26> 1335 142<574.098 1015.69>
VStem: 102 143<470.866 1009.34> 1238 134<1050 1213> 1262 134<280.129 480>
Fore
787 133 m 0xf0
 1062 133 1215 248 1262 480 c 1
 1396 480 l 1xe8
 1341 206 1120 -10 817 -10 c 0
 217 -10 102 453 102 745 c 0
 102 1187 386 1477 793 1477 c 0
 1100 1477 1298 1305 1372 1050 c 1
 1238 1050 l 1
 1163 1283 937 1335 790 1335 c 0
 579 1335 245 1217 245 746 c 0
 245 383 431 133 787 133 c 0xf0
EndSplineSet
EndChar
StartChar: D
Encoding: 68 68 40
Width: 1477
VWidth: 2045
Flags: W
HStem: 0 136<296 921.834> 1314 136<296 942.825>
VStem: 168 128<136 1314> 1235 143<460.173 1019.69>
Fore
672 1450 m 2
 1237 1450 1381 1147 1378 733 c 0
 1375 350 1241 0 695 0 c 2
 168 0 l 1
 168 1450 l 1
 672 1450 l 2
296 136 m 1
 689 136 l 2
 1126 136 1235 456 1235 736 c 0
 1235 1054 1125 1314 685 1314 c 2
 296 1314 l 1
 296 136 l 1
EndSplineSet
EndChar
StartChar: E
Encoding: 69 69 41
Width: 1248
VWidth: 2045
Flags: W
HStem: 0 142<235 1168> 668 136<235 967> 1305 145<235 1168>
VStem: 108 127<142 668 804 1305>
Fore
108 0 m 1
 108 1450 l 1
 1168 1450 l 1
 1168 1305 l 1
 235 1305 l 1
 235 804 l 1
 967 804 l 1
 967 668 l 1
 235 668 l 1
 235 142 l 1
 1168 142 l 1
 1168 0 l 1
 108 0 l 1
EndSplineSet
EndChar
StartChar: F
Encoding: 70 70 42
Width: 1137
VWidth: 2045
Flags: MW
HStem: 663 135<216 932> 1323 127<216 1079>
VStem: 91 125<0 663 798 1323>
Fore
91 0 m 1
 91 1450 l 1
 1079 1450 l 1
 1079 1323 l 1
 216 1323 l 1
 216 798 l 1
 932 798 l 1
 932 663 l 1
 216 663 l 1
 216 0 l 1
 91 0 l 1
EndSplineSet
EndChar
StartChar: G
Encoding: 71 71 43
Width: 1590
VWidth: 2045
Flags: W
HStem: -9 142<614.189 1055.35> 1335 142<605.76 1062.56>
VStem: 148 143<474.341 1008.27> 1284 134<1050 1204.28> 1310 138<372.943 539>
Fore
835 -9 m 0xf0
 1207 -9 1444 191 1448 539 c 2
 1448 683 l 1
 950 683 l 1
 950 541 l 1
 1310 541 l 1xe8
 1310 414 1223 133 815 133 c 0
 602 133 291 263 291 753 c 0
 291 1101 495 1335 827 1335 c 0
 1155 1335 1262 1135 1284 1050 c 1
 1418 1050 l 1
 1345 1304 1147 1477 839 1477 c 0
 434 1477 148 1189 148 745 c 0
 148 479 258 -9 835 -9 c 0xf0
EndSplineSet
EndChar
StartChar: H
Encoding: 72 72 44
Width: 1477
VWidth: 2045
Flags: W
HStem: 0 21G<165 290 1186 1313> 690 134<290 1186> 1430 20G<165 290 1186 1313>
VStem: 165 125<0 690 824 1450> 1186 127<0 690 824 1450>
Fore
165 0 m 1
 165 1450 l 1
 290 1450 l 1
 290 824 l 1
 1186 824 l 1
 1186 1450 l 1
 1313 1450 l 1
 1313 0 l 1
 1186 0 l 1
 1186 690 l 1
 290 690 l 1
 290 0 l 1
 165 0 l 1
EndSplineSet
EndChar
StartChar: I
Encoding: 73 73 45
Width: 568
VWidth: 2045
Flags: W
HStem: 0 1450<235 369 235 369 235 235>
VStem: 235 134<0 1450>
Fore
235 0 m 1
 235 1450 l 1
 369 1450 l 1
 369 0 l 1
 235 0 l 1
EndSplineSet
EndChar
StartChar: J
Encoding: 74 74 46
Width: 1022
VWidth: 2045
Flags: W
HStem: -9 127<301.767 618.749> 1430 20G<730 864>
VStem: 64 127<302.364 455> 730 134<231.612 1450>
Fore
730 1450 m 17
 864 1450 l 1
 864 456 l 2
 864 193 778 -9 463 -9 c 0
 31 -9 64 375 64 455 c 1
 191 455 l 17
 191 262 245 118 460 118 c 0
 643 118 730 233 730 408 c 10
 730 1450 l 17
EndSplineSet
EndChar
StartChar: K
Encoding: 75 75 47
Width: 1364
VWidth: 2045
Flags: W
HStem: 0 21G<149 277 1146.78 1345> 1430 20G<149 277 1101.89 1314>
VStem: 149 128<0 553 716 1450>
Fore
149 0 m 1
 149 1450 l 1
 277 1450 l 1
 277 716 l 1
 1125 1450 l 1
 1314 1450 l 1
 590 823 l 1
 1345 0 l 1
 1165 0 l 1
 488 743 l 1
 277 553 l 1
 277 0 l 1
 149 0 l 1
EndSplineSet
EndChar
StartChar: L
Encoding: 76 76 48
Width: 1137
VWidth: 2045
Flags: MW
HStem: 0 133<277 1058> 1430 20G<149 277>
VStem: 149 128<133 1450>
Fore
149 0 m 1
 149 1450 l 1
 277 1450 l 1
 277 133 l 1
 1058 133 l 1
 1058 0 l 1
 149 0 l 1
EndSplineSet
EndChar
StartChar: M
Encoding: 77 77 49
Width: 1702
VWidth: 2045
Flags: W
HStem: 0 21G<152 277 786.935 911.943 1415 1549> 1430 20G<152 285.872 1406.28 1549>
VStem: 152 125<0 1145> 1415 134<0 1145>
Fore
152 0 m 1
 152 1450 l 1
 277 1450 l 1
 851 156 l 1
 1415 1450 l 1
 1549 1450 l 1
 1549 0 l 1
 1415 0 l 1
 1415 1145 l 1
 903 0 l 1
 796 0 l 1
 277 1145 l 1
 277 0 l 1
 152 0 l 1
EndSplineSet
EndChar
StartChar: N
Encoding: 78 78 50
Width: 1477
VWidth: 2045
Flags: W
HStem: 0 21G<156 283 1160.64 1309> 1430 20G<156 297.364 1175 1309>
VStem: 156 127<0 1242> 1175 134<208 1450>
Fore
156 0 m 1
 156 1450 l 1
 283 1450 l 1
 1175 208 l 1
 1175 1450 l 1
 1309 1450 l 1
 1309 0 l 1
 1175 0 l 1
 283 1242 l 1
 283 0 l 1
 156 0 l 1
EndSplineSet
EndChar
StartChar: O
Encoding: 79 79 51
Width: 1590
VWidth: 2045
Flags: W
HStem: -12 119<601.403 988.211> 1349 125<597.409 990.391>
VStem: 99 145<481.281 970.869> 1342 157<484.89 974.978>
Fore
99 731 m 256
 99 1184 392 1474 799 1474 c 256
 1359 1474 1499 997 1499 731 c 256
 1499 310 1219 -12 799 -12 c 256
 239 -12 99 485 99 731 c 256
793 1349 m 256
 497 1349 244 1081 244 728 c 256
 244 375 497 107 793 107 c 256
 1089 107 1342 373 1342 728 c 256
 1342 1084 1088 1349 793 1349 c 256
EndSplineSet
EndChar
StartChar: P
Encoding: 80 80 52
Width: 1248
VWidth: 2045
Flags: W
HStem: 0 21G<88 216> 580 127<216 884.811> 1314 136<216 903.572>
VStem: 88 128<0 580 707 1314> 1062 145<866.093 1178.9>
Fore
88 0 m 1
 88 1450 l 1
 672 1450 l 2
 844 1450 1207 1438 1207 1026 c 0
 1207 758 1055 580 659 580 c 2
 216 580 l 1
 216 0 l 1
 88 0 l 1
662 707 m 2
 1009 707 1062 920 1062 1040 c 0
 1062 1150 1000 1314 659 1314 c 2
 216 1314 l 1
 216 707 l 1
 662 707 l 2
EndSplineSet
EndChar
StartChar: Q
Encoding: 81 81 53
Width: 1590
VWidth: 2045
Flags: W
HStem: -9 139<580.311 931.722 1270.19 1527.21> 347 123<667.837 980.803> 1335 142<553.753 996.934>
VStem: 81 146<475.032 984.15> 1325 146<443.317 983.047>
Fore
430 249 m 1
 498 348 630 470 788 470 c 0
 1027 470 1153 340 1186 293 c 1
 1286 397 1325 526 1325 722 c 0
 1325 1151 1055 1335 778 1335 c 0
 501 1335 227 1154 227 725 c 0
 227 513 324 307 430 249 c 1
1387 0 m 0
 1225 0 1153 104 1153 104 c 1
 1051 29 928 -9 784 -9 c 0
 362 -9 81 278 81 720 c 0
 81 1292 455 1477 764 1477 c 0
 1073 1477 1471 1315 1471 743 c 0
 1471 491 1423 294 1259 172 c 1
 1288 135 1334 116 1392 116 c 0
 1463 116 1524 148 1552 186 c 1
 1634 91 l 1
 1579 30 1497 -0 1387 0 c 0
1085 204 m 1
 1057 255 970 347 799 347 c 0
 697 347 558 240 546 175 c 1
 612 144 688 130 792 130 c 0
 841 130 1006 134 1085 204 c 1
EndSplineSet
EndChar
StartChar: R
Encoding: 82 82 54
Width: 1364
VWidth: 2045
Flags: W
HStem: 0 21G<98 223 1152.31 1325> 580 127<223 713> 1314 136<223 909.797>
VStem: 98 125<0 580 707 1314> 1052 162<891.608 1182.97>
Fore
1214 1037 m 0
 1214 949 1196 653 863 595 c 1
 1325 0 l 1
 1168 0 l 1
 713 580 l 1
 223 580 l 1
 223 0 l 1
 98 0 l 1
 98 1450 l 1
 683 1450 l 2
 842 1450 1214 1435 1214 1037 c 0
700 707 m 2
 885 707 1052 770 1052 1020 c 0
 1052 1138 1002 1314 695 1314 c 2
 223 1314 l 1
 223 707 l 1
 700 707 l 2
EndSplineSet
EndChar
StartChar: S
Encoding: 83 83 55
Width: 1248
VWidth: 2045
Flags: W
HStem: -9 136<409.47 898.924> 1338 133<385.362 830.45>
VStem: 46 145<324.494 501> 102 142<970.719 1214.45> 1020 148<1018 1175.15> 1070 142<274.394 526.77>
Fore
625 1338 m 0xd4
 834 1338 997 1231 1020 1018 c 9
 1168 1018 l 1
 1151 1318 912 1471 606 1471 c 0
 439 1471 102 1390 102 1066 c 0xd8
 102 840 334 737 592 689 c 0
 978 621 1070 524 1070 414 c 0
 1070 317 1006 127 662 127 c 0
 263 127 191 351 191 501 c 9
 46 501 l 17xe4
 46 297 147 -9 689 -9 c 0
 963 -9 1212 150 1212 429 c 0
 1212 510 1162 742 617 835 c 0
 436 865 244 932 244 1078 c 0
 244 1182 306 1338 625 1338 c 0xd4
EndSplineSet
EndChar
StartChar: T
Encoding: 84 84 56
Width: 1137
VWidth: 2045
Flags: W
HStem: 0 21G<500 634> 1317 133<18 500 634 1119>
VStem: 500 134<0 1317>
Fore
500 0 m 1
 500 1317 l 1
 18 1317 l 1
 18 1450 l 1
 1119 1450 l 1
 1119 1317 l 1
 634 1317 l 1
 634 0 l 1
 500 0 l 1
EndSplineSet
EndChar
StartChar: U
Encoding: 85 85 57
Width: 1477
VWidth: 2045
Flags: W
HStem: -9 127<509.874 958.172> 1430 20G<162 287 1186 1313>
VStem: 162 125<341.007 566 566 1450> 1186 127<343.606 1450>
Fore
718 118 m 0
 1092 118 1186 336 1186 568 c 2
 1186 1450 l 1
 1313 1450 l 1
 1313 566 l 2
 1313 110 1032 -9 748 -9 c 0
 432 -9 162 103 162 566 c 2
 162 1450 l 1
 287 1450 l 1
 287 568 l 2
 287 218 514 118 718 118 c 0
EndSplineSet
EndChar
StartChar: V
Encoding: 86 86 58
Width: 1248
VWidth: 2045
Flags: W
HStem: 0 21G<553.386 690.697> 1430 20G<9 172.419 1090.27 1241>
Fore
561 0 m 1
 9 1450 l 1
 165 1450 l 1
 622 218 l 1
 1098 1450 l 1
 1241 1450 l 1
 683 0 l 1
 561 0 l 1
EndSplineSet
EndChar
StartChar: W
Encoding: 87 87 59
Width: 1818
VWidth: 2045
Flags: W
HStem: 0 21G<430.317 578.663 1256.45 1405.46> 1430 20G<24 176.563 851.372 1001.6 1644.93 1796>
Fore
436 0 m 1
 24 1450 l 1
 171 1450 l 1
 512 224 l 1
 857 1450 l 1
 996 1450 l 1
 1339 224 l 1
 1650 1450 l 1
 1796 1450 l 1
 1400 0 l 1
 1262 0 l 1
 921 1229 l 1
 573 0 l 1
 436 0 l 1
EndSplineSet
EndChar
StartChar: X
Encoding: 88 88 60
Width: 1248
VWidth: 2045
Flags: W
HStem: 0 21G<9 199.912 1055.06 1244> 1430 20G<76 265.593 1014.5 1204>
Fore
9 0 m 1
 540 740 l 1
 76 1450 l 1
 253 1450 l 1
 627 856 l 1
 1028 1450 l 1
 1204 1450 l 1
 713 740 l 1
 1244 0 l 1
 1069 0 l 1
 627 634 l 1
 186 0 l 1
 9 0 l 1
EndSplineSet
EndChar
StartChar: Y
Encoding: 89 89 61
Width: 1248
VWidth: 2045
Flags: W
HStem: 0 21G<540 688> 1430 20G<6 195.756 1053.27 1241>
VStem: 540 148<0 621>
Fore
540 0 m 1
 540 621 l 1
 6 1450 l 1
 183 1450 l 1
 625 757 l 1
 1066 1450 l 1
 1241 1450 l 1
 688 621 l 1
 688 0 l 1
 540 0 l 1
EndSplineSet
EndChar
StartChar: Z
Encoding: 90 90 62
Width: 1248
VWidth: 2045
Flags: W
HStem: 0 142<233 1198> 1308 142<46 1035>
Fore
41 0 m 1
 41 150 l 1
 1035 1308 l 1
 46 1308 l 1
 46 1450 l 1
 1212 1450 l 1
 1212 1308 l 1
 233 142 l 1
 1198 142 l 1
 1198 0 l 1
 41 0 l 1
EndSplineSet
EndChar
StartChar: bracketleft
Encoding: 91 91 63
Width: 681
VWidth: 2045
Flags: MW
HStem: -408 112<266 535> 1353 112<266 535>
VStem: 139 127<-296 1353>
Fore
139 -408 m 1
 139 1465 l 1
 535 1465 l 1
 535 1353 l 1
 266 1353 l 1
 266 -296 l 1
 535 -296 l 1
 535 -408 l 1
 139 -408 l 1
EndSplineSet
EndChar
StartChar: backslash
Encoding: 92 92 64
Width: 568
VWidth: 2045
Flags: MW
Fore
424 -24 m 1
 0 1489 l 1
 107 1489 l 1
 531 -24 l 1
 424 -24 l 1
EndSplineSet
EndChar
StartChar: bracketright
Encoding: 93 93 65
Width: 681
VWidth: 2045
Flags: MW
HStem: -408 112<104 374 104 501> 1353 112<104 374 374 374>
VStem: 374 127<-296 1353 -296 -296>
Fore
501 -408 m 1
 501 1465 l 1
 104 1465 l 1
 104 1353 l 1
 374 1353 l 1
 374 -296 l 1
 104 -296 l 1
 104 -408 l 1
 501 -408 l 1
EndSplineSet
EndChar
StartChar: asciicircum
Encoding: 94 94 66
Width: 1350
VWidth: 2045
Flags: MW
Fore
375 689 m 1
 238 689 l 1
 588 1490 l 1
 735 1490 l 1
 1089 689 l 1
 945 689 l 1
 662 1362 l 1
 375 689 l 1
EndSplineSet
EndChar
StartChar: underscore
Encoding: 95 95 67
Width: 1022
VWidth: 2045
Flags: W
HStem: -408 94<-30 1055>
Fore
-30 -408 m 1
 -30 -314 l 1
 1055 -314 l 1
 1055 -408 l 1
 -30 -408 l 1
EndSplineSet
EndChar
StartChar: grave
Encoding: 96 96 68
Width: 681
VWidth: 2045
Flags: W
HStem: 1193 281<134 473 134 134>
Fore
473 1193 m 1
 366 1193 l 1
 134 1474 l 1
 337 1474 l 1
 473 1193 l 1
EndSplineSet
EndChar
StartChar: a
Encoding: 97 97 69
Width: 1137
VWidth: 2045
Flags: W
HStem: -24 103<297.238 680.103> 982 102<358.09 769.653>
VStem: 75 138<158.742 397.397> 105 119<765.754 851.28> 866 128<364.844 444 648.547 674 778 893.08>
Fore
224 740 m 1xd8
 262 898 363 982 555 982 c 0
 755 982 866 906 866 778 c 2
 866 674 l 2
 869 651 764 629 549 608 c 16
 221 572 75 478 75 284 c 0xe8
 75 84 222 -24 436 -24 c 0
 625 -24 785 51 881 130 c 1
 886 79 898 36 916 0 c 1
 1052 0 l 1
 998 91 994 140 994 444 c 2
 994 686 l 2
 994 889 984 1084 582 1084 c 0
 406 1084 258 1034 184 942 c 0
 148 897 122 836 105 758 c 1
 224 740 l 1xd8
482 79 m 0
 362 79 211 121 213 281 c 0
 213 448 388 488 553 503 c 24
 650 511 753 532 864 565 c 1
 866 467 l 2
 866 375 852 303 825 252 c 0
 773 155 638 79 482 79 c 0
EndSplineSet
EndChar
StartChar: b
Encoding: 98 98 70
Width: 1248
VWidth: 2045
Flags: W
HStem: -12 121<463.371 789.367> 955 130<469.528 795.113> 1444 20G<171 297>
VStem: 171 113<-2 163 303.838 760.384 918 1464> 967 125<315.423 752.174>
Fore
628 109 m 256
 831 109 967 282 967 532 c 256
 967 694 899 955 628 955 c 256
 462 955 290 826 290 532 c 256
 290 298 401 109 628 109 c 256
1092 545 m 0
 1092 109 823 -12 620 -12 c 0
 388 -12 291 150 284 163 c 1
 284 -2 l 1
 171 -2 l 1
 171 1464 l 1
 297 1464 l 1
 297 918 l 1
 376 1027 491 1085 642 1085 c 0
 942 1085 1092 831 1092 545 c 0
EndSplineSet
EndChar
StartChar: c
Encoding: 99 99 71
Width: 1137
VWidth: 2045
Flags: MW
HStem: -9 131<394.135 775.812> 953 131<398.534 763.636>
VStem: 95 131<305.162 767.486> 896 122<248.461 402 695 821.594>
Fore
1018 402 m 1
 1004 59 742 -9 594 -9 c 0
 326 -9 95 171 95 527 c 0
 95 997 397 1084 579 1084 c 0
 929 1084 1017 851 1017 695 c 1
 896 695 l 1
 878 833 797 953 585 953 c 0
 456 953 229 907 226 532 c 0
 226 169 452 122 576 122 c 0
 816 122 883 234 896 402 c 1
 1018 402 l 1
EndSplineSet
EndChar
StartChar: d
Encoding: 100 100 72
Width: 1248
VWidth: 2045
Flags: W
HStem: -9 119<457.973 783.704> 956 128<453.255 780.821>
VStem: 156 121<318.139 750.24> 960 113<301.062 764.162>
Fore
616 110 m 256
 413 110 277 292 277 533 c 256
 277 689 345 956 616 956 c 256
 808 956 954 813 954 533 c 256
 954 188 751 110 616 110 c 256
156 547 m 0
 156 208 321 -9 633 -9 c 0
 857 -9 953 152 960 165 c 1
 960 0 l 1
 1073 0 l 1
 1073 1465 l 1
 948 1465 l 1
 948 920 l 1
 871 1029 756 1084 604 1084 c 0
 254 1084 156 770 156 547 c 0
EndSplineSet
EndChar
StartChar: e
Encoding: 101 101 73
Width: 1137
VWidth: 2045
Flags: MW
HStem: -9 124<381.21 721.231> 500 119<216 915> 952 134<387.46 763.221>
VStem: 75 138<287.437 500 619 771.779>
Fore
570 1086 m 0
 867.338 1086 1051.97 898.925 1052 500 c 1
 213 500 l 1
 213 309.965 286.8 115 582 115 c 0
 700 115 843 151 915 332 c 1
 1046 332 l 1
 977.821 -2.96535 647.196 -9 579 -9 c 0
 169 -9 75 275.718 75 515 c 0
 75 981.275 376.461 1086 570 1086 c 0
915 619 m 1
 893 905 722 952 573 952 c 0
 398 952 222 851 216 619 c 1
 915 619 l 1
EndSplineSet
EndChar
StartChar: f
Encoding: 102 102 74
Width: 568
VWidth: 2045
Flags: W
HStem: 0 21G<177 303> 822 103<18 177 303 535> 1381 134<411.783 564.25>
VStem: 177 126<0 822 925 1307.12>
Fore
500 1381 m 0
 451 1381 303 1356 303 1160 c 2
 303 925 l 1
 535 925 l 1
 535 822 l 1
 303 822 l 1
 303 0 l 1
 177 0 l 1
 177 822 l 1
 18 822 l 1
 18 925 l 1
 177 925 l 1
 177 1175 l 2
 177 1447 353 1512 486 1515 c 0
 537 1515 589 1506 640 1488 c 1
 640 1353 l 1
 587 1372 541 1381 500 1381 c 0
EndSplineSet
EndChar
StartChar: g
Encoding: 103 103 75
Width: 1248
VWidth: 2045
Flags: W
HStem: -435 130<411.849 799.897> -0 134<449.807 780.932> 959 127<451.218 776.942>
VStem: 149 127<327.404 759.825> 186 122<-203.396 -74> 954 132<-137.401 145 318.298 771.056>
Fore
614 134 m 256xf4
 390 134 276 321 276 547 c 256
 276 764 393 959 614 959 c 256
 813 959 945 798 945 547 c 256
 945 205 739 134 614 134 c 256xf4
604 -305 m 0
 422 -305 324 -240 308 -74 c 9
 186 -74 l 1xec
 186 -194 246 -435 617 -435 c 0
 1026 -435 1084 -184 1086 145 c 2
 1086 1062 l 1
 973 1062 l 1
 973 912 l 1
 899 1028 779 1086 616 1086 c 0
 316 1086 149 850 149 538 c 0
 149 243 314 -0 593 -0 c 0
 753 -0 877 67 954 199 c 1
 954 157 l 2
 954 -140 884 -305 604 -305 c 0
EndSplineSet
EndChar
StartChar: h
Encoding: 104 104 76
Width: 1137
VWidth: 2045
Flags: W
HStem: 0 21G<134 262 872 1000> 933 160<475.109 766.798> 1445 20G<134 262>
VStem: 134 128<0 659.301 909 1465> 872 128<0 823.706>
Fore
872 639 m 2
 872 874 739 933 595 933 c 0
 306 933 262 652 262 607 c 2
 262 0 l 1
 134 0 l 1
 134 1465 l 1
 262 1465 l 1
 262 909 l 1
 369 1079 546 1093 599 1093 c 0
 920 1093 1000 856 1000 674 c 2
 1000 0 l 1
 872 0 l 1
 872 639 l 2
EndSplineSet
EndChar
StartChar: i
Encoding: 105 105 77
Width: 454
VWidth: 2045
Flags: W
HStem: 0 21G<159 286> 1040 20G<159 286> 1258 207<159 286>
VStem: 159 127<0 1060 1258 1465>
Fore
159 1258 m 1
 159 1465 l 1
 286 1465 l 1
 286 1258 l 1
 159 1258 l 1
159 0 m 1
 159 1060 l 1
 286 1060 l 1
 286 0 l 1
 159 0 l 1
EndSplineSet
EndChar
StartChar: j
Encoding: 106 106 78
Width: 454
VWidth: 2045
Flags: W
HStem: -429 124<-61.8232 93.2044> 1040 20G<188 315> 1257 208<188 315>
VStem: 188 127<-236.633 1060 1257 1465>
Fore
188 1257 m 1
 188 1465 l 1
 315 1465 l 1
 315 1257 l 1
 188 1257 l 1
315 -57 m 2
 315 -250 260 -429 40 -429 c 0
 -1 -429 -46 -423 -95 -411 c 1
 -95 -296 l 1
 -37 -305 -17 -305 3 -305 c 0
 59 -305 188 -298 188 -54 c 2
 188 1060 l 1
 315 1060 l 1
 315 -57 l 2
EndSplineSet
EndChar
StartChar: k
Encoding: 107 107 79
Width: 1022
VWidth: 2045
Flags: MW
HStem: 0 21G<136 263 855.028 1015> 1040 20G<800.786 974> 1445 20G<136 263>
VStem: 136 127<0 378 533 1465>
Fore
136 0 m 1
 136 1465 l 1
 263 1465 l 1
 263 533 l 1
 822 1060 l 1
 974 1060 l 1
 553 654 l 1
 1015 0 l 1
 869 0 l 1
 468 574 l 1
 263 378 l 1
 263 0 l 1
 136 0 l 1
EndSplineSet
EndChar
StartChar: l
Encoding: 108 108 80
Width: 454
VWidth: 2045
Flags: W
HStem: 0 1465<162 289 162 289 162 162>
VStem: 162 127<0 1465>
Fore
162 0 m 1
 162 1465 l 1
 289 1465 l 1
 289 0 l 1
 162 0 l 1
EndSplineSet
EndChar
StartChar: m
Encoding: 109 109 81
Width: 1702
VWidth: 2045
Flags: W
HStem: 967 118<429.167 718.272 1063.52 1368.96>
VStem: 134 128<580 794.607> 788 127<689 806.204> 1447 126<728 884.801>
Fore
1204 967 m 0
 1383 967 1447 891 1447 668 c 2
 1447 0 l 1
 1573 0 l 1
 1573 728 l 2
 1573 988 1437 1085 1244 1085 c 0
 1143 1085 1006 1059 903 876 c 1
 871 976 790 1085 617 1085 c 0
 467 1085 365 1033 242 849 c 1
 242 1062 l 1
 134 1062 l 1
 134 0 l 1
 262 0 l 1
 262 580 l 2
 262 881 450 967 576 967 c 0
 703 967 788 915 788 689 c 2
 788 0 l 1
 915 0 l 1
 915 616 l 2
 915 898 1121 967 1204 967 c 0
EndSplineSet
EndChar
StartChar: n
Encoding: 110 110 82
Width: 1137
VWidth: 2045
Flags: W
HStem: 0 21G<134 262 872 1000> 949 145<425.211 763.276>
VStem: 134 128<0 759.455 894 1063> 872 128<0 826.029>
Fore
872 624 m 2
 872 795 817 949 595 949 c 0
 329 949 262 711 262 532 c 2
 262 0 l 1
 134 0 l 1
 134 1063 l 1
 262 1063 l 1
 262 894 l 1
 354 1071 485 1094 599 1094 c 0
 941 1094 1000 837 1000 674 c 2
 1000 0 l 1
 872 0 l 1
 872 624 l 2
EndSplineSet
EndChar
StartChar: o
Encoding: 111 111 83
Width: 1137
VWidth: 2045
Flags: W
HStem: -12 121<380.319 740.619> 961 124<380.319 740.619>
VStem: 67 130<310.96 756.666> 928 133<309.238 754.944>
Fore
197 535 m 256
 197 291 324 109 563 109 c 256
 802 109 928 291 928 535 c 256
 928 779 802 961 563 961 c 256
 324 961 197 779 197 535 c 256
564 1085 m 0
 870 1085 1061 879 1061 528 c 0
 1061 177 870 -12 564 -12 c 0
 258 -12 67 181 67 532 c 0
 67 883 258 1085 564 1085 c 0
EndSplineSet
EndChar
StartChar: p
Encoding: 112 112 84
Width: 1248
VWidth: 2045
Flags: W
HStem: -9 128<458.023 783.85> 965 119<453.04 773.302>
VStem: 162 125<314.837 773.066> 957 123<318.392 761.488>
Fore
619 965 m 256
 775 965 957 843 957 542 c 256
 957 379 889 119 619 119 c 256
 430 119 281 271 281 542 c 256
 281 885 484 965 619 965 c 256
1080 529 m 0
 1080 868 913 1084 601 1084 c 0
 386 1084 285 932 274 911 c 1
 274 1075 l 1
 162 1075 l 1
 162 -390 l 1
 287 -390 l 1
 287 156 l 1
 365 46 480 -9 631 -9 c 0
 926 -9 1080 227 1080 529 c 0
EndSplineSet
EndChar
StartChar: q
Encoding: 113 113 85
Width: 1248
VWidth: 2045
Flags: W
HStem: -9 128<460.521 786.093> 965 119<467.854 791.337>
VStem: 163 123<322.14 761.324> 957 126<-390 156 314.393 772.195 911 1075>
Fore
625 965 m 256
 487 965 289 864 286 542 c 256
 286 384 354 119 625 119 c 256
 814 119 964 270 964 542 c 256
 964 883 761 965 625 965 c 256
163 529 m 0
 163 868 331 1084 643 1084 c 0
 858 1084 959 932 970 911 c 1
 970 1075 l 1
 1083 1075 l 1
 1083 -390 l 1
 957 -390 l 1
 957 156 l 1
 879 46 764 -9 613 -9 c 0
 253 -9 163 320 163 529 c 0
EndSplineSet
EndChar
StartChar: r
Encoding: 114 114 86
Width: 681
VWidth: 2045
Flags: W
HStem: 0 21G<133 260> 952 124<376.97 628.445>
VStem: 133 127<0 789.481 900 1062>
Fore
249 900 m 1
 348 1054 459 1076 539 1076 c 0
 602 1076 658 1060 709 1027 c 1
 659 906 l 1
 597 937 550 952 518 952 c 0
 346 952 260 820 260 556 c 2
 260 0 l 1
 133 0 l 1
 133 1062 l 1
 249 1062 l 1
 249 900 l 1
EndSplineSet
EndChar
StartChar: s
Encoding: 115 115 87
Width: 1022
VWidth: 2045
Flags: W
HStem: -12 124<310.4 705.203> 492 129<318.93 517 521 718.082> 961 124<292.875 690.281>
VStem: 64 124<227.936 358> 93 134<699.619 901.773> 781 123<764 875.672> 813 131<201.308 409.694>
Fore
505 961 m 256xea
 727 961 781 834 781 764 c 257
 904 764 l 257
 904 848 859 1085 470 1085 c 0
 285 1085 93 980 93 774 c 0xec
 93 555 289 498 521 492 c 256
 697 491 813 417 813 305 c 256
 813 169 648 112 496 112 c 0
 319 112 193 205 188 358 c 257
 64 358 l 257xf2
 64 62 342 -12 534 -12 c 0
 724 -12 944 102 944 325 c 256
 944 548 730 613 517 621 c 256
 271 630 227 733 227 807 c 256
 227 869 267 961 505 961 c 256xea
EndSplineSet
EndChar
StartChar: t
Encoding: 116 116 88
Width: 568
VWidth: 2045
Flags: W
HStem: -12 112<315.361 509.499> 959 101<18 168 293 497>
VStem: 168 125<124.247 959 1060 1432>
Fore
412 -12 m 0
 196 -12 168 104 168 311 c 2
 168 959 l 1
 18 959 l 1
 18 1060 l 1
 168 1060 l 1
 168 1432 l 1
 293 1432 l 1
 293 1060 l 1
 497 1060 l 1
 497 959 l 1
 293 959 l 1
 293 301 l 2
 293 154 293 100 448 100 c 0
 475 100 504 106 537 112 c 1
 553 3 l 1
 506 -7 459 -12 412 -12 c 0
EndSplineSet
EndChar
StartChar: u
Encoding: 117 117 89
Width: 1137
VWidth: 2045
Flags: W
HStem: -9 142<364.538 704.082> 1064 20G<104 230 842 969>
VStem: 104 126<259.651 1084> 842 127<0 121 265.861 1084>
Fore
842 121 m 1
 735 5 691 -9 537 -9 c 0
 191 -9 104 218 104 423 c 2
 104 1084 l 1
 230 1084 l 1
 230 423 l 2
 230 191 414 133 534 133 c 0
 735 133 842 277 842 418 c 2
 842 1084 l 1
 969 1084 l 1
 969 0 l 1
 842 0 l 1
 842 121 l 1
EndSplineSet
EndChar
StartChar: v
Encoding: 118 118 90
Width: 1022
VWidth: 2045
Flags: W
HStem: 0 21G<442.981 583.981> 1040 20G<26 169.938 855.308 999>
VStem: 26 973<1060 1060 1060 1060>
Fore
451 0 m 1
 26 1060 l 1
 162 1060 l 1
 518 163 l 1
 863 1060 l 1
 999 1060 l 1
 576 0 l 1
 451 0 l 1
EndSplineSet
EndChar
StartChar: w
Encoding: 119 119 91
Width: 1477
VWidth: 2045
Flags: W
HStem: 0 21G<324.868 478.609 968.092 1121.53> 1040 20G<6 144.842 640.537 783.975 1281.63 1409>
Fore
717 870 m 17
 473 0 l 1
 331 0 l 1
 6 1060 l 1
 139 1060 l 1
 401 163 l 1
 646 1060 l 1
 778 1060 l 1
 1046 163 l 1
 1287 1060 l 1
 1409 1060 l 1
 1116 0 l 1
 974 0 l 9
 717 870 l 17
EndSplineSet
EndChar
StartChar: x
Encoding: 120 120 92
Width: 1022
VWidth: 2045
Flags: W
HStem: 0 21G<15 179.624 841.86 1007> 1040 20G<44 215.501 817.698 980>
VStem: 15 992<0 0 1.53064e-18 1.53064e-18>
Fore
15 0 m 1
 433 553 l 1
 44 1060 l 1
 201 1060 l 1
 499 649 l 1
 834 1060 l 1
 980 1060 l 1
 567 562 l 1
 1007 0 l 1
 857 0 l 1
 505 465 l 1
 165 0 l 1
 15 0 l 1
EndSplineSet
EndChar
StartChar: y
Encoding: 121 121 93
Width: 1022
VWidth: 2045
Flags: W
HStem: -423 115<150.913 310.483> 1040 20G<34 181.42 870.829 1005>
VStem: 34 971<1060 1060 1060 1060>
Fore
127 -408 m 1
 113 -293 l 1
 148 -302 181 -308 213 -308 c 0
 262 -308 313 -291 364 -258 c 0
 416 -225 443 -159 444 -60 c 0
 444 -38 433 1 412 57 c 2
 34 1060 l 1
 174 1060 l 1
 532 95 l 1
 878 1060 l 1
 1005 1060 l 1
 592 -95 l 2
 540 -246 444 -423 208 -423 c 0
 182 -423 156 -418 127 -408 c 1
EndSplineSet
EndChar
StartChar: z
Encoding: 122 122 94
Width: 1022
VWidth: 2045
Flags: MW
HStem: 0 118<186 979> 953 107<61 791>
Fore
40 0 m 1
 40 118 l 1
 791 953 l 1
 61 953 l 1
 61 1060 l 1
 947 1060 l 1
 947 953 l 1
 186 118 l 1
 979 118 l 1
 979 0 l 1
 40 0 l 1
EndSplineSet
EndChar
StartChar: braceleft
Encoding: 123 123 95
Width: 681
VWidth: 2045
Flags: W
HStem: -430 119<420.92 634> 449 163<58 166.636> 1371 119<422.678 634>
VStem: 264 114<-263.348 48 48 363.602 695.27 1326.43>
Fore
378 80 m 0
 378 -227 379 -311 552 -311 c 2
 634 -311 l 1
 634 -430 l 1
 579 -430 l 2
 279 -430 266 -275 264 48 c 0
 261 295 253 444 58 449 c 1
 58 612 l 1
 256 615 262 784 264 997 c 0
 266 1286 260 1490 560 1490 c 2
 634 1490 l 1
 634 1371 l 1
 552 1371 l 2
 383 1371 378 1268 378 1080 c 0
 378 768 377 629 171 530 c 1
 342 458 378 321 378 80 c 0
EndSplineSet
EndChar
StartChar: bar
Encoding: 124 124 96
Width: 454
VWidth: 2045
Flags: W
HStem: -430 1919<172 276 172 276 172 172>
VStem: 172 104<-430 1489>
Fore
172 -430 m 1
 172 1489 l 1
 276 1489 l 1
 276 -430 l 1
 172 -430 l 1
EndSplineSet
EndChar
StartChar: braceright
Encoding: 125 125 97
Width: 681
VWidth: 2045
Flags: MW
HStem: -430 119<134 264.151> 449 163<516.34 628> 1371 119<134 258.503>
VStem: 304 117<-270.975 48 48 362.68 696.448 997 1128 1321.28>
Fore
134 -311 m 2
 49 -311 l 1
 49 -430 l 1
 105 -430 l 2
 407 -430 416 -278 421 48 c 0
 424 280 426 445 628 449 c 1
 628 612 l 1
 434 618 425 764 421 997 c 0
 416 1295 428 1490 114 1490 c 2
 49 1490 l 1
 49 1371 l 1
 134 1371 l 2
 289 1371 305 1266 305 1128 c 0
 305 763 306 629 514 530 c 1
 312 445 304 269 304 48 c 0
 304 -231 301 -311 134 -311 c 2
EndSplineSet
EndChar
StartChar: asciitilde
Encoding: 126 126 98
Width: 1350
VWidth: 2045
Flags: MW
HStem: 559 136<768.347 1076.9> 692 136<281.578 611.713>
Fore
431 692 m 0
 327 692 266 647 171 556 c 1
 171 710 l 1
 242 789 334 828 448 828 c 0
 641 828 800 695 936 695 c 0
 1038 695 1142 777 1192 831 c 1
 1192 674 l 1
 1105 593 1025 559 916 559 c 0
 715 559 599 692 431 692 c 0
EndSplineSet
EndChar
StartChar: exclamdown
Encoding: 161 161 100
Width: 705
VWidth: 2045
Flags: W
HStem: 0 21G<250 421> 1058 20G<276.499 390.575> 1278 211<238 442>
VStem: 238 204<1278 1489> 250 171<0 249.261> 277 113<828.739 1078>
Fore
442 1278 m 1xf0
 238 1278 l 1
 238 1489 l 1
 442 1489 l 1
 442 1278 l 1xf0
421 0 m 1xe8
 250 0 l 1xe8
 277 1078 l 1
 390 1078 l 1xe4
 421 0 l 1xe8
EndSplineSet
EndChar
StartChar: cent
Encoding: 162 162 101
Width: 1178
VWidth: 2045
Flags: W
HStem: 3 106<460.785 564 655 816.48> 1009 106<451.268 564 655 830.8> 1454 20G<564 655>
VStem: 113 140<314.948 726.069> 564 91<-361 0 109 1009 1115 1474>
Fore
655 1115 m 1
 759 1112 861 1096 974 1036 c 1
 974 875 l 1
 964 875 l 1
 912 942 791 1006 655 1015 c 1
 655 103 l 17
 787 123 890 170 964 243 c 1
 974 243 l 1
 974 83 l 1
 829 15 740 4 655 0 c 1
 655 -361 l 1
 564 -361 l 1
 564 3 l 1
 272 37 113 228 113 556 c 0
 113 876 280 1083 564 1115 c 1
 564 1474 l 1
 655 1474 l 1
 655 1115 l 1
564 1009 m 1
 271 969 253 654 253 556 c 0
 253 198 459 132 564 109 c 1
 564 1009 l 1
EndSplineSet
EndChar
StartChar: sterling
Encoding: 163 163 102
Width: 1115
VWidth: 2045
Flags: W
HStem: 0 171<261 1031> 613 138<130 290 482 846> 1350 166<576.477 869.401>
VStem: 290 192<367.385 613 751 1244.16>
Fore
482 553 m 2
 482 371 378 251 261 181 c 1
 261 171 l 1
 1031 171 l 1
 1031 0 l 1
 88 0 l 1
 88 207 l 1
 251 256 290 396 290 613 c 1
 130 613 l 1
 130 751 l 1
 290 751 l 1
 290 1071 l 2
 290 1341 459 1516 707 1516 c 0
 795 1516 843 1512 1000 1470 c 1
 1000 1263 l 1
 991 1263 l 1
 920 1310 830 1350 726 1350 c 0
 628 1350 482 1313 482 1051 c 2
 482 751 l 1
 846 751 l 1
 846 613 l 1
 482 613 l 1
 482 553 l 2
EndSplineSet
EndChar
StartChar: currency
Encoding: 164 164 103
Width: 1115
VWidth: 2045
Flags: W
HStem: 326 138<468.669 654.534> 858 139<470.151 680.758>
VStem: 226 141<566.134 786.64> 750 145<536.981 787.562>
Fore
895 662 m 0
 895 592 872 536 842 486 c 1
 1055 272 l 1
 950 166 l 1
 736 378 l 1
 674 340 630 326 560 326 c 0
 538 326 477 325 384 379 c 1
 171 163 l 1
 64 272 l 1
 277 486 l 1
 240 546 226 608 226 662 c 0
 226 731 248 785 277 834 c 1
 64 1051 l 1
 171 1157 l 1
 386 942 l 1
 444 981 507 995 560 997 c 0
 637 997 716 957 735 946 c 1
 947 1157 l 1
 1055 1051 l 1
 842 837 l 1
 877 780 895 732 895 662 c 0
560 464 m 0
 654 464 750 545 750 662 c 0
 750 763 673 858 560 858 c 0
 455 858 367 771 367 662 c 0
 367 554 455 464 560 464 c 0
EndSplineSet
EndChar
StartChar: yen
Encoding: 165 165 104
Width: 1115
VWidth: 2045
Flags: W
HStem: 0 21G<463 653> 440 137<125 463 653 991>
VStem: 467 183<0 440 577 657>
Fore
1058 1489 m 1
 650 677 l 1
 650 577 l 1
 991 577 l 1
 991 440 l 1
 653 440 l 1
 653 0 l 1
 463 0 l 1
 463 440 l 1
 125 440 l 1
 125 577 l 1
 467 577 l 1
 467 657 l 1
 55 1489 l 1
 265 1489 l 1
 560 849 l 1
 857 1489 l 1
 1058 1489 l 1
EndSplineSet
EndChar
StartChar: brokenbar
Encoding: 166 166 105
Width: 780
VWidth: 2045
Flags: W
VStem: 308 168<-393 405 758 1556>
Fore
476 758 m 1
 308 758 l 1
 308 1556 l 1
 476 1556 l 1
 476 758 l 1
476 -393 m 1
 308 -393 l 1
 308 405 l 1
 476 405 l 1
 476 -393 l 1
EndSplineSet
EndChar
StartChar: section
Encoding: 167 167 106
Width: 1115
VWidth: 2045
Flags: W
HStem: -385 165<347.262 690.429> 1353 165<422.159 791.692>
VStem: 119 189<444.796 702.429> 148 192<1051.67 1282.84> 774 194<-146.427 83.4081> 810 188<428.209 683.199>
Fore
666 314 m 1xe4
 789 401 810 482 810 556 c 0
 810 642 780 719 625 766 c 2
 450 819 l 1
 385 780 308 698 308 578 c 0
 308 443 383 401 491 369 c 2
 666 314 l 1xe4
489 -385 m 0
 366 -385 274 -365 171 -326 c 1
 171 -133 l 1
 183 -133 l 1
 352 -218 461 -220 504 -220 c 0
 627 -220 774 -179 774 -36 c 0
 774 75 714 120 593 154 c 2
 460 192 l 2
 288 242 119 305 119 532 c 0xe8
 119 605 143 753 317 858 c 1
 317 864 l 1
 252 901 148 977 148 1146 c 0
 148 1295 242 1518 628 1518 c 0
 723 1518 825 1503 945 1462 c 1
 945 1267 l 1
 936 1267 l 1
 832 1320 739 1353 607 1353 c 0
 495 1353 340 1317 340 1175 c 0
 340 1064 393 1023 518 980 c 2
 656 942 l 2
 856 889 996 807 998 601 c 0xd4
 998 407 854 310 799 278 c 1
 799 269 l 1
 870 232 968 158 968 -9 c 0xc8
 968 -159 866 -385 489 -385 c 0
EndSplineSet
EndChar
StartChar: dieresis
Encoding: 168 168 107
Width: 1115
VWidth: 2045
Flags: W
HStem: 1303 195<253 454 665 866>
VStem: 253 201<1303 1498> 665 201<1303 1498>
Fore
866 1303 m 1
 665 1303 l 1
 665 1498 l 1
 866 1498 l 1
 866 1303 l 1
454 1303 m 1
 253 1303 l 1
 253 1498 l 1
 454 1498 l 1
 454 1303 l 1
EndSplineSet
EndChar
StartChar: copyright
Encoding: 169 169 108
Width: 1898
VWidth: 2045
Flags: W
HStem: -210 110<703.712 1204.18> 180 146<832.77 1158.11> 995 147<833.739 1159> 1408 111<704.066 1200>
VStem: 85 118<402.465 908.416> 531 184<454.335 872.047> 1698 116<408.827 905.383>
Fore
1814 656 m 0
 1814 155 1417 -210 950 -210 c 0
 462 -210 85 180 85 656 c 0
 85 1131 464 1519 950 1519 c 0
 1446 1519 1814 1123 1814 656 c 0
1698 656 m 0
 1698 1083 1361 1408 951 1408 c 0
 548 1408 203 1091 203 656 c 0
 203 218 548 -100 951 -100 c 0
 1357 -100 1698 221 1698 656 c 0
985 326 m 0
 1115 326 1233 411 1256 433 c 1
 1273 433 l 1
 1273 255 l 1
 1142 200 1089 180 982 180 c 0
 778 180 531 276 531 660 c 0
 531 958 704 1142 982 1142 c 0
 1098 1142 1202 1107 1273 1069 c 1
 1273 888 l 1
 1256 888 l 1
 1206 934 1093 995 985 995 c 0
 877 995 715 947 715 660 c 0
 715 374 877 326 985 326 c 0
EndSplineSet
EndChar
StartChar: ordfeminine
Encoding: 170 170 109
Width: 1007
VWidth: 2045
Flags: W
HStem: 541 154<323.545 562.881> 1045 139<616.803 707> 1365 154<324.617 666.129>
VStem: 113 172<735.697 956.597> 707 166<565 657 802 1045 1184 1319.52>
Fore
482 1519 m 0
 773 1519 872 1390 873 1193 c 2
 873 565 l 1
 707 565 l 1
 707 657 l 1
 649 613 575 541 402 541 c 0
 245 541 113 656 113 840 c 0
 113 1115 345 1167 707 1184 c 1
 707 1274 706 1365 482 1365 c 0
 426 1365 341 1355 204 1303 c 1
 189 1303 l 1
 189 1474 l 1
 189 1474 367 1519 482 1519 c 0
460 695 m 0
 501 695 584 698 707 802 c 1
 707 1045 l 1
 556 1033 l 2
 316 1015 287 926 285 849 c 0
 285 770 322 695 460 695 c 0
EndSplineSet
EndChar
StartChar: guillemotleft
Encoding: 171 171 110
Width: 1170
VWidth: 2045
Flags: MW
Fore
1043 190 m 1
 555 610 l 1
 555 695 l 1
 1043 1112 l 1
 1043 924 l 1
 726 652 l 1
 1043 379 l 1
 1043 190 l 1
613 162 m 1
 104 607 l 1
 104 698 l 1
 613 1142 l 1
 613 946 l 1
 282 652 l 1
 613 358 l 1
 613 162 l 1
EndSplineSet
EndChar
StartChar: logicalnot
Encoding: 172 172 111
Width: 1486
VWidth: 2045
Flags: MW
HStem: 601 160<157 1151>
VStem: 1151 171<57 601>
Fore
1322 57 m 1
 1151 57 l 1
 1151 601 l 1
 157 601 l 1
 157 761 l 1
 1322 761 l 1
 1322 57 l 1
EndSplineSet
EndChar
StartChar: registered
Encoding: 174 174 113
Width: 1898
VWidth: 2045
Flags: W
HStem: -210 110<703.712 1204.18> 569 126<814 936> 1004 126<814 1015.77> 1408 111<704.066 1200>
VStem: 85 118<402.465 908.416> 649 165<214 569 695 1004> 1119 183<742.247 969.823> 1698 116<408.827 905.383>
Fore
1814 656 m 0
 1814 155 1417 -210 950 -210 c 0
 462 -210 85 180 85 656 c 0
 85 1131 464 1519 950 1519 c 0
 1446 1519 1814 1123 1814 656 c 0
1698 656 m 0
 1698 1083 1361 1408 951 1408 c 0
 548 1408 203 1091 203 656 c 0
 203 218 548 -100 951 -100 c 0
 1357 -100 1698 221 1698 656 c 0
1302 879 m 0
 1302 733 1204 656 1101 615 c 1
 1447 214 l 1
 1220 214 l 1
 936 569 l 1
 814 569 l 1
 814 214 l 1
 649 214 l 1
 649 1130 l 1
 959 1130 l 2
 1062 1130 1302 1117 1302 879 c 0
912 695 m 2
 1072 695 1119 764 1119 867 c 0
 1119 1004 998 1004 930 1004 c 2
 814 1004 l 1
 814 695 l 1
 912 695 l 2
EndSplineSet
EndChar
StartChar: macron
Encoding: 175 175 114
Width: 1115
VWidth: 2045
Flags: MW
HStem: 1658 130<-15 1133>
Fore
1133 1658 m 1
 -15 1658 l 1
 -15 1788 l 1
 1133 1788 l 1
 1133 1658 l 1
EndSplineSet
EndChar
StartChar: degree
Encoding: 176 176 115
Width: 961
VWidth: 2045
Flags: W
HStem: 755 151<349.056 612.245> 1362 151<350.426 612.826>
VStem: 101 157<997.682 1273.61> 704 159<996.114 1272.94>
Fore
482 1513 m 0
 708 1513 863 1342 863 1134 c 0
 863 928 705 755 482 755 c 0
 273 755 101 912 101 1134 c 0
 101 1343 254 1513 482 1513 c 0
482 906 m 0
 606 906 704 1004 704 1134 c 0
 704 1267 606 1362 482 1362 c 0
 348 1362 258 1259 258 1134 c 0
 258 996 365 906 482 906 c 0
EndSplineSet
EndChar
StartChar: plusminus
Encoding: 177 177 116
Width: 1486
VWidth: 2045
Flags: W
HStem: 159 158<162 662 828 1326> 739 158<162 662 828 1326>
VStem: 662 166<317 739 897 1402>
Fore
1326 159 m 1
 162 159 l 1
 162 317 l 1
 662 317 l 1
 662 739 l 1
 162 739 l 1
 162 897 l 1
 662 897 l 1
 662 1402 l 1
 828 1402 l 1
 828 897 l 1
 1326 897 l 1
 1326 739 l 1
 828 739 l 1
 828 317 l 1
 1326 317 l 1
 1326 159 l 1
EndSplineSet
EndChar
StartChar: uni00B2
Encoding: 178 178 117
Width: 1007
VWidth: 2045
Flags: W
HStem: 565 145<372 866> 1371 148<338.314 579.136>
VStem: 619 183<1073.5 1331.21>
Fore
480 1519 m 0
 729 1519 802 1363 802 1239 c 0
 802 1064 683 944 495 802 c 2
 372 710 l 1
 866 710 l 1
 866 565 l 1
 184 565 l 1
 184 717 l 1
 332 831 l 2
 606 1042 619 1147 619 1226 c 0
 619 1319 558 1371 457 1371 c 0
 352 1371 249 1312 206 1278 c 1
 191 1278 l 1
 191 1458 l 1
 297 1504 415 1519 480 1519 c 0
EndSplineSet
EndChar
StartChar: uni00B3
Encoding: 179 179 118
Width: 1007
VWidth: 2045
Flags: MW
HStem: 541 139<325.994 617.917> 967 139<334 597.444> 1381 139<301.981 604.86>
VStem: 640 174<1147.95 1345.02> 665 171<725.895 932.616>
Fore
640 1047 m 1
 733 1028 836 966 836 828 c 0
 836 625 661 541 474 541 c 0
 394 541 288 552 183 600 c 1
 183 775 l 1
 201 775 l 1
 239 739 346 680 470 680 c 0
 551 680 665 709 665 826 c 0
 665 936 593 967 473 967 c 2
 334 967 l 1
 334 1106 l 1
 459 1106 l 2
 571 1106 640 1158 640 1248 c 0
 640 1301 615 1381 473 1381 c 0
 377 1381 263 1326 216 1282 c 1
 198 1282 l 1
 198 1458 l 1
 267 1485 373 1518 491 1520 c 0
 734 1520 814 1377 814 1281 c 0
 814 1145 717 1079 640 1054 c 1
 640 1047 l 1
EndSplineSet
EndChar
StartChar: acute
Encoding: 180 180 119
Width: 1115
VWidth: 2045
Flags: W
HStem: 1302 373<598 869 869 869>
Fore
869 1675 m 1
 598 1302 l 1
 448 1302 l 1
 628 1675 l 1
 869 1675 l 1
EndSplineSet
EndChar
StartChar: mu
Encoding: 181 181 120
Width: 1160
VWidth: 2045
Flags: W
HStem: -18 181<419.638 695.598>
VStem: 136 188<-411 115 275 1116> 839 186<275 1116> 854 171<0 116>
Fore
576 163 m 0xd0
 666 163 751 183 839 275 c 1
 839 1116 l 1
 1025 1116 l 1xe0
 1025 0 l 1
 854 0 l 1
 854 116 l 1
 848 116 l 1
 731 -8 646 -18 576 -18 c 0
 479 -18 420 8 324 115 c 1
 324 -411 l 1
 136 -411 l 1
 136 1116 l 1
 324 1116 l 1
 324 275 l 1
 389 199 469 163 576 163 c 0xd0
EndSplineSet
EndChar
StartChar: paragraph
Encoding: 182 182 121
Width: 1115
VWidth: 2045
Flags: W
HStem: 1359 130<654 842>
VStem: 58 596<840.574 1261.49> 515 139<-362 592> 842 138<-362 1359>
Fore
58 1050 m 0xd0
 58 1341 253 1489 560 1489 c 2
 980 1489 l 1
 980 -362 l 1
 842 -362 l 1
 842 1359 l 1
 654 1359 l 1
 654 -362 l 1
 515 -362 l 1
 515 592 l 1xb0
 245 600 58 769 58 1050 c 0xd0
EndSplineSet
EndChar
StartChar: periodcentered
Encoding: 183 183 122
Width: 722
VWidth: 2045
Flags: W
HStem: 831 285<242 482>
VStem: 242 240<831 1116>
Fore
482 831 m 1
 242 831 l 1
 242 1116 l 1
 482 1116 l 1
 482 831 l 1
EndSplineSet
EndChar
StartChar: cedilla
Encoding: 184 184 123
Width: 1115
VWidth: 2045
Flags: W
HStem: -423 151<372.44 575.392>
VStem: 613 158<-236.766 -38.4117 -42.531 -34.2924 -34.2924 20>
Fore
439 -272 m 0
 547 -272 613 -239 613 -107 c 0
 613 11 610 -56 610 20 c 1
 765 20 l 1
 767 6 771 -66 771 -89 c 0
 771 -356 592 -423 467 -423 c 0
 396 -423 324 -409 290 -399 c 1
 290 -239 l 1
 299 -239 l 1
 333 -256 376 -272 439 -272 c 0
EndSplineSet
EndChar
StartChar: uni0E01
Encoding: 3585 3585 124
Width: 1248
VWidth: 2045
Flags: W
HStem: 0 21G<250 363 985 1098> 764 112<239 250 363 476> 1142 112<424.277 778.185>
VStem: 250 113<0 764> 985 113<0 764 764 933.432>
Fore
985 764 m 2
 985 976 810 1142 604 1142 c 256
 487 1142 312 1086 239 876 c 9
 476 876 l 1
 476 764 l 1
 363 764 l 17
 363 0 l 17
 250 0 l 9
 250 764 l 9
 110 764 l 1
 110 1039 335 1254 604 1254 c 256
 874 1254 1098 1037 1098 764 c 2
 1098 0 l 1
 985 0 l 1
 985 764 l 2
EndSplineSet
EndChar
StartChar: uni0E02
Encoding: 3586 3586 125
Width: 1173
VWidth: 2045
Flags: W
HStem: 0 112<348 460 573 912> 749 112<224.981 373.254> 1142 112<356.851 537.026>
VStem: 102 111<872.63 1016.35> 383 114<871.92 1019.17> 460 113<112 498 498 664.79> 610 114<794.249 1070.41> 912 113<112 1254>
Fore
610 946 m 0xf7
 610 1055 523 1142 412 1142 c 0
 391 1142 371 1139 351 1133 c 1
 410 1119 497 1054 497 944 c 0xfb
 497 838 411 749 300 749 c 0
 187 749 102 839 102 944 c 0
 102 1113 237 1254 412 1254 c 0
 589 1254 724 1113 724 942 c 0
 724 719 573 710 573 498 c 2
 573 112 l 17
 912 112 l 25
 912 1254 l 1
 1025 1254 l 1
 1025 0 l 9
 348 0 l 1
 348 112 l 1
 460 112 l 25
 460 498 l 2
 460 758 610 753 610 946 c 0xf7
299 1030 m 0
 250 1030 213 990 213 946 c 0
 213 901 250 861 299 861 c 0
 343 861 383 896 383 946 c 0
 383 990 348 1030 299 1030 c 0
EndSplineSet
EndChar
StartChar: uni0E03
Encoding: 3587 3587 126
Width: 1248
VWidth: 2045
Flags: MW
HStem: 0 112<421 534 647 985> 633 113<250.56 398.352> 914 110<265.883 398.361> 1130 124<326 340>
VStem: 85 154<757.326 1000.49> 409 113<755.281 903.749> 534 113<112 498 498 664.485> 690 114<803.115 1095.79> 985 113<112 1254>
Fore
804 950 m 0
 804 730 645 710 647 498 c 2
 647 112 l 1
 985 112 l 1
 985 1254 l 25
 1098 1254 l 17
 1098 0 l 1
 421 0 l 1
 421 112 l 1
 534 112 l 1
 534 498 l 2
 534 752 688 770 690 934 c 16
 693 1065 631 1118 613 1124 c 1
 476 1039 l 1
 326 1130 l 17
 307 1126 221 1076 198 976 c 1
 247 1008 289 1024 325 1024 c 0
 436 1024 522 935 522 827 c 0
 522 719 434 633 325 633 c 0
 229 633 85 690 85 922 c 0
 85 1018 113 1094 169 1149 c 0
 225 1204 282 1239 340 1254 c 1
 476 1171 l 1
 610 1254 l 1
 647 1241 688 1206 735 1152 c 0
 781 1097 804 1030 804 950 c 0
325 914 m 0
 275 914 239 874 239 829 c 0
 239 779 281 746 325 746 c 0
 374 746 409 783 409 829 c 0
 409 878 370 914 325 914 c 0
EndSplineSet
EndChar
StartChar: uni0E04
Encoding: 3588 3588 127
Width: 1301
VWidth: 2045
Flags: W
HStem: 0 21G<171 290.992 1018 1131> 547 115<573.065 723.808> 828 111<574.095 722.148> 1142 112<477.667 824.333>
VStem: 171 113<290 776 776 947.846> 733 112<673.12 816.604> 1018 113<0 947.846>
Fore
651 1254 m 0
 914 1254 1131 1044 1131 776 c 2
 1131 0 l 1
 1018 0 l 1
 1018 776 l 2
 1018 990 846 1142 651 1142 c 0
 456 1142 284 990 284 776 c 2
 284 290 l 17
 463 816 l 18
 478 854 537 939 648 939 c 0
 759 939 845 852 845 744 c 0
 845 630 754 547 648 547 c 0
 559 547 510 601 499 615 c 9
 284 0 l 9
 171 0 l 17
 171 776 l 2
 171 1044 388 1254 651 1254 c 0
648 828 m 0
 600 828 564 789 564 744 c 0
 564 699 600 662 648 662 c 0
 692 662 733 695 733 744 c 0
 733 789 697 828 648 828 c 0
EndSplineSet
EndChar
StartChar: uni0E05
Encoding: 3589 3589 128
Width: 1301
VWidth: 2045
Flags: MW
HStem: 0 21G<175 295.196 1018 1131> 526 111<578.584 724.986> 807 108<578.22 724.743> 1130 124<409 419>
VStem: 175 113<290 1063.84> 736 113<647.679 797.015> 1018 113<0 1063.62>
Fore
409 1130 m 17
 366 1109 287 1048 288 927 c 2
 288 290 l 17
 467 791 l 18
 480 832 541 915 652 915 c 0
 760 915 849 830 849 720 c 0
 849 612 761 526 652 526 c 0
 558 526 518 581 501 592 c 9
 288 0 l 1
 175 0 l 9
 175 927 l 2
 175 1123 319 1226 419 1254 c 9
 653 1103 l 1
 885 1254 l 17
 980 1227 1131 1123 1131 927 c 2
 1131 0 l 1
 1018 0 l 1
 1018 927 l 2
 1018 1049 935 1110 896 1130 c 9
 653 973 l 1
 409 1130 l 17
652 807 m 0
 602 807 568 766 568 722 c 0
 568 673 607 637 652 637 c 0
 702 637 736 678 736 722 c 0
 736 771 697 807 652 807 c 0
EndSplineSet
EndChar
StartChar: uni0E06
Encoding: 3590 3590 129
Width: 1519
VWidth: 2045
Flags: MW
HStem: 0 113<423.479 571.446> 281 110<423.158 560.145> 633 113<299.374 446.693> 914 110<314.558 446.336> 1130 124<375 389>
VStem: 134 154<757.326 1000.8> 300 112<124.025 269.115> 457 113<755.712 904.264> 582 113<126.956 215.922 373 664.718> 740 113<803.551 1093.95> 1235 113<112 1254>
Fore
374 914 m 0
 321 914 288 872 288 829 c 0
 288 779 328 746 374 746 c 0
 423 746 457 783 457 829 c 0
 457 874 424 914 374 914 c 0
300 196 m 0
 300 303 387 391 497 391 c 0
 528 391 556 385 582 373 c 9
 582 498 l 2
 582 752 737 770 740 934 c 16
 742 1065 680 1118 662 1124 c 1
 524 1039 l 1
 375 1130 l 17
 356 1126 270 1076 247 976 c 1
 296 1008 338 1024 374 1024 c 0
 482 1024 570 936 570 828 c 0
 570 720 482 633 374 633 c 0
 278 633 134 690 134 922 c 0
 134 1018 162 1094 218 1149 c 0
 274 1204 331 1239 389 1254 c 1
 524 1171 l 1
 659 1254 l 1
 695 1241 736 1206 784 1152 c 0
 830 1097 853 1030 853 950 c 0
 853 731 695 710 695 498 c 2
 695 329 l 25
 1235 112 l 9
 1235 1254 l 1
 1348 1254 l 1
 1348 0 l 1
 1235 0 l 1
 695 218 l 17
 695 27 552 0 498 0 c 0
 386 0 300 88 300 196 c 0
497 281 m 0
 449 281 412 244 412 198 c 0
 412 149 452 113 497 113 c 0
 546 113 582 153 582 198 c 0
 582 248 542 281 497 281 c 0
EndSplineSet
EndChar
StartChar: uni0E07
Encoding: 3591 3591 130
Width: 977
VWidth: 2045
Flags: W
HStem: 861 112<532.993 667.712> 1142 112<532.104 678.749>
VStem: 408 113<983.636 1130.78> 690 113<982.66 1131.38>
Fore
408 1058 m 0
 408 944 499 861 605 861 c 0
 636 861 664 867 690 879 c 1
 690 160 l 9
 166 704 l 1
 84 625 l 1
 690 0 l 17
 803 0 l 1
 803 1057 l 2
 803 1171 712 1254 606 1254 c 0
 496 1254 408 1167 408 1058 c 0
607 973 m 0
 558 973 521 1013 521 1058 c 0
 521 1102 558 1142 607 1142 c 0
 655 1142 690 1102 690 1058 c 0
 690 1013 655 973 607 973 c 0
EndSplineSet
EndChar
StartChar: uni0E08
Encoding: 3592 3592 131
Width: 1202
VWidth: 2045
Flags: W
HStem: 0 21G<796.979 918.12> 523 111<495.442 630.651> 801 112<493.977 642.318> 1142 112<394.203 741.997>
VStem: 74 113<764 936.189> 373 111<644.911 790.426> 943 108<651.44 665 686 694.559 694.559 724.677 709.618 936.711>
Fore
568 1142 m 256
 358 1142 187 973 187 764 c 9
 74 764 l 17
 74 1020 284 1254 568 1254 c 256
 853 1254 1062 1019 1062 764 c 16
 1062 730 1058 697 1051 665 c 10
 914 0 l 1
 801 0 l 1
 688 562 l 17
 654 536 615 523 570 523 c 0
 460 523 373 610 373 718 c 0
 373 827 462 913 571 913 c 0
 672 913 746 837 763 755 c 2
 859 281 l 25
 943 686 l 2
 947 705 949 731 949 764 c 8
 949 973 778 1142 568 1142 c 256
570 801 m 0
 520 801 484 763 484 718 c 0
 484 673 519 634 568 634 c 0
 617 634 653 672 653 718 c 0
 653 763 618 801 570 801 c 0
EndSplineSet
EndChar
StartChar: uni0E09
Encoding: 3593 3593 132
Width: 1293
VWidth: 2045
Flags: W
HStem: 0 113<971.203 1115.93> 396 112<297.797 435.848> 674 112<298.573 445.881> 1142 112<431.848 780.153>
VStem: 130 108<896 1058.29> 175 113<519.128 662.936> 457 113<127 414 517.024 662.812> 848 112<123.787 184> 988 113<384 764 764 937.07> 1128 115<123.54 271.432>
Fore
605 1142 m 280xf7c0
 416 1142 275 1007 238 864 c 9
 130 896 l 17xfbc0
 179 1080 360 1254 605 1254 c 280
 893 1254 1101 1020 1101 764 c 2
 1101 384 l 17
 1132 375 1243 328 1243 196 c 0
 1243 88 1156 0 1046 0 c 0
 932 0 852 90 848 184 c 1
 570 0 l 1
 457 0 l 1
 457 414 l 17
 432 402 403 396 372 396 c 0
 261 396 175 485 175 591 c 0
 175 698 262 785 372 786 c 0
 492 786 570 689 570 591 c 2
 570 127 l 1
 951 375 l 2
 962 381 974 384 988 384 c 9
 988 764 l 2
 988 975 816 1142 605 1142 c 280xf7c0
374 674 m 0
 324 674 288 636 288 590 c 0xf7c0
 288 541 328 508 374 508 c 0
 422 508 457 545 457 590 c 0
 457 636 422 674 374 674 c 0
1044 281 m 0
 995 281 960 244 960 198 c 0
 960 149 999 113 1044 113 c 0
 1094 113 1128 154 1128 198 c 0
 1128 244 1093 281 1044 281 c 0
EndSplineSet
EndChar
StartChar: uni0E0A
Encoding: 3594 3594 133
Width: 1192
VWidth: 2045
Flags: W
HStem: 0 112<348 460 573 912> 749 112<224.981 373.254> 1142 112<356.851 536.192>
VStem: 102 111<872.63 1016.35> 383 114<871.92 1019.17> 460 113<112 703.449> 610 114<824.675 1070.01> 912 113<112 837 837 923.855> 1025 112<1258.17 1447>
Fore
1137 1447 m 17xf380
 1137 1190 972 1047 933 1018 c 1
 953 1001 1024 946 1025 837 c 2
 1025 0 l 1
 348 0 l 1
 348 112 l 1
 460 112 l 1
 460 589 l 2xf780
 460 794 610 790 610 946 c 0
 610 1058 520 1142 412 1142 c 0
 391 1142 371 1139 351 1133 c 1
 410 1119 497 1054 497 944 c 0xfb80
 497 838 411 749 300 749 c 0
 187 749 102 839 102 944 c 0
 102 1113 237 1254 412 1254 c 0
 588 1254 724 1113 724 946 c 0
 724 731 573 739 573 589 c 2
 573 112 l 1xf780
 912 112 l 1
 912 837 l 2
 912 897 864 949 799 949 c 1
 799 1060 l 1
 922 1132 1024 1268 1025 1447 c 9
 1137 1447 l 17xf380
299 1030 m 0
 250 1030 213 990 213 946 c 0
 213 901 250 861 299 861 c 0
 343 861 383 896 383 946 c 0xfb80
 383 990 348 1030 299 1030 c 0
EndSplineSet
EndChar
StartChar: uni0E0B
Encoding: 3595 3595 134
Width: 1192
VWidth: 2045
Flags: MW
HStem: 0 112<363 476 589 927> 633 113<193.285 341.058> 914 110<205.45 340.655> 1130 124<268 284>
VStem: 29 154<760.302 999.28> 351 114<755.918 902.167> 476 113<112 681.372> 646 110<815.559 1076.42> 927 113<112 837 837 926.204> 1040 113<1258.17 1447>
Fore
948 1018 m 1
 1010 965 1040 909 1040 837 c 2
 1040 0 l 1
 363 0 l 1
 363 112 l 1
 476 112 l 1
 476 548 l 2
 476 778 646 765 646 944 c 0
 646 1052 579 1106 555 1124 c 1
 418 1039 l 1
 268 1130 l 17
 216 1106 164 1051 148 985 c 1
 183 1011 223 1024 268 1024 c 0
 378 1024 465 937 465 828 c 0
 465 721 378 633 268 633 c 0
 128 633 29 778 29 927 c 0
 29 1105 158 1223 284 1254 c 1
 418 1171 l 1
 552 1254 l 1
 619 1225 756 1131 756 946 c 0
 756 712 587 726 589 548 c 2
 589 112 l 1
 927 112 l 1
 927 837 l 2
 927 897 879 949 814 949 c 1
 814 1060 l 1
 937 1132 1040 1268 1040 1447 c 9
 1153 1447 l 17
 1153 1190 987 1047 948 1018 c 1
267 914 m 0
 217 914 183 873 183 829 c 0
 183 783 218 746 267 746 c 0
 316 746 351 783 351 829 c 0
 351 878 312 914 267 914 c 0
EndSplineSet
EndChar
StartChar: uni0E0C
Encoding: 3596 3596 135
Width: 1863
VWidth: 2045
Flags: MW
HStem: 0 112<374.501 523.299 884.658 1033.52> 279 112<385.602 523.39 884.746 978.008 971.069 984.948> 1142 112<424.785 778.585>
VStem: 250 113<122.997 268.654> 534 113<123.8 267.816> 761 113<123.11 268.347> 985 113<764 932.23> 1043 113<121.459 197.105> 1564 113<0 1254 124 124 124 1254>
Fore
958 0 m 0xfe
 1064 0 1156 78 1156 199 c 9xfd
 1564 0 l 1
 1677 0 l 9
 1677 1254 l 9
 1564 1254 l 17
 1564 124 l 25
 1098 349 l 9
 1098 764 l 2
 1098 1034 876 1254 604 1254 c 256
 336 1254 110 1040 110 764 c 1
 250 764 l 17
 250 196 l 18
 250 85 340 0 448 0 c 0
 562 0 647 90 647 197 c 0
 647 302 562 391 448 391 c 0
 417 391 389 385 363 373 c 9
 363 764 l 9
 476 764 l 1
 476 876 l 1
 239 876 l 17
 315 1087 486 1142 604 1142 c 256
 810 1142 985 976 985 764 c 2
 985 390 l 17
 977 391 968 391 957 391 c 0
 850 391 761 305 761 196 c 0
 761 88 848 0 958 0 c 0xfe
959 112 m 0
 911 112 874 149 874 195 c 0
 874 245 915 279 959 279 c 0
 1008 279 1043 240 1043 195 c 0
 1043 149 1008 112 959 112 c 0
448 112 m 0
 400 112 363 149 363 195 c 0
 363 245 404 279 448 279 c 0
 498 279 534 239 534 195 c 0
 534 145 492 112 448 112 c 0
EndSplineSet
EndChar
StartChar: uni0E0D
Encoding: 3597 3597 136
Width: 1864
VWidth: 2045
Flags: W
HStem: -548 149<1034.39 1301.42> -231 112<1031.7 1179.46> 0 112<373.641 523.099 1098 1565> 279 112<386.313 523.423> 764 112<240 251 364 476> 1142 112<424.175 780.412>
VStem: 251 113<125.058 268.581 373 764> 534 113<123.11 267.934> 909 113<-389.145 -242.346> 985 113<112 764 764 934.233> 1191 115<-388.254 -243.031> 1565 113<-264.545 -101 112 1254>
Fore
1232 -450 m 1xffb0
 1394 -438 1565 -301 1565 -101 c 9
 1678 -101 l 17
 1678 -347 1475 -548 1226 -548 c 0
 981 -548 909 -414 909 -326 c 0
 909 -197 1003 -119 1106 -119 c 0
 1215 -119 1306 -209 1306 -323 c 0
 1307 -370 1283 -413 1232 -450 c 1xffb0
1106 -231 m 0
 1062 -231 1022 -266 1022 -316 c 0
 1022 -366 1062 -399 1106 -399 c 0
 1155 -399 1191 -360 1191 -316 c 0
 1191 -271 1155 -231 1106 -231 c 0
604 1254 m 256
 873 1254 1098 1039 1098 764 c 2
 1098 112 l 1
 1565 112 l 1
 1565 1254 l 1
 1678 1254 l 1
 1678 0 l 17
 985 0 l 1
 985 764 l 2xff70
 985 973 814 1142 604 1142 c 256
 486 1142 316 1087 240 876 c 1
 476 876 l 1
 476 764 l 1
 364 764 l 1
 364 373 l 1
 391 385 419 391 449 391 c 0
 561 391 647 303 647 196 c 0
 647 88 561 0 448 0 c 0
 334 0 251 90 251 196 c 2
 251 764 l 1
 110 764 l 1
 110 1034 332 1254 604 1254 c 256
449 279 m 0
 400 279 364 240 364 195 c 0
 364 145 404 112 449 112 c 0
 497 112 534 149 534 195 c 0
 534 245 493 279 449 279 c 0
EndSplineSet
Substitution2: "Thai Descender Removal Single Substitution" uni0E0D.descless
EndChar
StartChar: uni0E0E
Encoding: 3598 3598 137
Width: 1373
VWidth: 2045
Flags: W
HStem: -541 112<574.497 724.852> -261 111<575.802 724.023> 0 112<219.484 367.558> 279 112<219.558 355.805> 764 112<338 378 491 604> 1142 112<522.357 877.185>
VStem: 96 113<123.164 267.898> 378 113<123.822 269.387 373 764> 451 113<-417.63 -271.378> 1084 113<-379 764 764 933.432>
AnchorPoint: "BelowBase" 1144 -625 basechar 0
Fore
703 1254 m 256xff40
 973 1254 1197 1037 1197 764 c 2
 1197 -426 l 17
 1024 -597 l 17
 849 -424 l 17
 790 -483 l 2
 750 -522 703 -541 649 -541 c 0
 537 -541 451 -452 451 -345 c 0xfec0
 451 -233 541 -150 650 -150 c 0
 704 -150 751 -169 790 -207 c 2
 849 -266 l 9
 928 -187 l 1
 1009 -266 l 1
 930 -344 l 25
 1024 -438 l 9
 1084 -379 l 9
 1084 764 l 2
 1084 976 909 1142 703 1142 c 256
 587 1142 408 1085 338 876 c 9
 604 876 l 1
 604 764 l 1
 491 764 l 17
 491 196 l 2
 491 87 404 0 294 0 c 0
 182 0 96 88 96 196 c 0
 96 303 183 391 293 391 c 0
 324 391 353 385 378 373 c 9
 378 764 l 9
 209 764 l 1
 209 1034 431 1254 703 1254 c 256xff40
650 -261 m 0
 597 -261 564 -303 564 -346 c 0
 564 -396 604 -429 650 -429 c 0
 698 -429 735 -392 735 -346 c 0
 735 -303 701 -261 650 -261 c 0
294 279 m 0
 245 279 209 240 209 195 c 0
 209 145 249 112 294 112 c 0
 343 112 378 149 378 195 c 0xff40
 378 244 339 279 294 279 c 0
EndSplineSet
EndChar
StartChar: uni0E0F
Encoding: 3599 3599 138
Width: 1373
VWidth: 2045
Flags: W
HStem: -571 112<332.465 481.693> -292 112<332.558 480.683> 0 112<219.484 367.558> 279 112<219.558 355.805> 764 112<338 378 491 604> 1142 112<522.357 877.185>
VStem: 96 113<123.164 267.898> 209 113<-448.267 -303.326> 378 113<123.822 269.387 373 764> 1084 113<-387 933.432>
AnchorPoint: "BelowBase" 1105 -625 basechar 0
Fore
209 -376 m 0
 209 -268 296 -180 406 -180 c 0
 461 -180 507 -199 546 -237 c 2
 607 -296 l 9
 686 -218 l 1
 765 -296 l 1
 686 -375 l 25
 758 -447 l 1
 890 -314 l 25
 1024 -447 l 9
 1084 -387 l 9
 1084 764 l 2
 1084 976 909 1142 703 1142 c 256
 587 1142 408 1085 338 876 c 9
 604 876 l 1
 604 764 l 1
 491 764 l 17
 491 196 l 2
 491 87 404 0 294 0 c 0
 182 0 96 88 96 196 c 0
 96 303 183 391 293 391 c 0
 324 391 353 385 378 373 c 9
 378 764 l 9
 209 764 l 1
 209 1034 431 1254 703 1254 c 256
 973 1254 1197 1037 1197 764 c 2
 1197 -432 l 17
 1024 -604 l 17
 890 -473 l 25
 758 -604 l 1
 607 -455 l 17
 546 -514 l 2
 507 -552 461 -571 406 -571 c 0
 296 -571 209 -484 209 -376 c 0
407 -292 m 0
 358 -292 322 -331 322 -376 c 0
 322 -426 362 -459 407 -459 c 0
 456 -459 491 -422 491 -376 c 0
 491 -327 452 -292 407 -292 c 0
294 279 m 0
 245 279 209 240 209 195 c 0
 209 145 249 112 294 112 c 0
 343 112 378 149 378 195 c 0
 378 244 339 279 294 279 c 0
EndSplineSet
EndChar
StartChar: uni0E10
Encoding: 3600 3600 139
Width: 1192
VWidth: 2045
Flags: W
HStem: -733 112<162.832 312.068> -453 112<160.45 315.941 758.061 894.442> -187 112<758.025 907.945> 0 21G<701.675 817.356> 296 112<416.385 565.096> 574 112<416.55 563.641> 764 112<247 810.359> 1142 112<434.444 736.932>
VStem: 43 109<-609.663 -463.958> 293 113<418.789 563.582> 634 113<-343.352 -198.311> 835 110<597.022 606 606 628.885 628.885 638.385 633.635 739.521> 918 113<-548 -449 -344.41 -200.507>
Fore
832 -355 m 0xffe8
 886 -355 918 -310 918 -270 c 24
 918 -226 881 -187 832 -187 c 0
 783 -187 747 -226 747 -270 c 0
 747 -315 783 -355 832 -355 c 0xffe8
438 -616 m 0
238 -453 m 0
 194 -453 152 -486 152 -536 c 0
 152 -580 188 -621 238 -621 c 0
 287 -621 323 -581 323 -536 c 0
 323 -486 283 -453 238 -453 c 0
834 -75 m 0
 947 -75 1031 -165 1031 -272 c 2
 1031 -595 l 1
 857 -766 l 17
 723 -634 l 25
 592 -766 l 1
 439 -616 l 17
 378 -675 l 2
 339 -714 293 -733 239 -733 c 0
 131 -733 43 -646 43 -537 c 0
 43 -428 131 -341 240 -341 c 0
 293 -341 339 -360 378 -399 c 2
 439 -459 l 9
 518 -379 l 1
 598 -459 l 1
 518 -538 l 25
 592 -607 l 1
 724 -476 l 25
 857 -607 l 9
 918 -548 l 1
 918 -449 l 17
 891 -461 863 -467 832 -467 c 0
 720 -467 634 -378 634 -271 c 0
 634 -163 720 -75 834 -75 c 0
117 764 m 1
 117 1019 325 1254 611 1254 c 256
 810 1254 960 1143 1040 1006 c 9
 944 949 l 17
 844 1122 681 1142 611 1142 c 256
 427 1142 290 1015 247 876 c 1
 724 876 l 2
 845 876 950 783 950 652 c 16
 950 634 948 619 945 606 c 10
 813 0 l 1
 707 0 l 1
 617 338 l 17
 590 310 548 296 491 296 c 0
 380 296 293 385 293 491 c 0
 293 598 380 686 491 686 c 0
 565 686 653 646 685 529 c 2
 758 266 l 17
 835 631 l 18xfff0
 836 634 837 638 837 646 c 0
 837 710 793 764 724 764 c 2
 117 764 l 1
489 574 m 0
 440 574 406 537 406 491 c 0
 406 442 443 408 489 408 c 0
 533 408 575 441 575 491 c 0
 575 541 533 574 489 574 c 0
EndSplineSet
Substitution2: "Thai Descender Removal Single Substitution" uni0E10.descless
EndChar
StartChar: uni0E11
Encoding: 3601 3601 140
Width: 1573
VWidth: 2045
Flags: MW
HStem: 0 21G<534 654.858 1287 1400> 633 113<250.56 398.352> 914 110<265.883 397.949> 1130 124<326 340> 1142 112<1084.66 1262.62>
VStem: 85 154<757.326 1000.49> 409 113<755.281 904.171> 534 113<308 663.364> 690 114<802.338 1095.79> 1287 113<0 1116.47>
Fore
325 914 m 0
 275 914 239 874 239 829 c 0
 239 779 281 746 325 746 c 0
 374 746 409 783 409 829 c 0
 409 878 370 914 325 914 c 0
1287 1027 m 18
 1287 1091 1236 1142 1174 1142 c 24
 1110 1142 1078 1096 1067 1069 c 2
 647 0 l 1
 534 0 l 1
 534 498 l 2
 534 752 688 770 690 934 c 16
 693 1065 631 1118 613 1124 c 1
 476 1039 l 1
 326 1130 l 17
 307 1126 221 1076 198 976 c 1
 247 1008 289 1024 325 1024 c 0
 434 1024 522 937 522 827 c 0
 522 719 434 633 325 633 c 0
 229 633 85 690 85 922 c 0
 85 1018 113 1094 169 1149 c 0
 225 1204 282 1239 340 1254 c 1
 476 1171 l 1
 610 1254 l 1
 647 1241 688 1206 735 1152 c 0
 781 1097 804 1030 804 950 c 0
 804 729 645 708 647 498 c 2
 647 308 l 17
 964 1115 l 2
 981 1158 1048 1254 1173 1254 c 24
 1301 1254 1400 1152 1400 1030 c 2
 1400 0 l 1
 1287 0 l 1
 1287 1027 l 18
EndSplineSet
EndChar
StartChar: uni0E12
Encoding: 3602 3602 141
Width: 1916
VWidth: 2045
Flags: W
HStem: 0 112<922.135 1071.3> 279 112<922.565 1022.12> 820 112<568.246 716.63>
VStem: 149 113<160 1063.84> 445 113<662.104 809.095> 727 113<675.294 808.385> 799 113<122.642 268.476> 1023 113<390 929 929 1058.25> 1081 113<121.985 197.15> 1618 112<124 1254>
Fore
642 820 m 0xfc40
 598 820 558 785 558 736 c 0
 558 685 598 652 642 652 c 0
 691 652 727 691 727 736 c 0
 727 780 691 820 642 820 c 0xfc40
890 1254 m 17
 986 1227 1136 1124 1136 929 c 2
 1136 349 l 17xfd40
 1618 124 l 25
 1618 1254 l 9
 1730 1254 l 17
 1730 0 l 17
 1618 0 l 1
 1194 199 l 17xf8c0
 1194 78 1102 0 996 0 c 0
 885 0 799 88 799 196 c 0
 799 303 886 391 997 391 c 0
 1005 391 1014 391 1023 390 c 9
 1023 929 l 2xfb40
 1023 1050 938 1111 901 1130 c 9
 643 973 l 1
 384 1130 l 17
 339 1108 262 1049 262 927 c 2
 262 160 l 25
 598 547 l 1
 502 567 445 652 445 737 c 0
 445 843 531 932 642 932 c 0
 755 932 840 842 840 737 c 0
 840 689 821 643 782 598 c 2
 262 0 l 17
 149 0 l 9
 149 927 l 2
 149 1123 296 1226 393 1254 c 9
 643 1103 l 1
 890 1254 l 17
996 279 m 0
 946 279 912 241 912 195 c 0
 912 149 946 112 996 112 c 0
 1044 112 1081 149 1081 195 c 0xfac0
 1081 241 1044 279 996 279 c 0
EndSplineSet
EndChar
StartChar: uni0E13
Encoding: 3603 3603 142
Width: 1898
VWidth: 2045
Flags: W
HStem: 0 112<373.072 523.229 1499 1648.33> 279 112<385.313 523.119> 764 112<239 250 363 476> 1142 112<424.376 778.185>
VStem: 250 113<125.058 268.581 373 764> 534 112<123.164 267.486> 985 113<131 764 764 933.432> 1518 113<382 1254> 1659 113<122.642 267.553>
Fore
1574 0 m 0
 1466 0 1386 81 1378 172 c 9
 1098 0 l 1
 985 0 l 9
 985 764 l 2
 985 976 810 1142 604 1142 c 256
 485 1142 315 1087 239 876 c 9
 476 876 l 1
 476 764 l 1
 363 764 l 17
 363 373 l 17
 390 385 418 391 448 391 c 0
 562 391 646 301 646 196 c 0
 646 88 562 0 448 0 c 0
 334 0 250 90 250 196 c 10
 250 764 l 9
 110 764 l 1
 110 1039 335 1254 604 1254 c 256
 874 1254 1098 1037 1098 764 c 2
 1098 131 l 25
 1473 362 l 2
 1487 371 1502 377 1518 382 c 9
 1518 1254 l 9
 1631 1254 l 17
 1631 382 l 17
 1684 367 1772 307 1772 196 c 0
 1772 88 1685 0 1574 0 c 0
1575 112 m 0
 1624 112 1659 149 1659 195 c 0
 1659 244 1620 279 1575 279 c 0
 1525 279 1489 239 1489 195 c 0
 1489 145 1531 112 1575 112 c 0
448 279 m 0
 399 279 363 240 363 195 c 0
 363 145 403 112 448 112 c 0
 492 112 534 145 534 195 c 0
 534 240 496 279 448 279 c 0
EndSplineSet
EndChar
StartChar: uni0E14
Encoding: 3604 3604 143
Width: 1301
VWidth: 2045
Flags: W
HStem: 0 21G<165 294.823 1012 1125> 820 112<568.452 716.56> 1142 112<476.339 817.491>
VStem: 165 113<160 947.846> 445 113<662.172 809.077> 727 112<677.262 809.113> 1012 113<0 947.846>
Fore
642 932 m 0
 755 932 839 839 839 743 c 0
 839 693 820 645 781 598 c 2
 278 0 l 1
 165 0 l 1
 165 776 l 2
 165 1040 378 1254 644 1254 c 0
 905 1254 1125 1047 1125 776 c 2
 1125 0 l 1
 1012 0 l 1
 1012 776 l 2
 1012 990 840 1142 645 1142 c 0
 452 1142 276 990 278 776 c 2
 278 160 l 1
 598 547 l 1
 507 566 445 645 445 736 c 0
 445 844 532 932 642 932 c 0
642 820 m 0
 598 820 558 785 558 736 c 0
 558 685 598 652 642 652 c 0
 691 652 727 691 727 736 c 0
 727 780 691 820 642 820 c 0
EndSplineSet
EndChar
StartChar: uni0E15
Encoding: 3605 3605 144
Width: 1301
VWidth: 2045
Flags: W
HStem: 0 21G<165 294.856 1008 1121> 820 112<568.246 716.63>
VStem: 165 113<160 1063.84> 445 113<662.104 809.095> 727 113<675.516 808.385> 1008 113<0 1063.62>
Fore
642 932 m 0
 755 932 840 842 840 737 c 0
 840 690 821 643 782 598 c 2
 278 0 l 17
 165 0 l 9
 165 927 l 2
 165 1123 309 1226 409 1254 c 9
 643 1103 l 1
 875 1254 l 17
 970 1227 1121 1123 1121 927 c 2
 1121 0 l 1
 1008 0 l 1
 1008 927 l 2
 1008 1049 925 1110 886 1130 c 9
 643 973 l 1
 399 1130 l 17
 356 1109 277 1048 278 927 c 2
 278 160 l 25
 598 547 l 1
 502 567 445 652 445 737 c 0
 445 843 531 932 642 932 c 0
642 820 m 0
 598 820 558 785 558 736 c 0
 558 685 598 652 642 652 c 0
 691 652 727 691 727 736 c 0
 727 780 691 820 642 820 c 0
EndSplineSet
EndChar
StartChar: uni0E16
Encoding: 3606 3606 145
Width: 1248
VWidth: 2045
Flags: W
HStem: 0 112<373.072 523.229> 279 112<385.313 523.119> 764 112<239 250 363 476> 1142 112<424.277 778.185>
VStem: 250 113<125.058 268.581 373 764> 534 112<123.164 267.486> 985 113<0 764 764 933.432>
Fore
448 112 m 0
 492 112 534 145 534 195 c 0
 534 240 496 279 448 279 c 0
 399 279 363 240 363 195 c 0
 363 145 403 112 448 112 c 0
985 764 m 2
 985 976 810 1142 604 1142 c 256
 487 1142 312 1086 239 876 c 9
 476 876 l 1
 476 764 l 1
 363 764 l 17
 363 373 l 17
 390 385 418 391 448 391 c 0
 562 391 646 301 646 196 c 0
 646 88 562 0 448 0 c 0
 334 0 250 90 250 196 c 10
 250 764 l 9
 110 764 l 1
 110 1039 335 1254 604 1254 c 256
 874 1254 1098 1037 1098 764 c 2
 1098 0 l 1
 985 0 l 1
 985 764 l 2
EndSplineSet
EndChar
StartChar: uni0E17
Encoding: 3607 3607 146
Width: 1338
VWidth: 2045
Flags: W
HStem: 861 112<185.295 319.676> 1142 112<184.648 331.394 878.234 1056.93>
VStem: 61 113<983.339 1131.27> 343 113<983.651 1131.38> 1079 113<1030 1120.47>
Fore
61 1058 m 0
 61 945 151 861 259 861 c 0
 290 861 318 867 343 879 c 1
 343 0 l 1
 456 0 l 1
 861 1069 l 2
 875 1108 915 1142 968 1142 c 24
 1029 1142 1079 1095 1079 1027 c 10
 1079 0 l 1
 1192 0 l 1
 1192 1030 l 2
 1192 1150 1097 1254 967 1254 c 24
 842 1254 772 1155 758 1115 c 2
 456 308 l 1
 456 1057 l 2
 456 1171 365 1254 258 1254 c 0
 149 1254 61 1167 61 1058 c 0
258 973 m 0
 214 973 174 1008 174 1058 c 0
 174 1102 209 1142 258 1142 c 0
 307 1142 343 1102 343 1058 c 0
 343 1013 307 973 258 973 c 0
EndSplineSet
EndChar
StartChar: uni0E18
Encoding: 3608 3608 147
Width: 1120
VWidth: 2045
Flags: W
HStem: 0 112<204 317 430 820> 764 112<232 317 430 798> 1142 112<415.633 773.94>
VStem: 317 113<112 764> 820 113<112 738.047>
Fore
820 652 m 10
 820 714 773 764 707 764 c 2
 430 764 l 17
 430 112 l 17
 820 112 l 25
 820 652 l 10
102 764 m 1
 102 1034 324 1254 596 1254 c 256
 792 1254 944 1143 1024 1009 c 9
 927 953 l 17
 865 1055 749 1142 596 1142 c 256
 433 1142 283 1041 232 876 c 9
 707 876 l 2
 839 876 933 773 933 652 c 18
 933 0 l 9
 204 0 l 1
 204 112 l 1
 317 112 l 25
 317 764 l 25
 102 764 l 1
EndSplineSet
EndChar
StartChar: uni0E19
Encoding: 3609 3609 148
Width: 1338
VWidth: 2045
Flags: W
HStem: 0 112<991.283 1140.65> 861 112<192.612 328.755> 1142 112<192.764 339.859>
VStem: 69 113<984.667 1131.19> 351 113<124 879 982.644 1130.55> 867 113<122.997 196> 1009 113<382 1254> 1150 112<122.024 267.553>
Fore
1064 0 m 24
 957 0 867 85 867 196 c 9
 464 0 l 17
 351 0 l 1
 351 879 l 1
 324 867 296 861 265 861 c 0
 155 861 69 949 69 1058 c 0
 69 1169 157 1254 266 1254 c 0
 375 1254 463 1169 464 1057 c 2
 464 124 l 9
 964 362 l 2
 988 373 1003 380 1009 382 c 9
 1009 1254 l 9
 1122 1254 l 17
 1122 382 l 17
 1178 367 1262 307 1262 196 c 0
 1262 85 1173 0 1064 0 c 24
1066 112 m 0
 1115 112 1150 149 1150 195 c 0
 1150 244 1111 279 1066 279 c 0
 1016 279 980 239 980 195 c 0
 980 145 1022 112 1066 112 c 0
267 1142 m 0
 218 1142 182 1102 182 1058 c 0
 182 1013 218 973 267 973 c 0
 311 973 351 1008 351 1058 c 0
 351 1102 316 1142 267 1142 c 0
EndSplineSet
EndChar
StartChar: uni0E1A
Encoding: 3610 3610 149
Width: 1391
VWidth: 2045
Flags: W
HStem: 0 112<277 390 503 1101> 861 112<232.176 367.911> 1142 112<232.606 379.352>
VStem: 108 113<983.742 1131.7> 390 113<112 879 982.66 1129.73> 1101 113<112 1254>
Fore
306 1254 m 0
 415 1254 503 1167 503 1057 c 2
 503 112 l 1
 1101 112 l 25
 1101 1254 l 25
 1214 1254 l 25
 1214 0 l 9
 277 0 l 1
 277 112 l 1
 390 112 l 17
 390 879 l 1
 364 867 336 861 305 861 c 0
 198 861 108 945 108 1058 c 0
 108 1171 199 1254 306 1254 c 0
306 1142 m 0
 257 1142 221 1103 221 1058 c 0
 221 1012 257 973 306 973 c 0
 357 973 390 1013 390 1058 c 0
 390 1103 355 1142 306 1142 c 0
EndSplineSet
EndChar
StartChar: uni0E1B
Encoding: 3611 3611 150
Width: 1391
VWidth: 2045
Flags: W
HStem: 0 112<277 390 503 1101> 861 112<232.176 367.911> 1142 112<232.606 379.352>
VStem: 108 113<983.742 1131.7> 390 113<112 879 982.66 1129.73> 1101 113<112 1832>
AnchorPoint: "AboveBase" 987 1370 basechar 0
Fore
306 1254 m 0
 415 1254 503 1167 503 1057 c 2
 503 112 l 1
 1101 112 l 25
 1101 1832 l 25
 1214 1832 l 25
 1214 0 l 9
 277 0 l 1
 277 112 l 1
 390 112 l 17
 390 879 l 1
 364 867 336 861 305 861 c 0
 198 861 108 945 108 1058 c 0
 108 1171 199 1254 306 1254 c 0
306 1142 m 0
 257 1142 221 1103 221 1058 c 0
 221 1012 257 973 306 973 c 0
 357 973 390 1013 390 1058 c 0
 390 1103 355 1142 306 1142 c 0
EndSplineSet
EndChar
StartChar: uni0E1C
Encoding: 3612 3612 151
Width: 1290
VWidth: 2045
Flags: W
HStem: 0 21G<162 289.313 1016.69 1145> 861 112<298.371 433.114> 1142 112<286.589 434.012>
VStem: 162 112<172 881 983.651 1127.97> 445 113<983.842 1130.78> 1032 113<172 1254>
Fore
558 1058 m 0
 558 945 468 861 360 861 c 0
 329 861 301 868 274 881 c 1
 274 172 l 25
 653 665 l 1
 1032 172 l 25
 1032 1254 l 9
 1145 1254 l 25
 1145 0 l 9
 1032 0 l 17
 653 495 l 25
 274 0 l 9
 162 0 l 25
 162 1054 l 18
 162 1166 251 1254 360 1254 c 0
 470 1254 558 1167 558 1058 c 0
360 973 m 0
 409 973 445 1013 445 1058 c 0
 445 1102 409 1142 360 1142 c 0
 316 1142 276 1107 276 1058 c 0
 276 1013 311 973 360 973 c 0
EndSplineSet
EndChar
StartChar: uni0E1D
Encoding: 3613 3613 152
Width: 1290
VWidth: 2045
Flags: W
HStem: 0 21G<162 289.251 1016.75 1145> 861 112<298.371 433.114> 1142 112<286.589 434.012>
VStem: 162 112<165 881 983.651 1127.97> 445 113<983.842 1130.78> 1032 113<163 1832>
AnchorPoint: "AboveBase" 930 1370 basechar 0
Fore
558 1058 m 0
 558 945 468 861 360 861 c 0
 329 861 301 868 274 881 c 1
 274 165 l 25
 653 669 l 1
 1032 163 l 25
 1032 1832 l 9
 1145 1832 l 25
 1145 0 l 9
 1032 0 l 17
 653 497 l 25
 274 0 l 9
 162 0 l 25
 162 1054 l 18
 162 1166 251 1254 360 1254 c 0
 470 1254 558 1167 558 1058 c 0
360 973 m 0
 409 973 445 1013 445 1058 c 0
 445 1102 409 1142 360 1142 c 0
 316 1142 276 1107 276 1058 c 0
 276 1013 311 973 360 973 c 0
EndSplineSet
EndChar
StartChar: uni0E1E
Encoding: 3614 3614 153
Width: 1470
VWidth: 2045
Flags: W
HStem: 0 21G<345 464.774 1170.21 1290> 861 112<184.187 319.93> 1142 112<182.288 331.704>
VStem: 61 111<984.667 1129.34> 345 113<350 881 982.644 1132.37> 1177 113<350 1254>
Fore
258 1254 m 0
 368 1254 457 1166 458 1054 c 2
 458 350 l 25
 764 1254 l 9
 871 1254 l 17
 1177 350 l 25
 1177 1254 l 9
 1290 1254 l 25
 1290 0 l 9
 1177 0 l 17
 817 1060 l 25
 458 0 l 9
 345 0 l 25
 345 881 l 1
 318 868 290 861 259 861 c 0
 147 861 61 949 61 1058 c 0
 61 1171 152 1254 258 1254 c 0
258 1142 m 0
 209 1142 172 1102 172 1058 c 0
 172 1013 209 973 258 973 c 0
 302 973 342 1008 342 1058 c 0
 342 1102 307 1142 258 1142 c 0
EndSplineSet
EndChar
StartChar: uni0E1F
Encoding: 3615 3615 154
Width: 1470
VWidth: 2045
Flags: W
HStem: 0 21G<345 464.774 1170.21 1290> 861 112<184.187 319.93> 1142 112<182.288 331.704>
VStem: 61 111<984.667 1129.34> 345 113<350 881 982.644 1132.37> 1177 113<350 1832>
AnchorPoint: "AboveBase" 1035 1370 basechar 0
Fore
258 1254 m 0
 368 1254 457 1166 458 1054 c 2
 458 350 l 25
 764 1254 l 9
 871 1254 l 17
 1177 350 l 25
 1177 1832 l 9
 1290 1832 l 25
 1290 0 l 9
 1177 0 l 17
 817 1060 l 25
 458 0 l 9
 345 0 l 25
 345 881 l 1
 318 868 290 861 259 861 c 0
 147 861 61 949 61 1058 c 0
 61 1171 152 1254 258 1254 c 0
258 1142 m 0
 209 1142 172 1102 172 1058 c 0
 172 1013 209 973 258 973 c 0
 302 973 342 1008 342 1058 c 0
 342 1102 307 1142 258 1142 c 0
EndSplineSet
EndChar
StartChar: uni0E20
Encoding: 3616 3616 155
Width: 1373
VWidth: 2045
Flags: W
HStem: 0 112<219.883 367.764> 279 112<219.558 355.803> 1142 112<523.181 877.585>
VStem: 96 113<123.11 268.141> 378 113<124.234 269.552> 1084 113<764 932.23>
Fore
294 112 m 0
 246 112 209 149 209 195 c 0
 209 245 250 279 294 279 c 0
 343 279 378 240 378 195 c 0
 378 149 343 112 294 112 c 0
294 0 m 0
 405 0 491 88 491 196 c 2
 491 764 l 25
 604 764 l 1
 604 876 l 1
 338 876 l 17
 408 1085 587 1142 703 1142 c 256
 909 1142 1084 976 1084 764 c 2
 1084 0 l 1
 1197 0 l 1
 1197 764 l 2
 1197 1034 975 1254 703 1254 c 256
 435 1254 209 1038 209 764 c 1
 378 764 l 25
 378 373 l 1
 351 385 323 391 293 391 c 0
 183 391 96 304 96 196 c 0
 96 88 183 0 294 0 c 0
EndSplineSet
EndChar
StartChar: uni0E21
Encoding: 3617 3617 156
Width: 1355
VWidth: 2045
Flags: W
HStem: 0 113<255.754 403.233> 281 110<255.64 392.543> 862 114<255.633 392.634> 1143 111<255.146 403.107>
VStem: 133 111<124.025 269.321 985.958 1130.97> 415 112<123.651 215.922 373 881 986.187 1130.97> 1067 113<112 1253>
Fore
330 1254 m 0
 437 1254 527 1170 527 1057 c 2
 527 329 l 25
 1067 112 l 9
 1067 1253 l 1
 1180 1253 l 1
 1180 0 l 1
 1067 0 l 1
 527 218 l 17
 527 196 l 2
 527 86 439 0 330 0 c 0
 219 0 133 88 133 196 c 0
 133 304 221 391 329 391 c 0
 360 391 388 385 415 373 c 9
 415 881 l 1
 388 868 360 862 329 862 c 0
 221 862 133 949 133 1058 c 0
 133 1165 218 1254 330 1254 c 0
329 1143 m 0
 280 1143 244 1104 244 1059 c 0
 244 1009 286 976 329 976 c 0
 379 976 415 1014 415 1059 c 0
 415 1104 377 1143 329 1143 c 0
329 281 m 0
 281 281 244 244 244 198 c 0
 244 149 284 113 329 113 c 0
 379 113 415 153 415 198 c 0
 415 248 373 281 329 281 c 0
EndSplineSet
EndChar
StartChar: uni0E22
Encoding: 3618 3618 157
Width: 1248
VWidth: 2045
Flags: W
HStem: 0 112<345 954> 622 112<372.234 681> 861 112<291.68 436.723> 1142 112<293.162 436.94>
VStem: 112 169<884.609 1129.95> 232 113<112 511 511 598.805> 448 113<983.133 1131.89> 954 113<112 1254>
Fore
457 622 m 18xfb
 392 622 345 570 345 511 c 10
 345 112 l 25
 954 112 l 25
 954 1254 l 25
 1067 1254 l 25
 1067 0 l 9
 232 0 l 9
 232 511 l 2xf7
 232 570 252 622 293 665 c 1
 218 694 112 779 112 971 c 8
 112 1138 209 1251 364 1254 c 0
 471 1254 561 1170 561 1058 c 0
 561 944 470 861 364 861 c 16
 315 861 273 874 238 900 c 1
 243 862 282 734 457 734 c 10
 681 734 l 17
 681 622 l 1
 457 622 l 18xfb
364 973 m 0
 408 973 448 1008 448 1058 c 0
 448 1102 413 1142 364 1142 c 0
 316 1142 281 1102 281 1058 c 0xfb
 281 1013 316 973 364 973 c 0
EndSplineSet
EndChar
StartChar: uni0E23
Encoding: 3619 3619 158
Width: 1002
VWidth: 2045
Flags: W
HStem: 0 112<426.259 574.334> 279 112<426.558 562.885> 834 112<211 557.005 79 911 211 211> 1142 112<345.129 665.2>
VStem: 303 113<123.164 267.898> 585 113<123.822 269.387 373 808.047> 803 108<918 1064.37>
Fore
79 834 m 1
 79 1060 262 1254 502 1254 c 0
 713 1254 867 1110 911 942 c 9
 803 918 l 17
 779 1003 683 1142 503 1142 c 0
 328 1142 237 1010 211 946 c 9
 472 946 l 2
 602 943 698 844 698 722 c 26
 698 196 l 2
 698 87 611 0 500 0 c 0
 389 0 303 88 303 196 c 0
 303 303 390 391 500 391 c 0
 530 391 558 385 585 373 c 1
 585 722 l 26
 585 780 536 834 472 834 c 2
 79 834 l 1
501 279 m 0
 452 279 416 240 416 195 c 0
 416 145 456 112 501 112 c 0
 550 112 585 149 585 195 c 0
 585 244 546 279 501 279 c 0
EndSplineSet
EndChar
StartChar: uni0E24
Encoding: 3620 3620 159
Width: 1248
VWidth: 2045
Flags: W
HStem: 0 112<353.072 503.229> 279 112<365.313 503.119> 764 112<219 230 343 456> 1142 112<404.376 758.185>
VStem: 230 113<125.058 268.581 373 764> 514 112<123.164 267.486> 965 113<-548 764 764 933.432>
Fore
428 112 m 0
 472 112 514 145 514 195 c 0
 514 240 476 279 428 279 c 0
 379 279 343 240 343 195 c 0
 343 145 383 112 428 112 c 0
965 764 m 2
 965 976 790 1142 584 1142 c 256
 465 1142 295 1087 219 876 c 9
 456 876 l 1
 456 764 l 1
 343 764 l 17
 343 373 l 17
 370 385 398 391 428 391 c 0
 542 391 626 301 626 196 c 0
 626 88 542 0 428 0 c 0
 314 0 230 90 230 196 c 10
 230 764 l 9
 90 764 l 1
 90 1039 315 1254 584 1254 c 256
 854 1254 1078 1037 1078 764 c 2
 1078 -548 l 1
 965 -548 l 1
 965 764 l 2
EndSplineSet
EndChar
StartChar: uni0E25
Encoding: 3621 3621 160
Width: 1263
VWidth: 2045
Flags: W
HStem: 0 112<378.309 528.323> 279 112<390.429 528.511> 752 112<468.332 770.862> 1142 112<417.367 768.185>
VStem: 100 113<764 934.233> 255 113<125.058 268.783 373 518.699> 539 113<123.11 267.587> 975 113<0 549.016 686 933.432>
Fore
454 112 m 0
 502 112 539 149 539 195 c 0
 539 241 502 279 454 279 c 0
 405 279 368 241 368 195 c 0
 368 145 408 112 454 112 c 0
594 864 m 256
 776 864 905 770 975 686 c 1
 975 764 l 2
 975 976 800 1142 594 1142 c 256
 383 1142 213 971 213 764 c 9
 100 764 l 17
 100 1039 325 1254 594 1254 c 256
 864 1254 1088 1037 1088 764 c 2
 1088 0 l 1
 975 0 l 1
 975 372 l 2
 975 591 797 752 594 752 c 256
 467 752 397 642 382 566 c 0
 368 490 368 401 368 373 c 17
 395 385 423 391 453 391 c 0
 568 391 652 301 652 196 c 0
 652 88 566 0 454 0 c 0
 339 0 255 90 255 196 c 10
 255 375 l 2
 255 782 458 864 594 864 c 256
EndSplineSet
EndChar
StartChar: uni0E26
Encoding: 3622 3622 161
Width: 1373
VWidth: 2045
Flags: W
HStem: 0 112<219.883 367.764> 279 112<219.558 355.803> 1142 112<523.181 877.585>
VStem: 96 113<123.11 268.141> 378 113<124.234 269.552> 1084 113<764 932.23>
Fore
294 112 m 0
 246 112 209 149 209 195 c 0
 209 245 250 279 294 279 c 0
 343 279 378 240 378 195 c 0
 378 149 343 112 294 112 c 0
294 0 m 0
 405 0 491 88 491 196 c 2
 491 764 l 25
 604 764 l 1
 604 876 l 1
 338 876 l 17
 408 1085 587 1142 703 1142 c 256
 909 1142 1084 976 1084 764 c 2
 1084 -548 l 1
 1197 -548 l 1
 1197 764 l 2
 1197 1034 975 1254 703 1254 c 256
 435 1254 209 1038 209 764 c 1
 378 764 l 25
 378 373 l 1
 351 385 323 391 293 391 c 0
 183 391 96 304 96 196 c 0
 96 88 183 0 294 0 c 0
EndSplineSet
EndChar
StartChar: uni0E27
Encoding: 3623 3623 162
Width: 1122
VWidth: 2045
Flags: W
HStem: 0 112<678.236 826.117> 279 112<678.666 814.809> 1142 112<364.706 687.671>
VStem: 102 113<834 988.02> 555 113<122.642 268.383> 837 113<123.822 268.654 373 987.947>
Fore
752 279 m 0
 703 279 668 240 668 195 c 0
 668 149 703 112 752 112 c 0
 800 112 837 149 837 195 c 0
 837 245 796 279 752 279 c 0
555 196 m 0
 555 303 642 391 753 391 c 0
 784 391 812 385 837 373 c 1
 837 832 l 2
 837 1011 696 1142 526 1142 c 0
 346 1142 215 1001 215 834 c 9
 102 834 l 17
 102 1066 294 1254 526 1254 c 0
 755 1254 950 1068 950 832 c 2
 950 196 l 2
 950 87 863 0 752 0 c 0
 641 0 555 88 555 196 c 0
EndSplineSet
EndChar
StartChar: uni0E28
Encoding: 3624 3624 163
Width: 1301
VWidth: 2045
Flags: W
HStem: 0 21G<171 290.992 1018 1131> 547 115<573.065 722.629> 828 111<574.375 721.125> 1142 112<477.667 826.167>
VStem: 171 113<290 776 776 947.846> 733 112<673.883 805.042> 1018 113<0 848.363> 1043 113<1149.57 1332>
Fore
651 1142 m 0xfc
 456 1142 284 990 284 776 c 2
 284 290 l 1
 463 816 l 2
 478 854 537 939 648 939 c 0
 749 939 836 971 909 1036 c 1
 871 1075 780 1142 651 1142 c 0xfc
651 1254 m 0
 817 1254 929 1173 982 1121 c 1
 1023 1183 1043 1253 1043 1332 c 1
 1156 1332 l 1xfd
 1156 1212 1112 1103 1057 1033 c 9
 1089 976 1131 904 1131 776 c 2
 1131 0 l 1
 1018 0 l 1
 1018 776 l 2xfe
 1018 837 1004 894 976 947 c 1
 893 879 829 863 811 855 c 1
 834 823 845 786 845 743 c 0
 845 635 759 547 648 547 c 0
 559 547 510 601 499 615 c 1
 284 0 l 1
 171 0 l 1
 171 776 l 2
 171 1044 388 1254 651 1254 c 0
648 828 m 0
 600 828 564 789 564 744 c 0
 564 699 600 662 648 662 c 0
 692 662 733 695 733 744 c 0
 733 789 697 828 648 828 c 0
EndSplineSet
EndChar
StartChar: uni0E29
Encoding: 3625 3625 164
Width: 1483
VWidth: 2045
Flags: W
HStem: 0 112<277 390 503 1122> 432 150<705.052 972.717> 749 112<702.132 852.928> 861 112<232.176 367.911> 1142 112<232.606 379.352>
VStem: 108 113<983.742 1131.7> 390 113<112 879 982.66 1129.73> 579 113<592.351 737.932> 863 113<604.535 737.424> 1122 113<112 492 879 1254> 1122 226<684.762 879>
Fore
1348 879 m 17xffa0
 1348 731 1280 632 1235 583 c 9
 1235 0 l 9
 277 0 l 1
 277 112 l 1
 390 112 l 17
 390 879 l 1
 364 867 336 861 305 861 c 0
 198 861 108 945 108 1058 c 0
 108 1171 199 1254 306 1254 c 0
 415 1254 503 1167 503 1057 c 2
 503 112 l 1
 1122 112 l 17
 1122 492 l 17xffc0
 1053 452 977 432 896 432 c 0
 653 432 579 566 579 656 c 0
 579 783 672 861 778 861 c 0
 892 861 976 771 976 665 c 0
 976 620 962 581 933 547 c 1
 1003 553 1066 581 1122 630 c 9xffa0
 1122 1254 l 9
 1235 1254 l 17
 1235 879 l 9xffc0
 1348 879 l 17xffa0
306 1142 m 0
 257 1142 221 1103 221 1058 c 0
 221 1012 257 973 306 973 c 0
 357 973 390 1013 390 1058 c 0
 390 1103 355 1142 306 1142 c 0
778 749 m 0
 729 749 692 712 692 666 c 0
 692 620 729 582 778 582 c 0
 826 582 863 620 863 666 c 0
 863 716 823 749 778 749 c 0
EndSplineSet
EndChar
StartChar: uni0E2A
Encoding: 3626 3626 165
Width: 1263
VWidth: 2045
Flags: W
HStem: 0 112<388.309 538.323> 279 112<400.429 538.511> 752 112<479.357 782.319> 1142 112<427.367 782.305>
VStem: 110 113<764 934.233> 265 113<125.058 268.783 373 518.699> 549 113<123.11 267.587> 985 113<0 549.016 686 838.775> 1055 113<1118.75 1311>
Fore
464 112 m 0xfe
 512 112 549 149 549 195 c 0
 549 241 512 279 464 279 c 0
 415 279 378 241 378 195 c 0
 378 145 418 112 464 112 c 0xfe
265 375 m 2
 265 782 468 864 604 864 c 0
 710 864 819 899 913 985 c 1
 848 1075 738 1142 604 1142 c 256
 393 1142 223 971 223 764 c 9
 110 764 l 17
 110 1039 335 1254 604 1254 c 256
 765 1254 903 1176 986 1072 c 9
 1018 1127 1055 1197 1055 1311 c 9
 1168 1311 l 17xfe80
 1168 1167 1116 1056 1052 970 c 1
 1083 907 1098 838 1098 764 c 2
 1098 0 l 1
 985 0 l 1
 985 372 l 2xff
 985 591 807 752 604 752 c 256
 477 752 407 642 392 566 c 0
 378 490 378 401 378 373 c 17
 405 385 433 391 463 391 c 0
 578 391 662 301 662 196 c 0
 662 88 576 0 464 0 c 0
 349 0 265 90 265 196 c 10
 265 375 l 2
967 882 m 1
 941 861 889 823 842 804 c 9
 877 781 927 756 985 686 c 1
 985 764 l 2xff
 985 805 979 844 967 882 c 1
EndSplineSet
EndChar
StartChar: uni0E2B
Encoding: 3627 3627 166
Width: 1338
VWidth: 2045
Flags: W
HStem: 0 21G<343 466.686 1079 1192> 831 142<922.474 1056.25> 861 112<184.935 319.676> 1142 112<185.277 332.012 923.271 1068.18>
VStem: 61 113<984.172 1132.11> 343 113<218 879 983.651 1129.73> 799 113<982.399 1132.1> 1079 113<0 808.922 982.66 1131.78>
Fore
1192 1058 m 0xbf
 1192 984 1155 928 1107 896 c 1
 1131 875 1192 825 1192 719 c 2
 1192 0 l 1
 1079 0 l 1
 1079 717 l 18
 1079 756 1052 831 967 831 c 24xdf
 919 831 893 817 861 758 c 2
 456 0 l 1
 343 0 l 1
 343 879 l 1
 318 867 290 861 259 861 c 0
 147 861 61 949 61 1058 c 0
 61 1171 152 1254 258 1254 c 0
 368 1254 456 1167 456 1057 c 2
 456 218 l 1
 758 804 l 2
 788 860 811 889 860 915 c 9
 819 956 799 1000 799 1058 c 0
 799 1171 891 1254 996 1254 c 0
 1102 1254 1192 1169 1192 1058 c 0xbf
996 1142 m 0
 945 1142 912 1102 912 1058 c 0
 912 1012 947 973 996 973 c 0
 1046 973 1079 1013 1079 1058 c 0
 1079 1103 1044 1142 996 1142 c 0
258 1142 m 0
 214 1142 174 1107 174 1058 c 0
 174 1013 209 973 258 973 c 0xbf
 307 973 343 1013 343 1058 c 0
 343 1102 307 1142 258 1142 c 0
EndSplineSet
EndChar
StartChar: uni0E2C
Encoding: 3628 3628 167
Width: 1445
VWidth: 2045
Flags: W
HStem: 0 21G<345 464.774 1170.21 1290> 861 112<184.187 319.93> 1142 112<182.288 331.704> 1229 112<1016.71 1154.69> 1509 112<1017.17 1166.36>
VStem: 61 111<984.667 1129.34> 345 113<350 881 984.595 1127.97> 893 113<1352.52 1497.76> 1177 113<350 1248>
AnchorPoint: "AboveBase" 829 1370 basechar 0
Fore
1092 1509 m 0xdf80
 1043 1509 1006 1469 1006 1424 c 0
 1006 1380 1043 1341 1092 1341 c 0
 1141 1341 1177 1380 1177 1424 c 0
 1177 1469 1141 1509 1092 1509 c 0xdf80
1090 1621 m 0
 1200 1621 1282 1534 1290 1441 c 9
 1381 1494 l 9
 1438 1397 l 17
 1290 1311 l 25
 1290 0 l 9
 1177 0 l 17
 817 1060 l 25
 458 0 l 9
 345 0 l 25
 345 881 l 1
 318 868 290 861 259 861 c 0
 147 861 61 949 61 1058 c 0
 61 1171 152 1254 258 1254 c 0
 368 1254 457 1166 458 1054 c 2
 458 350 l 25
 764 1254 l 9
 871 1254 l 17xef80
 1177 350 l 17
 1177 1248 l 1
 1150 1235 1122 1229 1092 1229 c 0
 978 1229 893 1318 893 1425 c 0
 893 1534 980 1621 1090 1621 c 0
258 1142 m 0
 209 1142 172 1102 172 1058 c 0
 172 1013 209 973 258 973 c 0
 302 973 342 1008 342 1058 c 0
 342 1102 307 1142 258 1142 c 0
EndSplineSet
EndChar
StartChar: uni0E2D
Encoding: 3629 3629 168
Width: 1230
VWidth: 2045
Flags: W
HStem: 0 112<427 970> 468 112<452.181 588.433> 749 112<440.862 586.808> 1142 112<417.649 760.831>
VStem: 95 113<764 933.432> 314 113<112 488 589.634 736.656> 598 112<589.893 738.035> 970 113<112 764 764 936.629>
Fore
588 1254 m 256
 868 1254 1081 1030 1083 764 c 2
 1083 0 l 9
 314 0 l 9
 314 662 l 18
 314 776 407 861 514 861 c 0
 623 861 710 774 710 664 c 0
 710 551 620 468 512 468 c 0
 483 468 454 475 427 488 c 1
 427 112 l 25
 970 112 l 17
 970 764 l 2
 970 974 797 1142 588 1142 c 256
 381 1142 206 972 208 764 c 9
 95 764 l 17
 95 1037 318 1254 588 1254 c 256
514 580 m 0
 558 580 598 615 598 664 c 0
 598 709 563 749 514 749 c 0
 470 749 430 714 430 664 c 0
 430 620 465 580 514 580 c 0
EndSplineSet
EndChar
StartChar: uni0E2E
Encoding: 3630 3630 169
Width: 1192
VWidth: 2045
Flags: W
HStem: 0 112<299 880> 402 112<323.155 460.805> 680 112<313.776 460.302> 882 103<343.057 704.072> 1142 109<293.997 677.1>
VStem: 149 122<1012.62 1109.89> 186 113<112 420 524.926 665.142> 470 112<523.374 668.678> 880 113<112 938.618>
Fore
582 597 m 0xfb80
 582 485 492 402 384 402 c 0
 355 402 326 408 299 420 c 1
 299 112 l 1xfb80
 880 112 l 1
 880 764 l 2
 880 895 814 976 814 976 c 1
 706 907 621 882 470 882 c 0
 331 882 149 939 149 1059 c 0xfd80
 149 1174 335 1251 491 1251 c 0
 617 1251 703 1227 750 1184 c 0
 796 1142 824 1122 834 1124 c 0
 854 1128 884 1174 924 1261 c 1
 1021 1205 l 1
 970 1147 930 1094 903 1045 c 1
 891 1036 992 989 993 764 c 2
 993 0 l 9
 186 0 l 1
 186 594 l 2
 186 711 283 792 386 792 c 0
 500 792 582 700 582 597 c 0xfb80
271 1058 m 0xfd80
 271 995 444 985 500 985 c 0
 616 985 675 1006 744 1054 c 1
 688 1102 592 1142 491 1142 c 256
 365 1142 271 1108 271 1058 c 0xfd80
386 514 m 0
 434 514 470 551 470 596 c 0
 470 647 430 680 386 680 c 0
 338 680 302 641 302 596 c 0
 302 551 338 514 386 514 c 0
EndSplineSet
EndChar
StartChar: uni0E2F
Encoding: 3631 3631 170
Width: 1120
VWidth: 2045
Flags: W
HStem: 0 21G<848 961> 764 112<386.815 641.556> 1142 112<218.621 367.406>
VStem: 95 113<984.711 1130.76> 378 113<984.352 1130.16> 848 113<0 942 1080.93 1254>
Fore
491 1058 m 0
 491 952 420 903 383 882 c 1
 408 878 436 876 467 876 c 256
 678 876 848 1043 848 1254 c 9
 961 1254 l 25
 961 0 l 1
 848 0 l 1
 848 942 l 17
 778 858 649 764 467 764 c 256
 171 764 96 938 95 1057 c 0
 96 1168 182 1254 292 1254 c 0
 406 1254 491 1164 491 1058 c 0
293 1142 m 0
 244 1142 208 1102 208 1058 c 0
 208 1013 244 973 293 973 c 0
 342 973 378 1013 378 1058 c 0
 378 1102 342 1142 293 1142 c 0
EndSplineSet
EndChar
StartChar: uni0E30
Encoding: 3632 3632 171
Width: 1120
VWidth: 2045
Flags: W
HStem: 42 148<257.001 523.589> 359 112<253.9 401.875> 683 151<253.535 523.319> 1000 112<254.111 401.761>
VStem: 131 113<200.926 348.388 843.029 989.587> 413 114<201.109 346.547 845.202 989.656> 787 113<326.692 489 966.455 1130>
Fore
454 782 m 1
 617 796 787 931 787 1130 c 9
 900 1130 l 17
 900 884 697 683 448 683 c 0
 205 683 131 817 131 906 c 0
 131 1036 227 1112 328 1112 c 0
 436 1112 527 1026 527 908 c 0
 528 861 504 819 454 782 c 1
328 1000 m 0
 279 1000 244 963 244 917 c 0
 244 871 279 834 328 834 c 0
 376 834 413 871 413 917 c 0
 413 967 373 1000 328 1000 c 0
454 139 m 1
 617 154 787 290 787 489 c 9
 900 489 l 17
 900 246 700 42 448 42 c 0
 204 42 131 176 131 265 c 0
 131 395 226 471 328 471 c 0
 437 471 527 381 527 266 c 0
 528 219 504 177 454 139 c 1
328 359 m 0
 279 359 244 320 244 275 c 0
 244 226 283 190 328 190 c 0
 377 190 413 230 413 275 c 0
 413 325 372 359 328 359 c 0
EndSplineSet
EndChar
StartChar: uni0E31
Encoding: 3633 3633 172
Width: 0
VWidth: 2045
Flags: W
HStem: 1384 150<-645.841 -377.803> 1384 447 1701 111<-647.904 -499.004>
VStem: -771 113<1543.73 1690.54> -489 114<1545.05 1690.61> -116 113<1669.1 1831>
AnchorPoint: "AboveMark" -322 2040 basemark 0
AnchorPoint: "AboveBase" -44 1370 mark 0
Fore
-448 1482 m 1xbc
 -285 1494 -116 1631 -116 1831 c 9
 -3 1831 l 17x5c
 -3 1589 -200 1384 -454 1384 c 0
 -699 1384 -771 1518 -771 1607 c 0
 -771 1738 -675 1812 -574 1812 c 0
 -459 1812 -375 1719 -375 1607 c 0
 -374 1561 -399 1519 -448 1482 c 1xbc
-575 1701 m 0xbc
 -623 1701 -658 1662 -658 1618 c 0
 -658 1573 -625 1534 -575 1534 c 0
 -527 1534 -489 1572 -489 1618 c 0
 -489 1662 -526 1701 -575 1701 c 0xbc
EndSplineSet
EndChar
StartChar: uni0E32
Encoding: 3634 3634 173
Width: 1082
VWidth: 2045
Flags: W
HStem: 0 21G<837 950> 1142 112<364.706 687.671>
VStem: 102 113<834 988.02> 837 113<0 987.947>
Fore
526 1142 m 0
 346 1142 215 1001 215 834 c 9
 102 834 l 17
 102 1066 294 1254 526 1254 c 0
 755 1254 950 1068 950 832 c 10
 950 0 l 1
 837 0 l 1
 837 832 l 2
 837 1011 696 1142 526 1142 c 0
EndSplineSet
EndChar
StartChar: uni0E34
Encoding: 3636 3636 175
Width: 0
VWidth: 2045
Flags: MW
HStem: 1767 112<-842.006 -482.564>
AnchorPoint: "AboveMark" -226 2040 basemark 0
AnchorPoint: "AboveBase" -163 1370 mark 0
Fore
-322 1562 m 17
 -424 1743 -579 1767 -662 1767 c 256
 -781 1767 -888 1715 -960 1621 c 1
 -322 1562 l 17
-1136 1527 m 1
 -1081 1710 -907 1879 -662 1879 c 256
 -389 1879 -189 1671 -169 1435 c 9
 -1136 1527 l 1
EndSplineSet
EndChar
StartChar: uni0E35
Encoding: 3637 3637 176
Width: 0
VWidth: 2045
Flags: W
HStem: 1764 112<-842.006 -481.951>
VStem: -282 113<1701 1935>
AnchorPoint: "AboveBase" -159 1370 mark 0
AnchorPoint: "AboveMark" -226 2040 basemark 0
Fore
-662 1876 m 256
 -502 1876 -371 1806 -282 1701 c 9
 -282 1935 l 1
 -169 1935 l 9
 -169 1432 l 9
 -1136 1524 l 1
 -1081 1707 -907 1876 -662 1876 c 256
-322 1559 m 17
 -424 1740 -579 1764 -662 1764 c 256
 -781 1764 -888 1712 -960 1618 c 1
 -322 1559 l 17
EndSplineSet
EndChar
StartChar: uni0E36
Encoding: 3638 3638 177
Width: 0
VWidth: 2045
Flags: W
HStem: 1762 112<-842.006 -570.685> 1966 112<-444.702 -298.061>
VStem: -569 112<1866.75 1873.45 1870.1 1955.57> -287 113<1807.29 1954.33>
AnchorPoint: "AboveBase" -174 1370 mark 0
AnchorPoint: "AboveMark" -372 2040 basemark 0
Fore
-174 1881 m 0
 -174 1774 -251 1722 -287 1703 c 1
 -231 1643 -179 1547 -169 1430 c 9
 -1136 1522 l 1
 -1081 1705 -907 1874 -662 1874 c 256
 -629 1874 -598 1871 -569 1866 c 1
 -570 1870 -570 1875 -570 1881 c 0
 -570 1996 -478 2078 -372 2078 c 0
 -260 2078 -174 1990 -174 1881 c 0
-372 1966 m 0
 -421 1966 -457 1926 -457 1881 c 0
 -457 1837 -421 1797 -372 1797 c 0
 -323 1797 -287 1837 -287 1881 c 0
 -287 1926 -323 1966 -372 1966 c 0
-322 1557 m 17
 -424 1738 -579 1762 -662 1762 c 256
 -781 1762 -888 1710 -960 1616 c 1
 -322 1557 l 17
EndSplineSet
EndChar
StartChar: uni0E37
Encoding: 3639 3639 178
Width: 0
VWidth: 2045
Flags: W
HStem: 1764 112<-842.006 -544.511>
VStem: -508 113<1852 1935> -282 113<1701 1935>
AnchorPoint: "AboveMark" -339 2040 basemark 0
AnchorPoint: "AboveBase" -175 1370 mark 0
Fore
-1136 1524 m 1
 -1081 1707 -907 1876 -662 1876 c 256
 -608 1876 -557 1868 -508 1852 c 9
 -508 1935 l 1
 -395 1935 l 1
 -395 1799 l 17
 -351 1772 -313 1739 -282 1701 c 9
 -282 1935 l 1
 -169 1935 l 9
 -169 1432 l 9
 -1136 1524 l 1
-322 1559 m 17
 -424 1740 -579 1764 -662 1764 c 256
 -781 1764 -888 1712 -960 1618 c 1
 -322 1559 l 17
EndSplineSet
EndChar
StartChar: uni0E38
Encoding: 3640 3640 179
Width: 0
VWidth: 2045
Flags: W
HStem: -474 112<-434.695 -297.71> -196 112<-435.148 -287.176>
VStem: -558 113<-351.595 -207.116> -276 113<-351.942 -206.961>
AnchorPoint: "BelowBase" -159 -88 mark 0
Fore
-558 -279 m 0
 -558 -386 -471 -474 -360 -474 c 0
 -329 -474 -301 -468 -276 -456 c 1
 -276 -671 l 1
 -163 -671 l 1
 -163 -279 l 2
 -163 -170 -253 -84 -360 -84 c 0
 -475 -84 -558 -175 -558 -279 c 0
-361 -362 m 0
 -409 -362 -445 -325 -445 -280 c 0
 -445 -229 -405 -196 -361 -196 c 0
 -312 -196 -276 -235 -276 -280 c 0
 -276 -329 -317 -362 -361 -362 c 0
EndSplineSet
Substitution2: "Thai Sara U Mai Ek Reordering" uni0E48.low
Substitution2: "Thai Sara U Mai Tho Reordering" uni0E49.low
Substitution2: "Thai Sara U Mai Tri Reordering" uni0E4A.low
Substitution2: "Thai Sara U Mai Chattawa Reordering" uni0E4B.low
Substitution2: "Thai Sara U Thanthakhat Reordering" uni0E4C.low
Substitution2: "Thai Sara U Nikhahit Reordering" uni0E4D
EndChar
StartChar: uni0E39
Encoding: 3641 3641 180
Width: 0
VWidth: 2045
Flags: W
HStem: -474 112<-716.089 -577.552> -196 112<-716.372 -567.947>
VStem: -839 113<-351.183 -207.116> -556 113<-352.045 -206.961>
AnchorPoint: "BelowBase" -112 -85 mark 0
Fore
-839 -279 m 0
 -839 -384 -755 -474 -640 -474 c 0
 -610 -474 -582 -468 -556 -456 c 1
 -556 -669 l 1
 -161 -669 l 17
 -161 -84 l 1
 -274 -84 l 1
 -274 -557 l 25
 -443 -557 l 1
 -443 -279 l 2
 -443 -170 -534 -84 -642 -84 c 0
 -756 -84 -839 -175 -839 -279 c 0
-642 -362 m 0
 -690 -362 -726 -325 -726 -280 c 0
 -726 -229 -686 -196 -642 -196 c 0
 -593 -196 -556 -235 -556 -280 c 0
 -556 -325 -593 -362 -642 -362 c 0
EndSplineSet
Substitution2: "Thai Sara UU Mai Ek Reordering" uni0E48.low
Substitution2: "Thai Sara UU Mai Tho Reordering" uni0E49.low
Substitution2: "Thai Sara UU Mai Tri Reordering" uni0E4A.low
Substitution2: "Thai Sara UU Mai Chattawa Reordering" uni0E4B.low
Substitution2: "Thai Sara UU Thanthakhat Reordering" uni0E4C.low
Substitution2: "Thai Sara UU Nikhahit Reordering" uni0E4D
EndChar
StartChar: uni0E3A
Encoding: 3642 3642 181
Width: 0
VWidth: 2045
Flags: W
HStem: -359 277<-422.314 -217.182>
VStem: -460 280<-322.517 -118.976>
AnchorPoint: "BelowBase" -185 -86 mark 0
Fore
-320 -359 m 0
 -400 -359 -460 -296 -460 -220 c 0
 -460 -140 -395 -82 -320 -82 c 0
 -238 -82 -180 -147 -180 -220 c 0
 -180 -302 -245 -359 -320 -359 c 0
EndSplineSet
Substitution2: "Thai Phinthu Maitaikhu Reordering" uni0E47
Substitution2: "Thai Phinthu Mai Ek Reordering" uni0E48.low
Substitution2: "Thai Phinthu Mai Tho Reordering" uni0E49.low
Substitution2: "Thai Phinthu Mai Tri Reordering" uni0E4A.low
Substitution2: "Thai Phinthu Mai Chattawa Reordering" uni0E4B.low
Substitution2: "Thai Phinthu Thanthakhat Reordering" uni0E4C.low
Substitution2: "Thai Phinthu Nikhahit Reordering" uni0E4D
EndChar
StartChar: uni0E3F
Encoding: 3647 3647 182
Width: 1364
VWidth: 2045
Flags: W
HStem: 0 136<284 518 654 955.292> 692 127<284 518 654 918.385> 1314 136<284 518 654 923.704>
VStem: 156 128<136 692 819 1314> 518 136<-133 0 136 692 819 1314 1450 1595> 1040 137<922.027 1208.72> 1101 146<270.81 561.102>
Fore
973 772 m 1xfc
 1164 714 1247 570 1247 435 c 0xfa
 1247 234 1147 0 747 0 c 2
 654 0 l 25
 654 -133 l 1
 518 -133 l 1
 518 0 l 25
 156 0 l 1
 156 1450 l 1
 518 1450 l 25
 518 1595 l 9
 654 1595 l 17
 654 1450 l 25
 692 1450 l 2
 1122 1450 1177 1191 1177 1078 c 0
 1177 1000 1144 856 973 772 c 1xfc
721 819 m 2
 847 819 1040 866 1040 1056 c 0xfc
 1040 1211 952 1314 698 1314 c 2
 654 1314 l 17
 654 819 l 25
 721 819 l 2
1101 420 m 0xfa
 1101 609 917 692 744 692 c 2
 654 692 l 17
 654 136 l 25
 768 136 l 2
 1058 136 1101 334 1101 420 c 0xfa
518 136 m 25
 518 692 l 9
 284 692 l 1
 284 136 l 1
 518 136 l 25
518 819 m 25
 518 1314 l 9
 284 1314 l 1
 284 819 l 1
 518 819 l 25
EndSplineSet
EndChar
StartChar: uni0E40
Encoding: 3648 3648 183
Width: 629
VWidth: 2045
Flags: W
HStem: 0 112<288.019 436.111> 279 112<299.352 436.226>
VStem: 165 113<124.234 269.588 373 1254> 447 113<123.164 268.104>
Fore
361 112 m 0
 405 112 447 145 447 195 c 0
 447 240 409 279 361 279 c 0
 316 279 278 245 278 195 c 0
 278 151 311 112 361 112 c 0
362 0 m 0
 251 0 165 88 165 196 c 10
 165 1254 l 9
 278 1254 l 17
 278 373 l 17
 305 385 333 391 363 391 c 0
 473 391 560 304 560 196 c 0
 560 88 473 0 362 0 c 0
EndSplineSet
EndChar
StartChar: uni0E41
Encoding: 3649 3649 184
Width: 1173
VWidth: 2045
Flags: W
HStem: 0 112<288.019 436.111 851.954 1000.11> 279 112<299.352 436.226 863.259 1000.23>
VStem: 165 113<124.234 269.588 373 1254> 447 113<123.164 268.104> 729 113<124.234 269.387 373 1254> 1011 113<123.164 268.104>
Fore
925 112 m 0
 969 112 1011 145 1011 195 c 0
 1011 240 973 279 925 279 c 0
 879 279 842 244 842 195 c 0
 842 146 879 112 925 112 c 0
926 0 m 0
 815 0 729 88 729 196 c 10
 729 1254 l 9
 842 1254 l 17
 842 373 l 17
 869 385 897 391 927 391 c 0
 1037 391 1124 304 1124 196 c 0
 1124 88 1037 0 926 0 c 0
361 112 m 0
 405 112 447 145 447 195 c 0
 447 240 409 279 361 279 c 0
 316 279 278 245 278 195 c 0
 278 151 311 112 361 112 c 0
362 0 m 0
 251 0 165 88 165 196 c 10
 165 1254 l 9
 278 1254 l 17
 278 373 l 17
 305 385 333 391 363 391 c 0
 473 391 560 304 560 196 c 0
 560 88 473 0 362 0 c 0
EndSplineSet
EndChar
StartChar: uni0E42
Encoding: 3650 3650 185
Width: 757
VWidth: 2045
Flags: W
HStem: 0 112<457.484 605.558> 279 112<469.19 605.622> 1619 112<-40 306.005> 1927 112<93.2118 414.075>
VStem: 334 113<124.234 268.581 373 1593.47> 552 110<1704 1857.2> 616 113<122.642 268.301>
Fore
532 112 m 0xfa
 581 112 616 149 616 195 c 0
 616 244 577 279 532 279 c 0
 483 279 447 240 447 195 c 0
 447 145 487 112 532 112 c 0xfa
532 0 m 0
 420 0 334 88 334 196 c 2
 334 1507 l 10
 334 1566 285 1619 221 1619 c 2
 -172 1619 l 1
 -172 1851 18 2039 252 2039 c 0
 463 2039 611 1895 662 1728 c 9
 552 1704 l 17xfc
 527 1791 432 1927 252 1927 c 0
 77 1927 -13 1799 -40 1731 c 9
 221 1731 l 2
 351 1728 447 1630 447 1507 c 18
 447 373 l 1
 472 385 500 391 531 391 c 0
 643 391 729 303 729 196 c 0
 729 88 642 0 532 0 c 0
EndSplineSet
EndChar
StartChar: uni0E43
Encoding: 3651 3651 186
Width: 867
VWidth: 2045
Flags: W
HStem: 0 112<533.484 681.558> 279 112<545.19 681.622> 1501 112<110.123 254.754> 1781 112<136.853 254.045> 1924 112<163.856 355.186>
VStem: -41 139<1623.09 1770.55> 265 113<1623.94 1770.58> 410 113<124.234 268.581 373 1865.98> 692 113<122.642 268.301>
Fore
410 1755 m 2
 410 1851 334 1924 241 1924 c 0
 200 1924 165 1912 136 1888 c 1
 151 1891 166 1893 181 1893 c 0
 289 1893 378 1807 378 1697 c 0
 378 1589 292 1501 181 1501 c 0
 99 1501 -41 1552 -41 1755 c 0
 -41 1911 84 2036 241 2036 c 0
 394 2036 523 1914 523 1755 c 2
 523 373 l 1
 548 385 576 391 607 391 c 0
 719 391 805 303 805 196 c 0
 805 88 718 0 608 0 c 0
 496 0 410 88 410 196 c 2
 410 1755 l 2
181 1781 m 0
 133 1781 98 1742 98 1698 c 0
 98 1653 133 1613 181 1613 c 0
 225 1613 265 1648 265 1698 c 0
 265 1742 229 1781 181 1781 c 0
608 112 m 0
 657 112 692 149 692 195 c 0
 692 244 653 279 608 279 c 0
 559 279 523 240 523 195 c 0
 523 145 563 112 608 112 c 0
EndSplineSet
EndChar
StartChar: uni0E44
Encoding: 3652 3652 187
Width: 811
VWidth: 2045
Flags: W
HStem: 0 112<479.954 628.111> 279 112<491.259 628.226>
VStem: -46 113<1674 2121.04> 357 113<124.234 269.387 373 1868> 639 113<123.164 268.104>
Fore
554 0 m 0
 443 0 357 88 357 196 c 2
 357 1868 l 17
 76 1521 l 25
 -46 1521 l 25
 -46 1997 l 2
 -46 2051 -65 2097 -104 2136 c 9
 -24 2214 l 17
 37 2154 67 2082 67 1997 c 2
 67 1674 l 9
 357 2032 l 9
 470 2032 l 25
 470 373 l 1
 497 385 525 391 555 391 c 0
 665 391 752 304 752 196 c 0
 752 88 665 0 554 0 c 0
553 112 m 0
 597 112 639 145 639 195 c 0
 639 240 601 279 553 279 c 0
 507 279 470 244 470 195 c 0
 470 146 507 112 553 112 c 0
EndSplineSet
EndChar
StartChar: uni0E45
Encoding: 3653 3653 188
Width: 1082
VWidth: 2045
Flags: W
HStem: 1142 112<238.074 554.798>
VStem: -27 113<834 987.608> 707 113<832 987.122>
Fore
396 1142 m 0
 568 1142 707 1006 707 832 c 10
 707 -548 l 9
 820 -548 l 25
 820 832 l 18
 820 1066 632 1254 396 1254 c 0
 160 1254 -27 1065 -27 834 c 9
 86 834 l 17
 86 1009 227 1142 396 1142 c 0
EndSplineSet
EndChar
StartChar: uni0E46
Encoding: 3654 3654 189
Width: 1173
VWidth: 2045
Flags: MW
HStem: 618 113<295.058 443.659> 899 110<295.391 442.646>
VStem: 123 162<741.803 981.757> 454 113<741.142 888.42> 846 113<-548 1068.68>
Fore
370 618 m 0
 214 618 123 738 123 912 c 0
 123 1108 288 1236 431 1254 c 1
 567 1171 l 1
 701 1254 l 1
 755 1246 959 1185 959 908 c 2
 959 -548 l 1
 846 -548 l 1
 846 906 l 2
 846 1025 814 1097 704 1124 c 1
 567 1039 l 1
 418 1130 l 17
 349 1120 249 1067 235 946 c 1
 268 987 313 1009 370 1009 c 0
 488 1009 567 916 567 814 c 0
 567 706 480 618 370 618 c 0
370 899 m 0
 318 899 285 857 285 814 c 0
 285 764 325 731 370 731 c 0
 420 731 454 768 454 814 c 0
 454 859 421 899 370 899 c 0
EndSplineSet
EndChar
StartChar: uni0E47
Encoding: 3655 3655 190
Width: 0
VWidth: 2045
Flags: W
HStem: 1398 86<-475.33 -366.875> 1502 110<-748.102 -650.581> 1596 83<-474.486 -365.425> 1761 101<-868.251 -626.004 -636.984 -615.023 -626.004 -380.941>
VStem: -1024 112<1515.85 1716.63> -561 84<1510.65 1594.32> -364 83<1485.37 1594.32>
AnchorPoint: "AboveBase" -281 1370 mark 0
Fore
-662 1761 m 0xde
 -625 1761 -606 1759 -568 1759 c 0
 -431 1759 -340 1772 -238 1905 c 1
 -314 1978 l 1
 -393 1865 -454 1860 -582 1860 c 0
 -625 1860 -669 1862 -691 1862 c 0
 -963 1862 -1024 1717 -1024 1621 c 0
 -1024 1443 -886 1401 -778 1398 c 1
 -781 1420 -778 1443 -770 1466 c 0
 -763 1490 -745 1502 -718 1502 c 0xde
 -633 1502 -613 1398 -436 1398 c 16
 -325 1398 -281 1478 -281 1540 c 0
 -281 1616 -342 1679 -421 1679 c 0xbe
 -500 1679 -561 1616 -561 1540 c 0
 -561 1528 -561 1518 -560 1510 c 1
 -620 1516 -665 1610 -744 1612 c 16
 -815 1615 -845 1546 -845 1504 c 1
 -891 1518 -912 1559 -912 1621 c 0
 -912 1737 -805 1761 -662 1761 c 0xde
-420 1484 m 0
 -454 1484 -477 1509 -477 1540 c 0
 -477 1571 -454 1596 -420 1596 c 0xbe
 -387 1596 -364 1571 -364 1540 c 0
 -364 1509 -387 1484 -420 1484 c 0
EndSplineSet
Substitution2: "Thai Mark High Variant" uni0E47.high
Substitution2: "Thai Phinthu Maitaikhu Reordering" uni0E3A
EndChar
StartChar: uni0E48
Encoding: 3656 3656 191
Width: 0
VWidth: 2045
Flags: W
VStem: -454 113<2117 2422 2117 2422 2117 2117>
AnchorPoint: "AboveMark" -398 2040 mark 0
Fore
-454 2422 m 25
 -341 2422 l 1
 -341 2117 l 1
 -454 2117 l 1
 -454 2422 l 25
EndSplineSet
MultipleSubs2: "Thai Tone Nikhahit Attachment" uni0E4D uni0E48
Substitution2: "Thai Tone Low Variant" uni0E48.low
Substitution2: "Thai Sara U Mai Ek Reordering" uni0E38
Substitution2: "Thai Sara UU Mai Ek Reordering" uni0E39
Substitution2: "Thai Phinthu Mai Ek Reordering" uni0E3A
EndChar
StartChar: uni0E49
Encoding: 3657 3657 192
Width: 0
VWidth: 2045
Flags: MW
HStem: 2067 89<-509 -350.601> 2067 391 2212 57<-586.922 -555> 2359 68<-585.899 -497.824>
VStem: -654 67<2280.35 2357.95> -497 68<2284.54 2348.3> -204 91<2301.75 2458>
AnchorPoint: "AboveMark" -429 2040 mark 0
Back
-32 2546 m 273
 -32 2286 -240 2057 -527 2057 c 10
 -640 2057 l 1
 -640 2168 l 1
 -585 2238 l 17
 -634 2238 -709 2276 -709 2366 c 0
 -709 2448 -645 2507 -568 2507 c 0
 -486 2507 -427 2443 -427 2366 c 0
 -427 2332 -434 2305 -448 2285 c 2
 -527 2168 l 1
 -316 2168 -146 2338 -146 2546 c 265
 -32 2546 l 273
-568 2422 m 0
 -601 2422 -625 2396 -625 2366 c 0
 -625 2337 -601 2310 -568 2310 c 0
 -535 2310 -512 2337 -512 2366 c 0
 -512 2396 -534 2422 -568 2422 c 0
EndSplineSet
Fore
-113 2458 m 273
 -113 2250 -279 2067 -509 2067 c 10
 -599 2067 l 1
 -599 2156 l 1
 -555 2212 l 17
 -594 2212 -654 2242 -654 2314 c 0
 -654 2380 -603 2427 -541 2427 c 0
 -476 2427 -429 2376 -429 2314 c 0
 -429 2287 -434 2265 -445 2249 c 2
 -509 2156 l 1
 -340 2156 -204 2292 -204 2458 c 265
 -113 2458 l 273
-541 2359 m 0
 -568 2359 -587 2338 -587 2314 c 0
 -587 2291 -568 2269 -541 2269 c 0
 -515 2269 -497 2291 -497 2314 c 0
 -497 2338 -514 2359 -541 2359 c 0
EndSplineSet
MultipleSubs2: "Thai Tone Nikhahit Attachment" uni0E4D uni0E49
Substitution2: "Thai Tone Low Variant" uni0E49.low
Substitution2: "Thai Sara U Mai Tho Reordering" uni0E38
Substitution2: "Thai Sara UU Mai Tho Reordering" uni0E39
Substitution2: "Thai Phinthu Mai Tho Reordering" uni0E3A
EndChar
StartChar: uni0E4A
Encoding: 3658 3658 193
Width: 0
VWidth: 2045
Flags: W
HStem: 2067 67<-647.336 -569.921> 2224 68<-638.844 -569.698> 2335 90<-666.695 -520.669 -409.39 -288.939>
VStem: -766 84<2246 2319.3> -559 68<2136.19 2221.47> -276 91<2212.5 2320.57> -61 91<2302.85 2458>
AnchorPoint: "AboveMark" -458 2040 mark 0
Back
-345 2178 m 5,0,-1
-345 2514 m 12,1,-1
 -213 2514 -119 2413 -119 2290 c 20,4,-1
 -119 2276 -120 2262 -122 2248 c 5,7,-1
 -34 2313 36 2422 36 2556 c 269,10,-1
 150 2556 l 277,11,-1
 150 2272 -82 2067 -345 2067 c 13,14,-1
 -345 2178 l 21,15,-1
 -278 2191 -232 2223 -232 2290 c 28,18,-1
 -232 2350 -282 2402 -345 2402 c 28,21,-1
 -385 2402 -417 2384 -446 2343 c 5,24,-1
 -519 2343 l 5,25,-1
 -530 2361 -560 2402 -622 2402 c 28,28,-1
 -694 2402 -740 2335 -740 2290 c 5,31,-1
 -723 2329 -687 2348 -633 2348 c 4,34,-1
 -561 2348 -500 2289 -501 2206 c 4,37,-1
 -501 2126 -565 2067 -642 2067 c 4,40,-1
 -732 2067 -845 2117 -845 2290 c 28,43,-1
 -845 2413 -751 2514 -619 2514 c 20,46,-1
 -566 2514 -521 2499 -482 2468 c 5,49,-1
 -443 2499 -398 2514 -345 2514 c 12,1,-1
-642 2263 m 4,52,-1
 -672 2263 -699 2240 -699 2207 c 4,55,-1
 -699 2176 -675 2151 -642 2151 c 4,58,-1
 -614 2151 -586 2173 -586 2207 c 4,61,-1
 -586 2240 -612 2263 -642 2263 c 4,52,-1
EndSplineSet
Fore
-366 2156 m 1,0,-1
-366 2425 m 8,1,-1
 -260 2425 -185 2344 -185 2246 c 16,4,-1
 -185 2234 -186 2223 -188 2212 c 1,7,-1
 -117 2264 -61 2351 -61 2458 c 265,10,-1
 30 2458 l 273,11,-1
 30 2231 -156 2067 -366 2067 c 9,14,-1
 -366 2156 l 17,15,-1
 -312 2166 -276 2192 -276 2246 c 24,18,-1
 -276 2294 -316 2335 -366 2335 c 24,21,-1
 -398 2335 -424 2321 -447 2288 c 1,24,-1
 -505 2288 l 1,25,-1
 -514 2302 -538 2335 -588 2335 c 24,28,-1
 -645 2335 -682 2282 -682 2246 c 1,31,-1
 -668 2277 -640 2292 -596 2292 c 0,34,-1
 -539 2292 -490 2245 -491 2178 c 0,37,-1
 -491 2114 -542 2067 -604 2067 c 0,40,-1
 -676 2067 -766 2107 -766 2246 c 24,43,-1
 -766 2344 -691 2425 -585 2425 c 16,46,-1
 -543 2425 -507 2413 -476 2388 c 1,49,-1
 -444 2413 -408 2425 -366 2425 c 8,1,-1
-604 2224 m 0,52,-1
 -628 2224 -649 2206 -649 2179 c 0,55,-1
 -649 2154 -630 2134 -604 2134 c 0,58,-1
 -581 2134 -559 2152 -559 2179 c 0,61,-1
 -559 2206 -580 2224 -604 2224 c 0,52,-1
EndSplineSet
MultipleSubs2: "Thai Tone Nikhahit Attachment" uni0E4D uni0E4A
Substitution2: "Thai Tone Low Variant" uni0E4A.low
Substitution2: "Thai Sara U Mai Tri Reordering" uni0E38
Substitution2: "Thai Sara UU Mai Tri Reordering" uni0E39
Substitution2: "Thai Phinthu Mai Tri Reordering" uni0E3A
EndChar
StartChar: uni0E4B
Encoding: 3659 3659 194
Width: 0
VWidth: 2045
Flags: MW
HStem: 2220 111<-559 -450 -338 -230>
VStem: -450 112<2097 2220 2331 2455 2097 2455 2097 2097>
AnchorPoint: "AboveMark" -392 2040 mark 0
Back
-186 2246 m 1
 -335 2246 l 1
 -335 2097 l 1
 -448 2097 l 1
 -448 2246 l 1
 -598 2246 l 1
 -598 2358 l 1
 -448 2358 l 1
 -448 2508 l 1
 -335 2508 l 1
 -335 2358 l 1
 -186 2358 l 1
 -186 2246 l 1
EndSplineSet
Fore
-230 2220 m 1
 -338 2220 l 1
 -338 2097 l 1
 -450 2097 l 1
 -450 2220 l 1
 -559 2220 l 1
 -559 2331 l 1
 -450 2331 l 1
 -450 2455 l 1
 -338 2455 l 1
 -338 2331 l 1
 -230 2331 l 1
 -230 2220 l 1
EndSplineSet
MultipleSubs2: "Thai Tone Nikhahit Attachment" uni0E4D uni0E4B
Substitution2: "Thai Tone Low Variant" uni0E4B.low
Substitution2: "Thai Sara U Mai Chattawa Reordering" uni0E38
Substitution2: "Thai Sara UU Mai Chattawa Reordering" uni0E39
Substitution2: "Thai Phinthu Mai Chattawa Reordering" uni0E3A
EndChar
StartChar: uni0E4C
Encoding: 3660 3660 195
Width: 0
VWidth: 2045
Flags: W
HStem: 2079 89<-566.13 -438.654> 2302 88<-565.234 -437.964 -360 -175.4>
VStem: -661 90<2173.42 2296.66> -434 90<2173.42 2288.08>
AnchorPoint: "AboveMark" -387 2040 mark 0
Back
-729 2274 m 0
 -729 2381 -643 2468 -531 2468 c 10
 -180 2468 l 2
 -125 2468 -79 2487 -40 2526 c 9
 40 2447 l 17
 -21 2387 -95 2357 -180 2357 c 2
 -352 2357 l 17
 -339 2332 -332 2304 -332 2274 c 0
 -332 2168 -418 2079 -530 2079 c 0
 -644 2079 -729 2168 -729 2274 c 0
-530 2357 m 0
 -580 2357 -616 2319 -616 2274 c 0
 -616 2228 -580 2190 -530 2190 c 0
 -481 2190 -445 2228 -445 2274 c 0
 -445 2319 -481 2357 -530 2357 c 0
EndSplineSet
Fore
-661 2235 m 0
 -661 2321 -592 2390 -503 2390 c 10
 -222 2390 l 2
 -178 2390 -141 2406 -110 2437 c 9
 -46 2374 l 17
 -95 2326 -154 2302 -222 2302 c 2
 -360 2302 l 17
 -349 2282 -344 2259 -344 2235 c 0
 -344 2150 -412 2079 -502 2079 c 0
 -593 2079 -661 2150 -661 2235 c 0
-502 2302 m 0
 -542 2302 -571 2271 -571 2235 c 0
 -571 2198 -542 2168 -502 2168 c 0
 -463 2168 -434 2198 -434 2235 c 0
 -434 2271 -463 2302 -502 2302 c 0
EndSplineSet
MultipleSubs2: "Thai Tone Nikhahit Attachment" uni0E4D uni0E4C
Substitution2: "Thai Tone Low Variant" uni0E4C.low
Substitution2: "Thai Sara U Thanthakhat Reordering" uni0E38
Substitution2: "Thai Sara UU Thanthakhat Reordering" uni0E39
Substitution2: "Thai Phinthu Thanthakhat Reordering" uni0E3A
EndChar
StartChar: uni0E4D
Encoding: 3661 3661 196
Width: 0
VWidth: 2045
Flags: W
HStem: 1401 112<-468.729 -319.725> 1681 112<-467.097 -318.791>
VStem: -592 113<1524.58 1670.18> -308 113<1523.59 1669.06>
AnchorPoint: "AboveMark" -394 2040 basemark 0
AnchorPoint: "AboveBase" -195 1370 mark 0
Back
-394 1359 m 4
 -508 1359 -592 1449 -592 1555 c 4
 -592 1666 -502 1751 -394 1751 c 4
 -279 1751 -195 1661 -195 1555 c 4
 -195 1444 -285 1359 -394 1359 c 4
-393 1639 m 4
 -443 1639 -479 1599 -479 1554 c 4
 -479 1504 -437 1471 -393 1471 c 4
 -345 1471 -308 1509 -308 1554 c 4
 -308 1603 -348 1639 -393 1639 c 4
EndSplineSet
Fore
-394 1401 m 0
 -508 1401 -592 1491 -592 1597 c 0
 -592 1708 -502 1793 -394 1793 c 0
 -279 1793 -195 1703 -195 1597 c 0
 -195 1486 -285 1401 -394 1401 c 0
-393 1681 m 0
 -443 1681 -479 1641 -479 1596 c 0
 -479 1546 -437 1513 -393 1513 c 0
 -345 1513 -308 1551 -308 1596 c 0
 -308 1645 -348 1681 -393 1681 c 0
EndSplineSet
Substitution2: "Thai Mark High Variant" uni0E4D.high
Substitution2: "Thai Sara U Nikhahit Reordering" uni0E38
Substitution2: "Thai Sara UU Nikhahit Reordering" uni0E39
Substitution2: "Thai Phinthu Nikhahit Reordering" uni0E3A
EndChar
StartChar: uni0E4E
Encoding: 3662 3662 197
Width: 0
VWidth: 2045
Flags: W
HStem: 1420 112<-565.047 -477> 1756 112<-565.583 -462.018> 1993 112<-326.234 -150.218>
VStem: -703 113<1555.44 1731.26> -463 113<1866 1967.89> -125 113<1881 1966.62>
AnchorPoint: "AboveBase" -140 1370 mark 0
Back
-238 1849 m 4
 -300 1849 -350 1799 -350 1736 c 4
 -350 1705 -339 1679 -317 1658 c 5
 -317 1578 l 5
 -396 1578 l 5
 -419 1601 -446 1612 -476 1612 c 4
 -539 1612 -590 1561 -590 1499 c 4
 -590 1437 -539 1388 -477 1388 c 5
 -477 1276 l 5
 -602 1276 -703 1374 -703 1499 c 4
 -703 1624 -603 1723 -477 1724 c 4
 -472 1724 -468 1723 -463 1722 c 5
 -463 1737 l 6
 -463 1860 -365 1961 -237 1961 c 4
 -107 1961 -12 1857 -12 1737 c 5
 -125 1737 l 5
 -125 1796 -173 1849 -238 1849 c 4
EndSplineSet
Fore
-238 1993 m 0
 -300 1993 -350 1943 -350 1880 c 0
 -350 1849 -339 1823 -317 1802 c 1
 -317 1722 l 1
 -396 1722 l 1
 -419 1745 -446 1756 -476 1756 c 0
 -539 1756 -590 1705 -590 1643 c 0
 -590 1581 -539 1532 -477 1532 c 1
 -477 1420 l 1
 -602 1420 -703 1518 -703 1643 c 0
 -703 1768 -603 1867 -477 1868 c 0
 -472 1868 -468 1867 -463 1866 c 1
 -463 1881 l 2
 -463 2004 -365 2105 -237 2105 c 0
 -107 2105 -12 2001 -12 1881 c 1
 -125 1881 l 1
 -125 1940 -173 1993 -238 1993 c 0
EndSplineSet
EndChar
StartChar: uni0E4F
Encoding: 3663 3663 198
Width: 977
VWidth: 2045
Flags: W
HStem: 0 112<320.109 656.32> 225 112<397.432 578.083> 560 112<397.706 578.147> 782 112<319.68 656.097>
VStem: 37 110<281.825 611.747> 262 113<361.341 535.678> 601 113<361.074 535.41> 829 110<282.253 612.381>
Fore
488 560 m 0
 426 560 375 511 375 448 c 0
 375 385 427 337 488 337 c 0
 550 337 601 386 601 448 c 0
 601 512 549 560 488 560 c 0
488 225 m 0
 356 225 262 328 262 448 c 0
 262 571 358 672 488 672 c 0
 618 672 714 569 714 448 c 0
 714 326 617 225 488 225 c 0
488 782 m 0
 298 782 147 633 147 447 c 0
 147 260 299 112 488 112 c 0
 678 112 829 261 829 447 c 0
 829 634 677 782 488 782 c 0
488 0 m 0
 238 0 37 203 37 447 c 0
 37 690 237 894 488 894 c 0
 739 894 939 692 939 447 c 0
 939 204 739 0 488 0 c 0
EndSplineSet
EndChar
StartChar: uni0E50
Encoding: 3664 3664 199
Width: 1267
VWidth: 2045
Flags: W
HStem: 0 112<441.607 822.774> 782 112<442.226 823.186>
VStem: 122 116<296.559 597.841> 1028 114<295.998 597.802>
Fore
633 782 m 0
 407 782 238 628 238 447 c 0
 238 266 407 112 633 112 c 0
 859 112 1028 268 1028 447 c 0
 1028 626 859 782 633 782 c 0
632 0 m 0
 343 0 122 209 122 447 c 0
 122 687 346 894 632 894 c 0
 920 894 1142 689 1142 447 c 0
 1142 204 918 0 632 0 c 0
EndSplineSet
EndChar
StartChar: uni0E51
Encoding: 3665 3665 200
Width: 1318
VWidth: 2045
Flags: W
HStem: 0 102<377.368 570.376> 384 112<571.161 718.14> 782 112<463.409 842.629>
VStem: 124 114<243.521 569.374> 447 113<229.183 373.795> 729 113<230.873 373.619> 1081 110<164.998 548.9>
Fore
644 496 m 0
 744 496 842 425 842 277 c 0
 842 146 695 0 520 0 c 0
 267 0 124 183 124 414 c 0
 124 621 320 894 654 894 c 0
 899 894 1191 723 1191 364 c 0
 1191 63 969 -83 827 -137 c 1
 793 -50 l 1
 954 10 1081 158 1081 356 c 0
 1081 595 901 782 654 782 c 0
 411 782 238 594 238 418 c 0
 238 176 420 102 519 102 c 0
 550 102 572 109 584 121 c 1
 552 124 447 170 447 301 c 0
 447 410 537 496 644 496 c 0
644 384 m 0
 596 384 560 345 560 300 c 0
 560 255 596 218 644 218 c 0
 688 218 729 251 729 300 c 0
 729 345 693 384 644 384 c 0
EndSplineSet
EndChar
StartChar: uni0E52
Encoding: 3666 3666 201
Width: 1519
VWidth: 2045
Flags: W
HStem: 0 112<299 1190.25> 237 112<560.054 708.519> 517 109<558.88 707.933> 779 115<591.09 850.808 1021.24 1235.07> 1205 112<72 159.891>
VStem: 184 113<112 1181.58> 406 90<553 684.999> 720 112<360.236 504.656> 884 113<547 746.588> 1308 113<250.828 698.375>
Fore
1128 782 m 16
 1023 782 997 719 997 637 c 2
 997 547 l 1
 884 547 l 1
 884 637 l 2
 884 722 844 779 720 779 c 0
 574 779 495 653 496 553 c 1
 531 601 577 626 634 626 c 0
 753 626 832 537 832 433 c 0
 832 324 747 237 634 237 c 0
 587 237 406 263 406 533 c 0
 406 780 589 894 732 894 c 0
 816 894 886 861 942 794 c 1
 1001 861 1063 894 1128 894 c 24
 1245 894 1421 814 1421 453 c 0
 1421 198 1268 0 1082 0 c 10
 184 0 l 1
 184 1094 l 10
 184 1162 132 1205 72 1205 c 9
 72 1317 l 17
 197 1317 297 1219 297 1094 c 18
 299 112 l 1
 1084 112 l 18
 1171 112 1308 197 1308 483 c 0
 1308 740 1200 782 1128 782 c 16
634 517 m 0
 585 517 549 478 549 434 c 0
 549 389 585 349 634 349 c 0
 683 349 720 389 720 434 c 0
 720 478 683 517 634 517 c 0
EndSplineSet
EndChar
StartChar: uni0E53
Encoding: 3667 3667 202
Width: 1519
VWidth: 2045
Flags: W
HStem: 0 112<344.298 492.54> 279 112<344.08 492.334> 782 112<359.655 671.778 929.183 1179.94>
VStem: 113 113<323.507 639.507> 503 113<122.642 268.383> 744 113<586 709.441> 1253 113<586 705.422>
Fore
418 391 m 0
 317 391 266 325 250 296 c 1
 234 324 226 370 226 435 c 0
 226 612 290 782 547 782 c 16
 653 782 744 700 744 586 c 2
 744 0 l 1
 857 0 l 1
 857 586 l 2
 857 701 949 782 1055 782 c 0
 1168 782 1253 694 1253 586 c 2
 1253 0 l 1
 1366 0 l 1
 1366 586 l 2
 1366 755 1230 894 1055 894 c 0
 892 894 821 788 802 763 c 1
 779 789 707 894 547 894 c 8
 266 894 113 712 113 440 c 0
 113 106 296 0 418 0 c 0
 530 0 616 88 616 196 c 0
 616 303 529 391 418 391 c 0
419 112 m 0
 371 112 334 149 334 195 c 0
 334 245 375 279 419 279 c 0
 468 279 503 240 503 195 c 0
 503 149 468 112 419 112 c 0
EndSplineSet
EndChar
StartChar: uni0E54
Encoding: 3668 3668 203
Width: 1519
VWidth: 2045
Flags: W
HStem: 0 112<395.663 765 884.143 1332> 275 112<768.332 893.029> 553 112<746.264 893.648> 782 112<392.063 1290>
VStem: 110 113<283.381 609.638> 592 143<328.583 542.587> 904 113<397.527 541.707> 1366 113<971 1091>
Fore
1168 894 m 2
 1281 894 1366 984 1366 1091 c 9
 1479 1091 l 17
 1479 921 1342 782 1168 782 c 2
 564 782 l 2
 367 782 223 630 223 447 c 0
 223 252 380 112 561 112 c 2
 765 112 l 17
 647 193 592 333 592 443 c 0
 592 560 682 665 820 665 c 0
 931 665 1017 576 1017 470 c 0
 1017 361 928 275 820 275 c 0
 799 275 781 276 768 279 c 1
 779 245 810 209 863 170 c 0
 916 131 996 112 1104 112 c 10
 1332 112 l 1
 1332 0 l 1
 561 0 l 2
 312 0 110 202 110 447 c 0
 110 683 300 894 564 894 c 2
 1168 894 l 2
819 553 m 0
 771 553 735 514 735 470 c 0
 735 424 771 387 819 387 c 0
 863 387 904 420 904 470 c 0
 904 514 868 553 819 553 c 0
EndSplineSet
EndChar
StartChar: uni0E55
Encoding: 3669 3669 204
Width: 1519
VWidth: 2045
Flags: W
HStem: 0 112<395.663 765 884.143 1332> 275 112<768.332 893.029> 553 112<746.264 893.648> 782 135<596.815 745.185> 782 112<837 1290> 1084 112<595.665 746.092>
VStem: 110 113<283.381 612.356> 473 113<940.045 1072.65> 592 143<328.583 542.587> 756 113<940.022 1072.44> 904 113<397.527 541.707> 1366 113<971 1091>
Fore
670 1196 m 0xeff0
 785 1196 869 1106 869 1000 c 0
 869 961 858 925 837 894 c 9
 1168 894 l 2
 1281 894 1366 984 1366 1091 c 9
 1479 1091 l 17
 1479 921 1342 782 1168 782 c 2
 564 782 l 2
 367 782 223 630 223 447 c 0
 223 252 380 112 561 112 c 2
 765 112 l 17
 647 193 592 333 592 443 c 0
 592 560 682 665 820 665 c 0
 931 665 1017 576 1017 470 c 0
 1017 361 928 275 820 275 c 0
 799 275 781 276 768 279 c 1
 779 245 810 209 863 170 c 0
 916 131 996 112 1104 112 c 10
 1332 112 l 1
 1332 0 l 1
 561 0 l 2
 312 0 110 202 110 447 c 0
 110 681 293 868 506 891 c 1
 484 923 473 959 473 1000 c 0
 473 1107 558 1196 670 1196 c 0xeff0
671 1084 m 0
 627 1084 586 1051 586 1002 c 0
 586 957 622 917 671 917 c 0xf7f0
 720 917 756 957 756 1002 c 0
 756 1051 715 1084 671 1084 c 0
819 553 m 0
 771 553 735 514 735 470 c 0
 735 424 771 387 819 387 c 0
 863 387 904 420 904 470 c 0
 904 514 868 553 819 553 c 0
EndSplineSet
EndChar
StartChar: uni0E56
Encoding: 3670 3670 205
Width: 1412
VWidth: 2045
Flags: W
HStem: 0 112<494.352 873.043> 396 112<326.927 477.596> 782 112<396.248 937.32>
VStem: 175 113<807 1291.51> 196 121<240.679 384.184> 488 113<238.678 384.362> 1137 116<340.737 612.465>
Fore
1137 474 m 0xee
 1137 655 941 782 742 782 c 0
 386.658 782 246.896 677.834 175 622 c 9
 175 1168 l 2
 175 1221 156 1268 117 1307 c 9
 197 1385 l 17
 258 1324 288 1251 288 1168 c 2
 288 807 l 1xf6
 369 850 475 894 730 894 c 0
 972 894 1253 743 1253 474 c 0
 1253 285 1040 0 607 0 c 0
 267.174 0 196 186.962 196 291 c 0
 196 440 311 508 402 508 c 0
 517 508 601 418 601 312 c 0
 601 201 518 146 470 127 c 1
 489 115 631 112 647 112 c 0
 996 112 1137 364 1137 474 c 0xee
402 396 m 0
 353 396 317 358 317 312 c 0xee
 317 267 353 228 402 228 c 0
 452 228 488 267 488 312 c 0
 488 358 452 396 402 396 c 0
EndSplineSet
EndChar
StartChar: uni0E57
Encoding: 3671 3671 206
Width: 1385
VWidth: 2045
Flags: W
HStem: 0 112<299.471 446.45 1009 1107.75> 279 112<298.195 446.656> 782 112<255.944 462.146 651.617 856.34>
VStem: 82 112<311.908 715.576> 457 113<122.642 268.476> 500 113<476 744.791> 896 113<112 743.702> 1150 113<153.141 1089.55>
Fore
1009 112 m 17xfb
 1088 112 1150 177 1150 251 c 2
 1150 1033 l 2
 1150 1123 1180 1196 1241 1251 c 9
 1320 1172 l 17
 1281 1135 1263 1089 1263 1033 c 2
 1263 251 l 18
 1263 112 1149 0 1009 0 c 2
 896 0 l 1
 896 643 l 2
 896 720 836 782 754 782 c 0
 673 782 613 719 613 643 c 2
 613 476 l 1
 500 476 l 1
 500 643 l 2xf7
 500 723 436 782 360 782 c 0
 210 782 194 616 194 475 c 0
 194 398 200 323 204 296 c 1
 220 325 271 391 372 391 c 0
 484 391 570 303 570 196 c 0
 570 88 483 0 372 0 c 0
 169 0 82 223 82 445 c 0
 82 673 130 894 360 894 c 0
 439 894 501 865 558 801 c 1
 575 822 637 894 754 894 c 0
 898 894 1009 780 1009 643 c 2
 1009 112 l 17xfb
374 279 m 0
 325 279 288 241 288 195 c 0
 288 145 328 112 374 112 c 0
 423 112 457 149 457 195 c 0xfb
 457 241 423 279 374 279 c 0
EndSplineSet
EndChar
StartChar: uni0E58
Encoding: 3672 3672 207
Width: 1519
VWidth: 2045
Flags: W
HStem: 0 104<894.018 992> 0 142<962.568 1192.16> 308 116<451.491 600.926 1043.31 1194.3> 782 112<340.35 494 1168 1288.73>
VStem: 86 121<267.31 644.495> 331 84<159 169.5 169.5 278.456> 924 110<152.405 298.261> 1204 113<152.486 296.987> 1366 113<970.156 1091>
Fore
494 894 m 2xbf80
 254 894 86 691 86 482 c 0
 86 333 153 82 415 0 c 1
 426 222 440 308 515 308 c 0
 550 308 621 257 728 154 c 0
 836 51 946 0 1057 0 c 0x7f80
 1221 0 1317 110 1317 218 c 0
 1317 339 1225 420 1119 420 c 0
 1011 420 924 336 924 236 c 0
 924 174 945 131 992 104 c 1
 863 100 686 424 510 424 c 16
 353 424 330 253 330 180 c 0
 330 173 331 166 331 159 c 1
 225 263 207 366 207 484 c 0
 207 678 351 782 494 782 c 2
 1168 782 l 2
 1339 782 1479 919 1479 1091 c 9
 1366 1091 l 17
 1366 976 1274 894 1168 894 c 2
 494 894 l 2xbf80
1204 225 m 0
 1204 175 1164 142 1119 142 c 0
 1071 142 1034 179 1034 225 c 0
 1034 275 1074 308 1119 308 c 0
 1167 308 1204 271 1204 225 c 0
EndSplineSet
EndChar
StartChar: uni0E59
Encoding: 3673 3673 208
Width: 1519
VWidth: 2045
Flags: W
HStem: 0 151<400.95 652.266> 319 111<503.298 649.46> 782 112<407.334 758.354 1017.18 1248.89>
VStem: 116 113<234.316 611.629> 378 113<161.672 308.519> 662 113<173.621 308.436> 997 113<0 590.279> 1320 113<698 737.532 846 1291.51>
Fore
605 782 m 0
 327 782 229 594 229 447 c 24
 229 168 379 113 427 106 c 1
 394 138 378 181 378 235 c 0
 378 348 470 430 576 430 c 0
 683 430 775 347 775 236 c 0
 775 214 773 129 692 61 c 0
 643 20 564 -0 454 0 c 0
 318 0 116 115 116 447 c 24
 116 629 241 894 605 894 c 0
 712 894 799 885 915 794 c 1
 986 861 1060 894 1137 894 c 0
 1220 894 1281 878 1320 846 c 9
 1320 1168 l 2
 1320 1251 1351 1324 1412 1385 c 9
 1491 1307 l 17
 1452 1272 1433 1225 1433 1168 c 2
 1433 698 l 25
 1320 646 l 17
 1307 739 1242 782 1137 782 c 0
 1086 782 1041 762 1000 723 c 1
 1038 688 1110 557 1110 402 c 2
 1110 0 l 1
 997 0 l 1
 997 402 l 2
 997 628 844 782 605 782 c 0
576 319 m 0
 527 319 491 279 491 234 c 0
 491 184 531 151 576 151 c 0
 620 151 662 184 662 234 c 0
 662 278 626 319 576 319 c 0
EndSplineSet
EndChar
StartChar: uni0E5A
Encoding: 3674 3674 209
Width: 1276
VWidth: 2045
Flags: W
HStem: 0 21G<825 938 1031 1144> 764 112<363.584 619.034> 1142 112<197.071 342.94>
VStem: 73 113<984.587 1131.68> 354 113<983.597 1131.89> 825 113<0 942 1080.93 1254> 1031 113<0 1249>
Fore
1031 1249 m 25
 1144 1254 l 25
 1144 0 l 1
 1031 0 l 1
 1031 1249 l 25
467 1058 m 0
 467 981 428 920 360 882 c 1
 385 878 413 876 444 876 c 256
 655 876 825 1043 825 1254 c 9
 938 1254 l 25
 938 0 l 1
 825 0 l 1
 825 942 l 17
 745 850 619 764 444 764 c 256
 146 764 73 940 73 1057 c 0
 73 1170 163 1254 270 1254 c 0
 377 1254 467 1170 467 1058 c 0
270 1142 m 0
 226 1142 186 1107 186 1058 c 0
 186 1013 221 973 270 973 c 0
 314 973 354 1008 354 1058 c 0
 354 1102 319 1142 270 1142 c 0
EndSplineSet
EndChar
StartChar: uni0E5B
Encoding: 3675 3675 210
Width: 2472
VWidth: 2045
Flags: W
HStem: 0 109<420.594 797.305> 345 113<583.744 730.073> 432 112<2224.52 2395> 625 112<583.542 729.803> 944 114<399.861 716.602>
VStem: 81 113<343.424 722.996> 460 113<469.689 614.582> 859 101<615.78 806.31>
Fore
194 532 m 0xdf
 194 345 330 109 612 109 c 0
 797 109 965 233 1026 394 c 10
 1156 737 l 9
 1262 737 l 17
 1387 372 l 25
 1512 737 l 9
 1619 737 l 17
 1744 372 l 25
 1868 737 l 9
 1974 737 l 17
 2099 372 l 17
 2152 487 2210 544 2274 544 c 2
 2395 544 l 1
 2395 432 l 1
 2282 432 l 26xbf
 2243 432 2200 368 2153 239 c 9
 2046 239 l 17
 1921 604 l 25
 1796 239 l 9
 1689 239 l 17
 1564 604 l 25
 1441 239 l 9
 1334 239 l 17
 1209 604 l 25
 1114 361 l 2
 1068 241 909 -0 602 0 c 0
 284 0 81 257 81 532 c 0
 81 820 312 1058 557 1058 c 0
 741 1058 960 940 960 665 c 0
 960 486 808 345 680 345 c 0
 536 345 460 438 460 542 c 0
 460 649 547 737 657 737 c 0
 792 737 836 630 839 601 c 1
 851 613 859 638 859 671 c 0
 859 789 756 944 546 944 c 0
 399 944 194 786 194 532 c 0xdf
741 542 m 0
 741 588 705 625 657 625 c 0
 609 625 573 588 573 542 c 0
 573 498 608 458 657 458 c 0xdf
 701 458 741 493 741 542 c 0
EndSplineSet
EndChar
StartChar: zerowidthjoiner
Encoding: 8205 8205 211
Width: 0
VWidth: 2045
Flags: W
VStem: -37 74<-275 1113>
Fore
37 -275 m 1
 -37 -275 l 1
 -37 1113 l 1
 -171 977 l 1
 -220 1027 l 1
 -49 1196 l 1
 -220 1362 l 1
 -171 1412 l 1
 0 1242 l 1
 171 1412 l 1
 220 1362 l 1
 49 1196 l 1
 220 1027 l 1
 171 977 l 1
 37 1113 l 1
 37 -275 l 1
EndSplineSet
EndChar
StartChar: afii299
Encoding: 8206 8206 212
Width: 0
VWidth: 2045
Flags: W
HStem: 1163 69<35 300>
VStem: -37 72<-275 1163>
Fore
430 1198 m 1
 213 983 l 1
 165 1033 l 1
 300 1163 l 1
 35 1163 l 1
 35 -275 l 1
 -37 -275 l 1
 -37 1232 l 1
 300 1232 l 1
 165 1362 l 1
 213 1412 l 1
 430 1198 l 1
EndSplineSet
EndChar
StartChar: afii300
Encoding: 8207 8207 213
Width: 0
VWidth: 2045
Flags: W
HStem: 1163 69<-302 -37>
VStem: -37 72<-275 1163>
Fore
35 -275 m 1
 -37 -275 l 1
 -37 1163 l 1
 -302 1163 l 1
 -165 1033 l 1
 -213 983 l 1
 -430 1198 l 1
 -213 1412 l 1
 -165 1362 l 1
 -302 1232 l 1
 35 1232 l 1
 35 -275 l 1
EndSplineSet
EndChar
StartChar: uni2010
Encoding: 8208 8208 214
Width: 971
VWidth: 2045
Flags: MW
HStem: 580 165<189 814>
Fore
189 745 m 1
 814 745 l 1
 814 580 l 1
 189 580 l 1
 189 745 l 1
EndSplineSet
EndChar
StartChar: endash
Encoding: 8211 8211 215
Width: 1123
VWidth: 2045
Flags: MW
HStem: 571 160<-3 1121>
Fore
1121 571 m 1
 -3 571 l 1
 -3 731 l 1
 1121 731 l 1
 1121 571 l 1
EndSplineSet
EndChar
StartChar: emdash
Encoding: 8212 8212 216
Width: 1882
VWidth: 2045
Flags: MW
HStem: 571 160<-3 1863>
Fore
1863 571 m 1
 -3 571 l 1
 -3 731 l 1
 1863 731 l 1
 1863 571 l 1
EndSplineSet
EndChar
StartChar: horizontalbar
Encoding: 8213 8213 217
Width: 1858
VWidth: 2045
Flags: MW
HStem: 571 160<110 1750>
Fore
1750 571 m 1
 110 571 l 1
 110 731 l 1
 1750 731 l 1
 1750 571 l 1
EndSplineSet
EndChar
StartChar: underscoredbl
Encoding: 8215 8215 218
Width: 1115
VWidth: 2045
Flags: MW
HStem: -423 130<-15 1133> -211 130<-15 1133>
Fore
1133 -211 m 1
 -15 -211 l 1
 -15 -81 l 1
 1133 -81 l 1
 1133 -211 l 1
1133 -423 m 1
 -15 -423 l 1
 -15 -293 l 1
 1133 -293 l 1
 1133 -423 l 1
EndSplineSet
EndChar
StartChar: quoteleft
Encoding: 8216 8216 219
Width: 448
VWidth: 2045
Flags: W
HStem: 997 559<-64 335 -64 -64>
Fore
335 997 m 1
 197 997 l 1
 -64 1556 l 1
 177 1556 l 1
 335 997 l 1
EndSplineSet
EndChar
StartChar: quoteright
Encoding: 8217 8217 220
Width: 577
VWidth: 2045
Flags: W
HStem: 997 559<235 495 495 495>
Fore
495 1556 m 1
 235 997 l 1
 98 997 l 1
 253 1556 l 1
 495 1556 l 1
EndSplineSet
EndChar
StartChar: quotesinglbase
Encoding: 8218 8218 221
Width: 429
VWidth: 2045
Flags: W
HStem: -275 559<125 386 386 386>
Fore
386 284 m 1
 125 -275 l 1
 -12 -275 l 1
 143 284 l 1
 386 284 l 1
EndSplineSet
EndChar
StartChar: quotereversed
Encoding: 8219 8219 222
Width: 429
VWidth: 2045
Flags: W
HStem: 997 559<177 335 335 335>
Fore
335 1556 m 1
 177 997 l 1
 -64 997 l 1
 197 1556 l 1
 335 1556 l 1
EndSplineSet
EndChar
StartChar: quotedblleft
Encoding: 8220 8220 223
Width: 847
VWidth: 2045
Flags: W
HStem: 997 559<329 724 329 329>
Fore
724 997 m 1
 592 997 l 1
 329 1556 l 1
 567 1556 l 1
 724 997 l 1
331 997 m 1
 197 997 l 1
 -64 1556 l 1
 174 1556 l 1
 331 997 l 1
EndSplineSet
EndChar
StartChar: quotedblright
Encoding: 8221 8221 224
Width: 998
VWidth: 2045
Flags: W
HStem: 997 559<634 895 895 895>
Fore
895 1556 m 1
 634 997 l 1
 500 997 l 1
 657 1556 l 1
 895 1556 l 1
502 1556 m 1
 241 997 l 1
 107 997 l 1
 264 1556 l 1
 502 1556 l 1
EndSplineSet
EndChar
StartChar: quotedblbase
Encoding: 8222 8222 225
Width: 812
VWidth: 2045
Flags: W
HStem: -275 559<518 781 781 781>
Fore
781 284 m 1
 518 -275 l 1
 386 -275 l 1
 543 284 l 1
 781 284 l 1
387 284 m 1
 125 -275 l 1
 -8 -275 l 1
 149 284 l 1
 387 284 l 1
EndSplineSet
EndChar
StartChar: dagger
Encoding: 8224 8224 226
Width: 1115
VWidth: 2045
Flags: W
HStem: 1033 130<134 497 619 982>
VStem: 492 133<136 1039 1157 1556>
Fore
982 1033 m 1
 619 1039 l 1
 625 136 l 1
 492 136 l 1
 497 1039 l 1
 134 1033 l 1
 134 1163 l 1
 497 1157 l 1
 492 1556 l 1
 625 1556 l 1
 619 1157 l 1
 982 1163 l 1
 982 1033 l 1
EndSplineSet
EndChar
StartChar: daggerdbl
Encoding: 8225 8225 227
Width: 1115
VWidth: 2045
Flags: W
HStem: 508 128<134 497 619 982> 1044 128<134 497 619 982>
VStem: 497 122<124 512 631 1048 1167 1556>
Fore
982 508 m 1
 619 512 l 1
 625 124 l 1
 492 124 l 1
 497 512 l 1
 134 508 l 1
 134 636 l 1
 497 631 l 1
 497 1048 l 1
 134 1044 l 1
 134 1172 l 1
 497 1167 l 1
 492 1556 l 1
 625 1556 l 1
 619 1167 l 1
 982 1172 l 1
 982 1044 l 1
 619 1048 l 1
 619 631 l 1
 982 636 l 1
 982 508 l 1
EndSplineSet
EndChar
StartChar: bullet
Encoding: 8226 8226 228
Width: 948
VWidth: 2045
Flags: W
HStem: 311 701<298.074 631.512>
VStem: 113 704<491.525 830.47>
Fore
463 1012 m 0
 658 1012 817 859 817 662 c 0
 817 475 667 311 465 311 c 0
 275 311 113 461 113 662 c 0
 113 861 274 1012 463 1012 c 0
EndSplineSet
EndChar
StartChar: ellipsis
Encoding: 8230 8230 229
Width: 1648
VWidth: 2045
Flags: W
HStem: 0 224<177 381 735 938 1291 1494>
VStem: 177 204<0 224> 735 203<0 224> 1291 203<0 224>
Fore
1494 0 m 1
 1291 0 l 1
 1291 224 l 1
 1494 224 l 1
 1494 0 l 1
938 0 m 1
 735 0 l 1
 735 224 l 1
 938 224 l 1
 938 0 l 1
381 0 m 1
 177 0 l 1
 177 224 l 1
 381 224 l 1
 381 0 l 1
EndSplineSet
EndChar
StartChar: perthousand
Encoding: 8240 8240 230
Width: 2843
VWidth: 2045
Flags: W
HStem: -29 133<1429.04 1653.37 2273.55 2499.35> 634 133<340.255 564.192> 720 133<1433.38 1657.24 2273.55 2497.19> 1384 133<343.518 566.561>
VStem: 102 179<828.765 1321.36> 628 177<834.742 1320.46> 1191 178<169.299 652.018> 1717 178<171.562 657.646> 2034 177<169.696 653.85> 2561 177<171.081 652.652>
Fore
454 1517 m 0xdfc0
 665 1517 805 1396 805 1075 c 0
 805 847 735 634 454 634 c 0
 243 634 102 755 102 1075 c 0
 102 1299 170 1515 454 1517 c 0xdfc0
1471 1489 m 1
 692 0 l 1
 527 0 l 1
 1307 1489 l 1
 1471 1489 l 1
1543 853 m 0xbfc0
 1754 853 1895 729 1895 414 c 0
 1895 185 1825 -29 1543 -29 c 0
 1332 -29 1191 96 1191 411 c 0
 1191 640 1261 853 1543 853 c 0xbfc0
454 767 m 0xdfc0
 558 767 628 820 628 1075 c 0
 628 1331 559 1384 454 1384 c 0
 350 1384 281 1331 281 1075 c 0
 281 812 350 767 454 767 c 0xdfc0
1543 104 m 0
 1647 104 1717 153 1717 414 c 0
 1717 673 1648 720 1544 720 c 0xbfc0
 1450 720 1369 678 1369 412 c 0
 1369 152 1439 104 1543 104 c 0
2387 853 m 0
 2668 853 2738 640 2738 414 c 0
 2738 94 2598 -29 2387 -29 c 0
 2175 -29 2034 96 2034 411 c 0
 2034 731 2175 853 2387 853 c 0
2387 104 m 0
 2491 104 2561 160 2561 414 c 0
 2561 667 2491 720 2387 720 c 0
 2281 720 2211 666 2211 412 c 0
 2211 154 2281 104 2387 104 c 0
EndSplineSet
EndChar
StartChar: minute
Encoding: 8242 8242 231
Width: 600
VWidth: 2045
Flags: W
HStem: 870 619<273 570 570 570>
Fore
570 1489 m 1
 273 870 l 1
 137 870 l 1
 331 1489 l 1
 570 1489 l 1
EndSplineSet
EndChar
StartChar: second
Encoding: 8243 8243 232
Width: 969
VWidth: 2045
Flags: W
HStem: 870 619<268 567 567 567>
Fore
567 1489 m 1
 268 870 l 1
 137 870 l 1
 331 1489 l 1
 567 1489 l 1
960 1489 m 1
 662 870 l 1
 531 870 l 1
 724 1489 l 1
 960 1489 l 1
EndSplineSet
EndChar
StartChar: guilsinglleft
Encoding: 8249 8249 233
Width: 782
VWidth: 2045
Flags: MW
Fore
633 172 m 1
 122 607 l 1
 122 698 l 1
 633 1131 l 1
 633 933 l 1
 302 652 l 1
 633 372 l 1
 633 172 l 1
EndSplineSet
EndChar
StartChar: guilsinglright
Encoding: 8250 8250 234
Width: 782
VWidth: 2045
Flags: MW
Fore
660 607 m 1
 151 172 l 1
 151 372 l 1
 482 652 l 1
 151 933 l 1
 151 1131 l 1
 660 698 l 1
 660 607 l 1
EndSplineSet
EndChar
StartChar: uni203E
Encoding: 8254 8254 236
Width: 1115
VWidth: 2045
Flags: MW
HStem: 1658 130<-49 1116>
Fore
1116 1658 m 1
 -49 1658 l 1
 -49 1788 l 1
 1116 1788 l 1
 1116 1658 l 1
EndSplineSet
EndChar
StartChar: fraction
Encoding: 8260 8260 237
Width: 884
VWidth: 2045
Flags: MW
HStem: 0 21G<-29 146.463>
Fore
915 1489 m 1
 136 0 l 1
 -29 0 l 1
 750 1489 l 1
 915 1489 l 1
EndSplineSet
EndChar
StartChar: uni207F
Encoding: 8319 8319 238
Width: 1007
VWidth: 2045
Flags: W
HStem: 1368 151<499.334 671.743>
VStem: 125 171<565 1254 1387 1488> 717 172<565 1322.18>
Fore
585 1519 m 0
 694 1519 889 1478 889 1163 c 2
 889 565 l 1
 717 565 l 1
 717 1088 l 2
 717 1276 704 1368 540 1368 c 0
 491 1368 424 1354 296 1254 c 1
 296 565 l 1
 125 565 l 1
 125 1488 l 1
 296 1488 l 1
 296 1387 l 1
 442 1514 527 1519 585 1519 c 0
EndSplineSet
EndChar
StartChar: dottedcircle
Encoding: 9676 9676 239
Width: 1253
VWidth: 2045
Flags: W
HStem: 6 121<552.025 668.979> 68 121<846.77 962.541> 98 121<288.541 404.456> 234 121<1011.2 1128.54> 249 121<144.993 261.635> 444 121<23.3647 140.852 1089.79 1201.93> 680 121<39.7485 156.271 1072.88 1189.12> 867 121<145.286 260.861> 891 121<966.134 1083.33> 1010 121<333.712 451.099> 1033 121<778.071 893.554> 1078 121<560.141 645.66>
VStem: 21 122<446.709 562.713> 143 121<251.134 367.777 869.218 958.757> 287 120<100.109 217.219> 332 121<1012.07 1128.86> 550 121<10.3125 122.531 1080.37 1196.86> 776 120<1035.09 1151.86> 845 120<70.079 186.929> 964 122<893.544 979.942> 1009 122<236.206 352.728> 1070 122<682.061 798.41> 1086 120<440.061 556.85>
Fore
203 867 m 0x070c80
 170 867 143 893 143 928 c 0
 143 952 155 988 203 988 c 0
 240 988 264 962 263 927 c 0
 263 896 238 867 203 867 c 0x070c80
392 1010 m 0x064d80
 356 1010 332 1034 332 1071 c 0
 332 1109 361 1131 392 1131 c 0
 426 1131 453 1106 453 1071 c 0
 453 1034 427 1010 392 1010 c 0x064d80
617 1078 m 0x061c80
 589 1078 558 1101 558 1139 c 0
 558 1174 586 1199 618 1199 c 0
 650 1199 678 1177 678 1139 c 0
 678 1096 644 1078 617 1078 c 0x061c80
81 444 m 0
 46 444 21 475 21 504 c 0
 21 539 49 565 82 565 c 0
 112 565 143 543 143 504 c 0
 143 471 115 444 81 444 c 0
203 249 m 0x0e0c80
 166 249 143 276 143 310 c 0
 143 345 170 370 203 370 c 0
 236 370 264 344 264 308 c 0
 264 274 236 249 203 249 c 0x0e0c80
346 98 m 0x260e80
 314 98 287 118 287 158 c 0
 287 199 314 219 346 219 c 0
 383 219 406 194 407 157 c 0
 407 125 382 98 346 98 c 0x260e80
611 6 m 0x860c80
 579 6 550 30 550 66 c 0
 550 101 573 127 610 127 c 0
 645 127 671 102 671 66 c 0
 671 30 642 6 611 6 c 0x860c80
904 68 m 0x460ca0
 870 68 845 92 845 128 c 0
 845 165 870 189 904 189 c 0x460ca0
 941 189 965 161 965 127 c 0x860ca0
 965 98 942 68 904 68 c 0x460ca0
1070 234 m 0x160c84
 1030 234 1009 266 1009 294 c 0x160c88
 1009 322 1030 355 1070 355 c 0x160c84
 1107 355 1131 327 1131 293 c 0x160c88
 1131 264 1108 234 1070 234 c 0x160c84
1145 438 m 0
 1112 438 1086 459 1086 497 c 0
 1086 534 1110 559 1145 559 c 0
 1178 559 1206 536 1206 497 c 0x060c82
 1206 462 1180 438 1145 438 c 0
1131 680 m 0x060c88
 1093 680 1070 707 1070 739 c 0x060c84
 1070 768 1094 801 1131 801 c 0x060c88
 1167 801 1192 770 1192 739 c 0x060c84
 1192 704 1168 680 1131 680 c 0x060c88
1023 891 m 0x068c90
 989 891 964 916 964 952 c 0
 964 978 984 1012 1024 1012 c 0
 1064 1012 1085 979 1086 952 c 0
 1086 914 1056 891 1023 891 c 0x068c90
837 1033 m 0x062cc0
 803 1033 776 1057 776 1094 c 0
 776 1127 800 1154 837 1154 c 0
 875 1154 896 1123 896 1094 c 0
 896 1063 872 1033 837 1033 c 0x062cc0
96 680 m 0
 56 680 37 710 37 739 c 0
 37 767 59 801 98 801 c 0
 132 801 159 772 159 738 c 0
 159 703 132 680 96 680 c 0
EndSplineSet
EndChar
StartChar: uni0E10.descless
Encoding: 63232 63232 240
Width: 1192
VWidth: 2045
Flags: MW
HStem: 0 21G<701.675 817.356> 296 112<416.385 565.096> 574 112<416.55 563.641> 764 112<247 810.359> 1142 112<434.444 736.932>
VStem: 293 113<418.789 563.582> 835 110<597.022 606 606 628.885 628.885 638.385 633.635 739.521>
Fore
117 764 m 1
 117 1019 325 1254 611 1254 c 256
 810 1254 960 1143 1040 1006 c 9
 944 949 l 17
 844 1122 681 1142 611 1142 c 256
 427 1142 290 1015 247 876 c 1
 724 876 l 2
 845 876 950 783 950 652 c 16
 950 634 948 619 945 606 c 10
 813 0 l 1
 707 0 l 1
 617 338 l 17
 590 310 548 296 491 296 c 0
 380 296 293 385 293 491 c 0
 293 598 380 686 491 686 c 0
 565 686 653 646 685 529 c 2
 758 266 l 17
 835 631 l 18
 836 634 837 638 837 646 c 0
 837 710 793 764 724 764 c 2
 117 764 l 1
489 574 m 0
 440 574 406 537 406 491 c 0
 406 442 443 408 489 408 c 0
 533 408 575 441 575 491 c 0
 575 541 533 574 489 574 c 0
EndSplineSet
EndChar
StartChar: uni0E34.left
Encoding: 63233 63233 241
Width: 0
VWidth: 2045
Flags: W
HStem: 1767 112<-1087.01 -727.564>
Back
-779 1486 m 21
 -782.333 1492 -785.333 1498 -788 1504 c 4
 -822 1561.33 -868.333 1607 -927 1641 c 132
 -985.667 1675 -1049.67 1692 -1119 1692 c 260
 -1188.33 1692 -1252 1674.67 -1310 1640 c 20
 -1351.33 1616 -1387.33 1585 -1418 1547 c 5
 -779 1486 l 21
-626 1359 m 13
 -1593 1452 l 5
 -1581.67 1488.67 -1566 1524.33 -1546 1559 c 12
 -1501.33 1634.33 -1441.33 1693.83 -1366 1737.5 c 132
 -1290.67 1781.17 -1208.33 1803.33 -1119 1804 c 260
 -1029.67 1804 -946.833 1782 -870.5 1738 c 132
 -794.167 1694 -734.333 1634.33 -691 1559 c 4
 -653.667 1497.67 -632 1431 -626 1359 c 13
EndSplineSet
Refer: 175 3636 N 1 0 0 1 -245 0 2
EndChar
StartChar: uni0E35.left
Encoding: 63234 63234 242
Width: 0
VWidth: 2045
Flags: W
HStem: 1764 112<-1087.01 -726.951>
VStem: -527 113<1701 1935>
Back
-626 1361 m 13
 -1593 1453 l 5
 -1581.67 1491 -1566 1527.33 -1546 1562 c 12
 -1501.33 1636.67 -1441.33 1695.83 -1366 1739.5 c 132
 -1290.67 1783.17 -1208.33 1805 -1119 1805 c 260
 -1029.67 1805 -947 1783.33 -871 1740 c 4
 -819.667 1710 -775.667 1673.33 -739 1630 c 13
 -739 1864 l 5
 -626 1864 l 13
 -626 1361 l 13
-779 1488 m 21
 -782.333 1492.67 -785.333 1498 -788 1504 c 4
 -822 1562.67 -868.333 1608.83 -927 1642.5 c 132
 -985.667 1676.17 -1049.67 1693 -1119 1693 c 260
 -1188.33 1693 -1252 1676.33 -1310 1643 c 20
 -1351.33 1618.33 -1387.33 1586.33 -1418 1547 c 5
 -779 1488 l 21
EndSplineSet
Refer: 176 3637 N 1 0 0 1 -245 0 2
EndChar
StartChar: uni0E36.left
Encoding: 63235 63235 243
Width: 0
VWidth: 2045
Flags: W
HStem: 1762 112<-1072.01 -800.685> 1966 112<-674.702 -528.061>
VStem: -799 112<1866.75 1873.45 1870.1 1955.57> -517 113<1807.29 1954.33>
Back
-744 1634 m 1
 -723.333 1612 -705.667 1588 -691 1562 c 0
 -654.333 1499.33 -633 1432.33 -627 1361 c 9
 -1593 1453 l 1
 -1581.67 1491 -1566 1527.33 -1546 1562 c 8
 -1501.33 1636.67 -1441.33 1695.83 -1366 1739.5 c 128
 -1290.67 1783.17 -1208.33 1805 -1119 1805 c 256
 -1086.33 1805 -1055.33 1802.33 -1026 1797 c 1
 -1027.33 1801 -1028 1806 -1028 1812 c 0
 -1028 1866.67 -1008.67 1913.17 -970 1951.5 c 128
 -931.333 1989.83 -884.5 2009 -829.5 2009 c 128
 -774.5 2009 -727.667 1989.83 -689 1951.5 c 128
 -650.333 1913.17 -631 1866.83 -631 1812.5 c 128
 -631 1758.17 -650.333 1712 -689 1674 c 0
 -706.333 1657.33 -724.667 1644 -744 1634 c 1
-915 1812.5 m 128
 -915 1789.5 -906.5 1769.67 -889.5 1753 c 128
 -872.5 1736.33 -852.333 1728 -829 1728 c 128
 -805.667 1728 -785.667 1736.33 -769 1753 c 128
 -752.333 1769.67 -744 1789.5 -744 1812.5 c 128
 -744 1835.5 -752.333 1855.33 -769 1872 c 128
 -785.667 1888.67 -805.667 1897 -829 1897 c 128
 -852.333 1897 -872.5 1888.67 -889.5 1872 c 128
 -906.5 1855.33 -915 1835.5 -915 1812.5 c 128
-779 1488 m 17
 -782.333 1492.67 -785.333 1498 -788 1504 c 0
 -822 1562.67 -868.333 1608.83 -927 1642.5 c 128
 -985.667 1676.17 -1049.67 1693 -1119 1693 c 256
 -1188.33 1693 -1252 1676.33 -1310 1643 c 16
 -1351.33 1618.33 -1387.33 1586.33 -1418 1547 c 1
 -779 1488 l 17
EndSplineSet
Refer: 177 3638 N 1 0 0 1 -230 0 2
EndChar
StartChar: uni0E37.left
Encoding: 63236 63236 244
Width: 0
VWidth: 2045
Flags: W
HStem: 1764 112<-1071.01 -773.511>
VStem: -737 113<1852 1935> -511 113<1701 1935>
Back
-852 1728 m 17
 -808 1700.67 -770.333 1668 -739 1630 c 9
 -739 1864 l 1
 -626 1864 l 9
 -626 1361 l 9
 -1593 1453 l 1
 -1581.67 1491 -1566 1527.33 -1546 1562 c 8
 -1501.33 1636.67 -1441.33 1695.83 -1366 1739.5 c 128
 -1290.67 1783.17 -1208.33 1805 -1119 1805 c 256
 -1065 1805 -1013.67 1797 -965 1781 c 9
 -965 1864 l 1
 -852 1864 l 1
 -852 1728 l 17
-779 1488 m 17
 -782.333 1492.67 -785.333 1498 -788 1504 c 0
 -822 1562.67 -868.333 1608.83 -927 1642.5 c 128
 -985.667 1676.17 -1049.67 1693 -1119 1693 c 256
 -1188.33 1693 -1252 1676.33 -1310 1643 c 16
 -1351.33 1618.33 -1387.33 1586.33 -1418 1547 c 1
 -779 1488 l 17
EndSplineSet
Refer: 178 3639 N 1 0 0 1 -229 0 2
EndChar
StartChar: uni0E48.low_left
Encoding: 63237 63237 245
Width: 0
VWidth: 2045
Flags: W
VStem: -515 111<1444 1892 1444 1892 1444 1444>
Back
-604 1568 m 1
 -482 1568 l 1
 -482 1293 l 1
 -604 1293 l 1
 -604 1568 l 1
EndSplineSet
Refer: 250 63242 N 1 0 0 1 -198 0 2
EndChar
StartChar: uni0E49.low_left
Encoding: 63238 63238 246
Width: 0
VWidth: 2045
Flags: W
HStem: 1421 112<-808 -637.154> 1421 490 1604 72<-903.85 -866> 1788 83<-904.148 -794.037>
VStem: -990 84<1677.81 1785.49> -793 85<1684.48 1785.56> -427 114<1742.77 1911>
Back
-313 1761 m 273x48
 -313 1501 -521 1272 -808 1272 c 10x88
 -921 1272 l 1x48
 -921 1383 l 1
 -866 1453 l 17
 -915 1453 -990 1491 -990 1581 c 0xa8
 -990 1663 -926 1722 -849 1722 c 0
 -767 1722 -708 1658 -708 1581 c 0
 -708 1547 -715 1520 -729 1500 c 2
 -808 1383 l 1xb2
 -597 1383 -427 1553 -427 1761 c 265x43
 -313 1761 l 273x48
-849 1637 m 0x36
 -882 1637 -906 1611 -906 1581 c 0
 -906 1552 -882 1525 -849 1525 c 0
 -816 1525 -793 1552 -793 1581 c 0
 -793 1611 -815 1637 -849 1637 c 0x36
EndSplineSet
Refer: 251 63243 N 1 0 0 1 -281 0 2
EndChar
StartChar: uni0E4A.low_left
Encoding: 63239 63239 247
Width: 0
VWidth: 2045
Flags: W
HStem: 1418 83<-965.115 -857.435> 1613 88<-966.984 -856.055> 1754 112<-982.79 -816.308 -688.156 -525.633>
VStem: -1115 104<1643 1723.72> -855 83<1502.46 1610.05> -502 113<1602.23 1729.99> -233 112<1740.17 1908>
Back
-619 1380 m 1,0,-1
-619 1716 m 8,1,-1
 -487 1716 -393 1615 -393 1492 c 16,4,-1
 -393 1478 -394 1464 -396 1450 c 1,7,-1
 -308 1515 -238 1624 -238 1758 c 265,10,-1
 -124 1758 l 273,11,-1
 -124 1474 -356 1269 -619 1269 c 9,14,-1
 -619 1380 l 17,15,-1
 -552 1393 -506 1425 -506 1492 c 24,18,-1
 -506 1552 -556 1604 -619 1604 c 24,21,-1
 -659 1604 -691 1586 -720 1545 c 1,24,-1
 -793 1545 l 1,25,-1
 -804 1563 -834 1604 -896 1604 c 24,28,-1
 -968 1604 -1014 1537 -1014 1492 c 1,31,-1
 -997 1531 -961 1550 -907 1550 c 0,34,-1
 -835 1550 -774 1491 -775 1408 c 0,37,-1
 -775 1328 -839 1269 -916 1269 c 0,40,-1
 -1006 1269 -1119 1319 -1119 1492 c 24,43,-1
 -1119 1615 -1025 1716 -893 1716 c 16,46,-1
 -840 1716 -795 1701 -756 1670 c 1,49,-1
 -717 1701 -672 1716 -619 1716 c 8,1,-1
-916 1465 m 0,52,-1
 -946 1465 -973 1442 -973 1409 c 0,55,-1
 -973 1378 -949 1353 -916 1353 c 0,58,-1
 -888 1353 -860 1375 -860 1409 c 0,61,-1
 -860 1442 -886 1465 -916 1465 c 0,52,-1
EndSplineSet
Refer: 252 63244 N 1 0 0 1 -273 0 2
EndChar
StartChar: uni0E4B.low_left
Encoding: 63240 63240 248
Width: 0
VWidth: 2045
Flags: W
HStem: 1599 112<-820 -671 -558 -409>
VStem: -671 113<1430 1599 1711 1878 1430 1878 1430 1430>
Back
-409 1445 m 1
 -558 1445 l 1
 -558 1296 l 1
 -671 1296 l 1
 -671 1445 l 1
 -821 1445 l 1
 -821 1557 l 1
 -671 1557 l 1
 -671 1707 l 1
 -558 1707 l 1
 -558 1557 l 1
 -409 1557 l 1
 -409 1445 l 1
EndSplineSet
Refer: 253 63245 N 1 0 0 1 -302 0 2
EndChar
StartChar: uni0E4C.low_left
Encoding: 63241 63241 249
Width: 0
VWidth: 2045
Flags: W
HStem: 1420 112<-642.39 -493.813> 1701 112<-640.044 -491.845 -389 -91.957>
VStem: -766 113<1543.98 1690.29> -482 113<1542.33 1678.15>
Back
-897 1458 m 0
 -897 1565 -811 1652 -699 1652 c 10
 -348 1652 l 2
 -293 1652 -247 1671 -208 1710 c 9
 -128 1631 l 17
 -189 1571 -263 1541 -348 1541 c 2
 -520 1541 l 17
 -507 1516 -500 1488 -500 1458 c 0
 -500 1352 -586 1263 -698 1263 c 0
 -812 1263 -897 1352 -897 1458 c 0
-698 1541 m 0
 -748 1541 -784 1503 -784 1458 c 0
 -784 1412 -748 1374 -698 1374 c 0
 -649 1374 -613 1412 -613 1458 c 0
 -613 1503 -649 1541 -698 1541 c 0
EndSplineSet
Refer: 254 63246 N 1 0 0 1 -37 0 2
EndChar
StartChar: uni0E48.low
Encoding: 63242 63242 250
Width: 0
VWidth: 2045
Flags: W
VStem: -317 111<1444 1892 1444 1892 1444 1444>
AnchorPoint: "AboveBase" -206 1370 mark 0
Fore
-317 1892 m 25
 -206 1892 l 1
 -206 1444 l 1
 -317 1444 l 1
 -317 1892 l 25
EndSplineSet
EndChar
StartChar: uni0E49.low
Encoding: 63243 63243 251
Width: 0
VWidth: 2045
Flags: MW
HStem: 1421 112<-527 -356.154> 1421 490 1604 72<-622.85 -585> 1788 83<-623.148 -513.037>
VStem: -709 84<1677.81 1785.49> -512 85<1684.48 1785.56> -146 114<1742.77 1911>
AnchorPoint: "AboveBase" -123 1370 mark 0
Fore
-32 1911 m 273
 -32 1641 -252 1421 -527 1421 c 10
 -640 1421 l 1
 -640 1533 l 1
 -585 1604 l 17
 -635 1604 -709 1645 -709 1732 c 0
 -709 1812 -645 1871 -568 1871 c 0
 -490 1871 -427 1812 -427 1732 c 0
 -427 1697 -434 1670 -448 1649 c 2
 -527 1533 l 1
 -311 1537 -146 1706 -146 1911 c 265
 -32 1911 l 273
-568 1788 m 0
 -598 1788 -625 1765 -625 1732 c 0
 -625 1698 -598 1676 -568 1676 c 0
 -534 1676 -512 1701 -512 1732 c 0
 -512 1762 -534 1788 -568 1788 c 0
EndSplineSet
EndChar
StartChar: uni0E4A.low
Encoding: 63244 63244 252
Width: 0
VWidth: 2045
Flags: W
HStem: 1418 83<-692.115 -584.435> 1613 88<-693.984 -583.055> 1754 112<-709.79 -543.308 -415.156 -252.633>
VStem: -842 104<1643 1723.72> -582 83<1502.46 1610.05> -229 113<1602.23 1729.99> 40 112<1740.17 1908>
AnchorPoint: "AboveBase" -131 1370 mark 0
Fore
-342 1530 m 1,0,-1
-342 1866 m 8,1,-1
 -215 1866 -116 1765 -116 1642 c 16,4,-1
 -116 1627 -117 1613 -120 1601 c 1,7,-1
 -28 1665 40 1774 40 1908 c 265,10,-1
 152 1908 l 273,11,-1
 152 1639 -64 1418 -342 1418 c 9,14,-1
 -342 1530 l 17,15,-1
 -272 1543 -229 1575 -229 1642 c 24,18,-1
 -229 1707 -282 1754 -342 1754 c 24,21,-1
 -402 1754 -433 1710 -442 1695 c 1,24,-1
 -517 1695 l 1,25,-1
 -525 1709 -556 1754 -619 1754 c 24,28,-1
 -692 1754 -738 1686 -738 1643 c 1,31,-1
 -719 1682 -684 1701 -631 1701 c 0,34,-1
 -559 1698 -499 1640 -499 1559 c 0,37,-1
 -499 1477 -563 1418 -640 1418 c 0,40,-1
 -738 1418 -842 1476 -842 1642 c 24,43,-1
 -842 1765 -743 1865 -616 1866 c 16,46,-1
 -564 1866 -518 1851 -479 1820 c 1,49,-1
 -440 1850 -395 1865 -342 1866 c 8,1,-1
-640 1613 m 0,52,-1
 -669 1613 -695 1591 -695 1558 c 0,55,-1
 -695 1528 -673 1501 -640 1501 c 0,58,-1
 -606 1501 -582 1528 -582 1558 c 0,61,-1
 -582 1588 -607 1613 -640 1613 c 0,52,-1
EndSplineSet
EndChar
StartChar: uni0E4B.low
Encoding: 63245 63245 253
Width: 0
VWidth: 2045
Flags: MW
HStem: 1599 112<-518 -369 -256 -107>
VStem: -369 113<1430 1599 1711 1878 1430 1878 1430 1430>
AnchorPoint: "AboveBase" -102 1370 mark 0
Fore
-107 1599 m 1
 -256 1599 l 1
 -256 1430 l 1
 -369 1430 l 1
 -369 1599 l 1
 -518 1599 l 1
 -518 1711 l 1
 -369 1711 l 1
 -369 1878 l 1
 -256 1878 l 1
 -256 1711 l 1
 -107 1711 l 1
 -107 1599 l 1
EndSplineSet
EndChar
StartChar: uni0E4C.low
Encoding: 63246 63246 254
Width: 0
VWidth: 2045
Flags: W
HStem: 1420 112<-605.39 -456.813> 1701 112<-603.044 -454.845 -352 -54.957>
VStem: -729 113<1543.98 1690.29> -445 113<1542.33 1678.15>
AnchorPoint: "AboveBase" -367 1370 mark 0
Fore
-729 1617 m 0
 -729 1728 -639 1813 -531 1813 c 10
 -180 1813 l 2
 -125 1813 -79 1832 -40 1870 c 9
 40 1792 l 17
 -21 1731 -95 1701 -180 1701 c 2
 -352 1701 l 17
 -339 1675 -332 1647 -332 1617 c 0
 -332 1502 -424 1420 -530 1420 c 0
 -644 1420 -729 1510 -729 1617 c 0
-530 1701 m 0
 -580 1701 -616 1662 -616 1617 c 0
 -616 1571 -580 1532 -530 1532 c 0
 -481 1532 -445 1571 -445 1617 c 0
 -445 1662 -481 1701 -530 1701 c 0
EndSplineSet
EndChar
StartChar: uni0E0D.descless
Encoding: 63247 63247 255
Width: 1864
VWidth: 2045
Flags: W
HStem: 0 112<373.641 523.099 1098 1565> 279 112<386.313 523.423> 764 112<240 251 364 476> 1142 112<424.175 780.412>
VStem: 251 113<125.058 268.581 373 764> 534 113<123.11 267.934> 985 113<112 764 764 934.233> 1565 113<112 1254>
Fore
604 1254 m 256
 873 1254 1098 1039 1098 764 c 2
 1098 112 l 1
 1565 112 l 1
 1565 1254 l 1
 1678 1254 l 1
 1678 0 l 17
 985 0 l 1
 985 764 l 2
 985 973 814 1142 604 1142 c 256
 486 1142 316 1087 240 876 c 1
 476 876 l 1
 476 764 l 1
 364 764 l 1
 364 373 l 1
 391 385 419 391 449 391 c 0
 561 391 647 303 647 196 c 0
 647 88 561 0 448 0 c 0
 334 0 251 90 251 196 c 2
 251 764 l 1
 110 764 l 1
 110 1034 332 1254 604 1254 c 256
449 279 m 0
 400 279 364 240 364 195 c 0
 364 145 404 112 449 112 c 0
 497 112 534 149 534 195 c 0
 534 245 493 279 449 279 c 0
EndSplineSet
EndChar
StartChar: uni0E4D.left
Encoding: 63249 63249 257
Width: 0
VWidth: 2045
Flags: W
HStem: 1401 112<-677.729 -528.725> 1681 112<-676.097 -527.791>
VStem: -801 113<1524.58 1670.18> -517 113<1523.59 1669.06>
Back
-930 1555 m 132
 -930 1609 -910.667 1655.17 -872 1693.5 c 132
 -833.333 1731.83 -786.5 1751 -731.5 1751 c 132
 -676.5 1751 -629.833 1731.83 -591.5 1693.5 c 132
 -553.167 1655.17 -533.833 1609 -533.5 1555 c 132
 -533.167 1501 -552.333 1454.83 -591 1416.5 c 132
 -629.667 1378.17 -676.5 1359 -731.5 1359 c 132
 -786.5 1359 -833.333 1378.17 -872 1416.5 c 132
 -910.667 1454.83 -930 1501 -930 1555 c 132
-817 1554 m 132
 -817 1530.67 -808.667 1511 -792 1495 c 132
 -775.333 1479 -755.333 1471 -732 1471 c 132
 -708.667 1471 -688.5 1479 -671.5 1495 c 132
 -654.5 1511 -646 1530.67 -646 1554 c 132
 -646 1577.33 -654.5 1597.33 -671.5 1614 c 132
 -688.5 1630.67 -708.667 1639 -732 1639 c 132
 -755.333 1639 -775.333 1630.67 -792 1614 c 132
 -808.667 1597.33 -817 1577.33 -817 1554 c 132
EndSplineSet
Refer: 196 3661 N 1 0 0 1 -209 0 2
EndChar
StartChar: uni0E47.left
Encoding: 63250 63250 258
Width: 0
VWidth: 2045
Flags: W
HStem: 1398 86<-598.33 -489.875> 1502 110<-871.102 -773.581> 1596 83<-597.486 -488.425> 1761 101<-991.251 -749.004 -759.984 -738.023 -749.004 -503.941>
VStem: -1147 112<1515.85 1716.63> -684 84<1510.65 1594.32> -487 83<1485.37 1594.32>
Back
-752 1676 m 0xde
 -715 1676 -696 1674 -658 1674 c 0
 -521 1674 -430 1687 -328 1820 c 1
 -404 1893 l 1
 -483 1780 -544 1775 -672 1775 c 0
 -715 1775 -759 1777 -781 1777 c 0
 -1053 1777 -1114 1632 -1114 1536 c 0
 -1114 1358 -976 1316 -868 1313 c 1
 -871 1335 -868 1358 -860 1381 c 0
 -853 1405 -835 1417 -808 1417 c 0xde
 -723 1417 -703 1313 -526 1313 c 16
 -415 1313 -371 1393 -371 1455 c 0
 -371 1531 -432 1594 -511 1594 c 0xbe
 -590 1594 -651 1531 -651 1455 c 0
 -651 1443 -651 1433 -650 1425 c 1
 -710 1431 -755 1525 -834 1527 c 16
 -905 1530 -935 1461 -935 1419 c 1
 -981 1433 -1002 1474 -1002 1536 c 0
 -1002 1652 -895 1676 -752 1676 c 0xde
-510 1399 m 0
 -544 1399 -567 1424 -567 1455 c 0
 -567 1486 -544 1511 -510 1511 c 0xbe
 -477 1511 -454 1486 -454 1455 c 0
 -454 1424 -477 1399 -510 1399 c 0
EndSplineSet
Refer: 190 3655 N 1 0 0 1 -123 0 2
EndChar
StartChar: uni0E48.left
Encoding: 63251 63251 259
Width: 0
VWidth: 2045
Flags: W
VStem: -527 113<2117 2422 2117 2422 2117 2117>
Back
-509 1924 m 1
 -387 1924 l 1
 -387 1649 l 1
 -509 1649 l 1
 -509 1924 l 1
EndSplineSet
Refer: 191 3656 N 1 0 0 1 -73 0 2
EndChar
StartChar: uni0E38.low
Encoding: 63256 63256 264
Width: 0
VWidth: 2045
Flags: W
HStem: -1011 112<-504.695 -367.71> -733 112<-505.148 -357.176>
VStem: -628 113<-888.595 -744.116> -346 113<-888.942 -743.961>
Back
-564 -822 m 0
 -564 -935 -473 -1018 -367 -1018 c 0
 -337 -1018 -309 -1012 -284 -1000 c 1
 -284 -1213 l 1
 -171 -1213 l 1
 -171 -822 l 2
 -171 -712 -259 -625 -368 -625 c 0
 -474 -625 -564 -710 -564 -822 c 0
-367 -906 m 0
 -411 -906 -451 -871 -451 -822 c 0
 -451 -777 -416 -737 -367 -737 c 0
 -319 -737 -284 -777 -284 -822 c 0
 -284 -866 -319 -906 -367 -906 c 0
EndSplineSet
Refer: 179 3640 N 1 0 0 1 -70 -537 2
EndChar
StartChar: uni0E39.low
Encoding: 63257 63257 265
Width: 0
VWidth: 2045
Flags: W
HStem: -1014 112<-833.089 -694.552> -736 112<-833.372 -684.947>
VStem: -956 113<-891.183 -747.116> -673 113<-892.045 -746.961>
Back
-851 -826 m 0
 -851 -934 -763 -1021 -654 -1021 c 0
 -623 -1021 -595 -1015 -570 -1003 c 1
 -570 -1216 l 1
 -174 -1216 l 17
 -174 -631 l 1
 -287 -631 l 1
 -287 -1104 l 25
 -457 -1104 l 1
 -457 -826 l 2
 -457 -717 -546 -631 -654 -631 c 0
 -765 -631 -851 -720 -851 -826 c 0
-654 -909 m 0
 -703 -909 -738 -872 -738 -826 c 0
 -738 -780 -703 -743 -654 -743 c 0
 -605 -743 -570 -780 -570 -826 c 0
 -570 -872 -605 -909 -654 -909 c 0
EndSplineSet
Refer: 180 3641 N 1 0 0 1 -117 -540 2
EndChar
StartChar: uniF71C
Encoding: 63260 63260 266
Width: 698
VWidth: 2045
Flags: W
HStem: -423 269<107 244 244 244>
Fore
107 -423 m 1
 244 -154 l 1
 485 -154 l 1
 244 -423 l 1
 107 -423 l 1
EndSplineSet
EndChar
StartChar: uniF71D
Encoding: 63261 63261 267
Width: 798
VWidth: 2045
Flags: W
HStem: -127 102<265 531>
VStem: 183 82<-236 -127> 531 85<-236 -127>
Fore
616 -236 m 1
 531 -236 l 1
 531 -127 l 1
 265 -127 l 1
 265 -236 l 1
 183 -236 l 1
 183 -25 l 1
 616 -25 l 1
 616 -236 l 1
EndSplineSet
EndChar
StartChar: zerowidthnonjoiner
Encoding: 8204 8204 268
Width: 0
VWidth: 2045
Flags: W
HStem: -275 1563<-37 37 -37 37 -37 -37>
VStem: -37 74<-275 1288>
Fore
37 1288 m 1
 37 -275 l 1
 -37 -275 l 1
 -37 1288 l 1
 37 1288 l 1
EndSplineSet
EndChar
StartChar: uni0E3A.low
Encoding: 63258 63258 271
Width: 0
VWidth: 2045
Flags: W
HStem: -898 277<-466.314 -261.182>
VStem: -504 280<-861.517 -657.976>
Back
-428 -734 m 0
 -428 -656 -366 -599 -294 -599 c 0
 -215 -599 -160 -669 -160 -734 c 0
 -160 -819 -236 -868 -294 -868 c 0
 -363 -868 -428 -813 -428 -734 c 0
EndSplineSet
Refer: 181 3642 N 1 0 0 1 -44 -539 2
EndChar
StartChar: uniF71B
Encoding: 63259 63259 272
Width: 998
VWidth: 2045
Flags: W
HStem: 60 1024<215 829 215 829 215 215>
VStem: 215 614<60 1084>
Fore
829 1084 m 1
 829 60 l 1
 215 60 l 1
 215 1084 l 1
 829 1084 l 1
EndSplineSet
EndChar
